<?xml version="1.0" encoding="utf-8"?>
<!-- Generator: Adobe Illustrator 25.3.1, SVG Export Plug-In . SVG Version: 6.00 Build 0)  -->
<svg version="1.1" id="Layer_1" xmlns="http://www.w3.org/2000/svg" xmlns:xlink="http://www.w3.org/1999/xlink" x="0px" y="0px"
	 viewBox="0 0 428 428" style="enable-background:new 0 0 428 428;" xml:space="preserve">
<style type="text/css">
	.st0{fill:#FFFFFF;}
	.st1{fill:#010101;}
</style>
<polygon class="st0" points="418,30 418,20 408,20 408,10 398,10 398,0 30,0 30,10 20,10 20,20 10,20 10,30 0,30 0,398 10,398 
	10,408 20,408 20,418 30,418 30,428 398,428 398,418 408,418 408,408 418,408 418,398 428,398 428,30 "/>
<g>
	<rect x="29" y="19" class="st1" width="10" height="10"/>
	<polygon class="st1" points="19,49 19,39 9,39 9,49 9,214 9,389 19,389 19,214 	"/>
	<rect x="19" y="29" class="st1" width="10" height="10"/>
	<rect x="389" y="19" class="st1" width="10" height="10"/>
	<rect x="399" y="29" class="st1" width="10" height="10"/>
	<polygon class="st1" points="379,19 389,19 389,9 379,9 214,9 39,9 39,19 214,19 	"/>
	<rect x="389" y="399" class="st1" width="10" height="10"/>
	<rect x="19" y="389" class="st1" width="10" height="10"/>
	<polygon class="st1" points="409,39 409,214 409,379 409,389 419,389 419,379 419,214 419,39 	"/>
	<rect x="399" y="389" class="st1" width="10" height="10"/>
	<rect x="29" y="399" class="st1" width="10" height="10"/>
	<polygon class="st1" points="49,409 39,409 39,419 49,419 214,419 389,419 389,409 214,409 	"/>
</g>
</svg>
