<?xml version="1.0" encoding="utf-8"?>
<!-- Generator: Adobe Illustrator 25.3.1, SVG Export Plug-In . SVG Version: 6.00 Build 0)  -->
<svg version="1.1" id="Layer_1" xmlns="http://www.w3.org/2000/svg" xmlns:xlink="http://www.w3.org/1999/xlink" x="0px" y="0px"
	 viewBox="0 0 70 70" style="enable-background:new 0 0 70 70;" xml:space="preserve">
<style type="text/css">
	.st0{fill:#F7921E;}
	.st1{fill:#FFFFFF;}
</style>
<g>
	<polygon class="st0" points="63,14 63,7 56,7 56,0 49,0 42,0 35,0 28,0 21,0 14,0 14,7 7,7 7,14 0,14 0,21 0,28 0,35 0,35 0,42 
		0,49 0,56 7,56 7,63 14,63 14,70 21,70 28,70 35,70 42,70 49,70 56,70 56,63 63,63 63,56 70,56 70,49 70,42 70,35 70,28 70,21 
		70,14 	"/>
	<g>
		<rect x="14" y="17.5" class="st1" width="7" height="7"/>
		<rect x="28" y="17.5" transform="matrix(-1 -1.224647e-16 1.224647e-16 -1 84 42)" class="st1" width="28" height="7"/>
		<rect x="14" y="31.5" class="st1" width="7" height="7"/>
		<rect x="28" y="31.5" transform="matrix(-1 -1.224647e-16 1.224647e-16 -1 84 70)" class="st1" width="28" height="7"/>
		<rect x="14" y="45.5" class="st1" width="7" height="7"/>
		<rect x="28" y="45.5" transform="matrix(-1 -1.224647e-16 1.224647e-16 -1 84 98)" class="st1" width="28" height="7"/>
	</g>
</g>
</svg>
