<?xml version="1.0" encoding="utf-8"?>
<!-- Generator: Adobe Illustrator 22.0.1, SVG Export Plug-In . SVG Version: 6.00 Build 0)  -->
<svg version="1.1" id="ballon" xmlns="http://www.w3.org/2000/svg" xmlns:xlink="http://www.w3.org/1999/xlink" x="0px"
	 y="0px" viewBox="0 0 182.8 60.5" style="enable-background:new 0 0 182.8 60.5;" xml:space="preserve">
<style type="text/css">
	.st0{fill:#FFFFFF;}
	.st1{fill:#231815;}
</style>
<g>
	<polygon class="st0" points="0,0 0,52 81.7,52 81.7,54.8 84.6,54.8 84.6,57.7 87.4,57.7 87.4,60.5 95.9,60.5 95.9,57.7 98.7,57.7 
		98.7,54.8 101.6,54.8 101.6,52 183.1,52 183.1,0 	"/>
	<rect x="5.7" y="46.3" class="st1" width="78.9" height="2.8"/>
	<rect x="84.6" y="49.2" class="st1" width="2.8" height="2.8"/>
	<rect x="95.9" y="49.2" class="st1" width="2.8" height="2.8"/>
	<rect x="87.4" y="52" class="st1" width="2.8" height="2.8"/>
	<rect x="93.1" y="52" class="st1" width="2.8" height="2.8"/>
	<rect x="90.2" y="54.8" class="st1" width="2.8" height="2.8"/>
	<rect x="5.7" y="2.8" class="st1" width="93.9" height="2.8"/>
	<rect x="5.7" y="5.7" class="st1" width="2.8" height="2.8"/>
	<rect x="2.8" y="5.7" class="st1" width="2.8" height="40.7"/>
	
		<rect x="98.7" y="2.8" transform="matrix(-1 -1.224647e-16 1.224647e-16 -1 276.3376 8.504)" class="st1" width="78.9" height="2.8"/>
	
		<rect x="98.7" y="46.3" transform="matrix(-1 -1.224647e-16 1.224647e-16 -1 276.3376 95.502)" class="st1" width="78.9" height="2.8"/>
	
		<rect x="177.6" y="5.7" transform="matrix(-1 -1.224647e-16 1.224647e-16 -1 358.0609 52.003)" class="st1" width="2.8" height="40.7"/>
	<rect x="5.7" y="43.5" class="st1" width="2.8" height="2.8"/>
</g>
</svg>
