<svg width="877" height="17" viewBox="0 0 877 17" fill="none" xmlns="http://www.w3.org/2000/svg">
<path d="M5.45765 0H0V5.45764H5.45765V0Z" fill="#231F20"/>
<path d="M16.567 0H11.1094V5.45764H16.567V0Z" fill="#231F20"/>
<path d="M27.7194 0H22.2617V5.45764H27.7194V0Z" fill="#231F20"/>
<path d="M38.8938 0H33.4362V5.45764H38.8938V0Z" fill="#231F20"/>
<path d="M50.0463 0H44.5886V5.45764H50.0463V0Z" fill="#231F20"/>
<path d="M61.2207 0H55.7631V5.45764H61.2207V0Z" fill="#231F20"/>
<path d="M72.3942 0H66.9365V5.45764H72.3942V0Z" fill="#231F20"/>
<path d="M83.5475 0H78.0898V5.45764H83.5475V0Z" fill="#231F20"/>
<path d="M94.721 0H89.2633V5.45764H94.721V0Z" fill="#231F20"/>
<path d="M105.873 0H100.416V5.45764H105.873V0Z" fill="#231F20"/>
<path d="M117.048 0H111.591V5.45764H117.048V0Z" fill="#231F20"/>
<path d="M128.223 0H122.765V5.45764H128.223V0Z" fill="#231F20"/>
<path d="M139.375 0H133.917V5.45764H139.375V0Z" fill="#231F20"/>
<path d="M150.549 0H145.091V5.45764H150.549V0Z" fill="#231F20"/>
<path d="M161.702 0H156.244V5.45764H161.702V0Z" fill="#231F20"/>
<path d="M172.875 0H167.418V5.45764H172.875V0Z" fill="#231F20"/>
<path d="M184.05 0H178.592V5.45764H184.05V0Z" fill="#231F20"/>
<path d="M195.203 0H189.745V5.45764H195.203V0Z" fill="#231F20"/>
<path d="M206.377 0H200.919V5.45764H206.377V0Z" fill="#231F20"/>
<path d="M217.53 0H212.072V5.45764H217.53V0Z" fill="#231F20"/>
<path d="M228.704 0H223.246V5.45764H228.704V0Z" fill="#231F20"/>
<path d="M239.877 0H234.42V5.45764H239.877V0Z" fill="#231F20"/>
<path d="M251.03 0H245.572V5.45764H251.03V0Z" fill="#231F20"/>
<path d="M262.204 0H256.747V5.45764H262.204V0Z" fill="#231F20"/>
<path d="M273.357 0H267.899V5.45764H273.357V0Z" fill="#231F20"/>
<path d="M284.532 0H279.074V5.45764H284.532V0Z" fill="#231F20"/>
<path d="M295.705 0H290.247V5.45764H295.705V0Z" fill="#231F20"/>
<path d="M306.858 0H301.401V5.45764H306.858V0Z" fill="#231F20"/>
<path d="M318.032 0H312.574V5.45764H318.032V0Z" fill="#231F20"/>
<path d="M329.184 0H323.727V5.45764H329.184V0Z" fill="#231F20"/>
<path d="M340.359 0H334.901V5.45764H340.359V0Z" fill="#231F20"/>
<path d="M351.533 0H346.075V5.45764H351.533V0Z" fill="#231F20"/>
<path d="M362.685 0H357.228V5.45764H362.685V0Z" fill="#231F20"/>
<path d="M373.859 0H368.401V5.45764H373.859V0Z" fill="#231F20"/>
<path d="M385.013 0H379.555V5.45764H385.013V0Z" fill="#231F20"/>
<path d="M396.186 0H390.729V5.45764H396.186V0Z" fill="#231F20"/>
<path d="M407.361 0H401.903V5.45764H407.361V0Z" fill="#231F20"/>
<path d="M418.513 0H413.055V5.45764H418.513V0Z" fill="#231F20"/>
<path d="M429.688 0H424.23V5.45764H429.688V0Z" fill="#231F20"/>
<path d="M440.84 0H435.382V5.45764H440.84V0Z" fill="#231F20"/>
<path d="M16.6321 11.0227H11.1744V16.4804H16.6321V11.0227Z" fill="#231F20"/>
<path d="M27.7415 11.0227H22.2838V16.4804H27.7415V11.0227Z" fill="#231F20"/>
<path d="M38.8938 11.0227H33.4362V16.4804H38.8938V11.0227Z" fill="#231F20"/>
<path d="M50.0682 11.0227H44.6106V16.4804H50.0682V11.0227Z" fill="#231F20"/>
<path d="M61.2207 11.0227H55.7631V16.4804H61.2207V11.0227Z" fill="#231F20"/>
<path d="M72.3942 11.0227H66.9365V16.4804H72.3942V11.0227Z" fill="#231F20"/>
<path d="M83.5685 11.0227H78.1108V16.4804H83.5685V11.0227Z" fill="#231F20"/>
<path d="M94.721 11.0227H89.2633V16.4804H94.721V11.0227Z" fill="#231F20"/>
<path d="M105.896 11.0227H100.438V16.4804H105.896V11.0227Z" fill="#231F20"/>
<path d="M117.048 11.0227H111.591V16.4804H117.048V11.0227Z" fill="#231F20"/>
<path d="M128.223 11.0227H122.765V16.4804H128.223V11.0227Z" fill="#231F20"/>
<path d="M139.396 11.0227H133.938V16.4804H139.396V11.0227Z" fill="#231F20"/>
<path d="M150.549 11.0227H145.091V16.4804H150.549V11.0227Z" fill="#231F20"/>
<path d="M161.723 11.0227H156.265V16.4804H161.723V11.0227Z" fill="#231F20"/>
<path d="M172.875 11.0227H167.418V16.4804H172.875V11.0227Z" fill="#231F20"/>
<path d="M184.05 11.0227H178.592V16.4804H184.05V11.0227Z" fill="#231F20"/>
<path d="M195.203 11.0227H189.745V16.4804H195.203V11.0227Z" fill="#231F20"/>
<path d="M206.377 11.0227H200.919V16.4804H206.377V11.0227Z" fill="#231F20"/>
<path d="M217.551 11.0227H212.093V16.4804H217.551V11.0227Z" fill="#231F20"/>
<path d="M228.704 11.0227H223.246V16.4804H228.704V11.0227Z" fill="#231F20"/>
<path d="M239.877 11.0227H234.42V16.4804H239.877V11.0227Z" fill="#231F20"/>
<path d="M251.03 11.0227H245.572V16.4804H251.03V11.0227Z" fill="#231F20"/>
<path d="M262.204 11.0227H256.747V16.4804H262.204V11.0227Z" fill="#231F20"/>
<path d="M273.379 11.0227H267.921V16.4804H273.379V11.0227Z" fill="#231F20"/>
<path d="M284.532 11.0227H279.074V16.4804H284.532V11.0227Z" fill="#231F20"/>
<path d="M295.705 11.0227H290.247V16.4804H295.705V11.0227Z" fill="#231F20"/>
<path d="M306.858 11.0227H301.401V16.4804H306.858V11.0227Z" fill="#231F20"/>
<path d="M318.032 11.0227H312.574V16.4804H318.032V11.0227Z" fill="#231F20"/>
<path d="M329.206 11.0227H323.749V16.4804H329.206V11.0227Z" fill="#231F20"/>
<path d="M340.359 11.0227H334.901V16.4804H340.359V11.0227Z" fill="#231F20"/>
<path d="M351.533 11.0227H346.075V16.4804H351.533V11.0227Z" fill="#231F20"/>
<path d="M362.685 11.0227H357.228V16.4804H362.685V11.0227Z" fill="#231F20"/>
<path d="M373.859 11.0227H368.401V16.4804H373.859V11.0227Z" fill="#231F20"/>
<path d="M385.034 11.0227H379.576V16.4804H385.034V11.0227Z" fill="#231F20"/>
<path d="M396.186 11.0227H390.729V16.4804H396.186V11.0227Z" fill="#231F20"/>
<path d="M407.361 11.0227H401.903V16.4804H407.361V11.0227Z" fill="#231F20"/>
<path d="M418.513 11.0227H413.055V16.4804H418.513V11.0227Z" fill="#231F20"/>
<path d="M429.688 11.0227H424.23V16.4804H429.688V11.0227Z" fill="#231F20"/>
<path d="M440.861 11.0227H435.403V16.4804H440.861V11.0227Z" fill="#231F20"/>
<path d="M452.014 0H446.557V5.45764H452.014V0Z" fill="#231F20"/>
<path d="M463.188 0H457.73V5.45764H463.188V0Z" fill="#231F20"/>
<path d="M474.34 0H468.883V5.45764H474.34V0Z" fill="#231F20"/>
<path d="M485.515 0H480.057V5.45764H485.515V0Z" fill="#231F20"/>
<path d="M496.667 0H491.21V5.45764H496.667V0Z" fill="#231F20"/>
<path d="M507.842 0H502.384V5.45764H507.842V0Z" fill="#231F20"/>
<path d="M519.015 0H513.558V5.45764H519.015V0Z" fill="#231F20"/>
<path d="M530.169 0H524.711V5.45764H530.169V0Z" fill="#231F20"/>
<path d="M541.342 0H535.885V5.45764H541.342V0Z" fill="#231F20"/>
<path d="M552.495 0H547.037V5.45764H552.495V0Z" fill="#231F20"/>
<path d="M563.669 0H558.211V5.45764H563.669V0Z" fill="#231F20"/>
<path d="M574.844 0H569.386V5.45764H574.844V0Z" fill="#231F20"/>
<path d="M585.996 0H580.539V5.45764H585.996V0Z" fill="#231F20"/>
<path d="M597.17 0H591.712V5.45764H597.17V0Z" fill="#231F20"/>
<path d="M608.323 0H602.865V5.45764H608.323V0Z" fill="#231F20"/>
<path d="M619.497 0H614.039V5.45764H619.497V0Z" fill="#231F20"/>
<path d="M630.671 0H625.213V5.45764H630.671V0Z" fill="#231F20"/>
<path d="M641.823 0H636.366V5.45764H641.823V0Z" fill="#231F20"/>
<path d="M652.998 0H647.541V5.45764H652.998V0Z" fill="#231F20"/>
<path d="M664.151 0H658.693V5.45764H664.151V0Z" fill="#231F20"/>
<path d="M675.324 0H669.866V5.45764H675.324V0Z" fill="#231F20"/>
<path d="M686.499 0H681.041V5.45764H686.499V0Z" fill="#231F20"/>
<path d="M697.651 0H692.193V5.45764H697.651V0Z" fill="#231F20"/>
<path d="M708.826 0H703.368V5.45764H708.826V0Z" fill="#231F20"/>
<path d="M719.978 0H714.52V5.45764H719.978V0Z" fill="#231F20"/>
<path d="M731.152 0H725.695V5.45764H731.152V0Z" fill="#231F20"/>
<path d="M742.326 0H736.868V5.45764H742.326V0Z" fill="#231F20"/>
<path d="M753.479 0H748.022V5.45764H753.479V0Z" fill="#231F20"/>
<path d="M764.653 0H759.195V5.45764H764.653V0Z" fill="#231F20"/>
<path d="M775.805 0H770.348V5.45764H775.805V0Z" fill="#231F20"/>
<path d="M786.98 0H781.522V5.45764H786.98V0Z" fill="#231F20"/>
<path d="M798.154 0H792.697V5.45764H798.154V0Z" fill="#231F20"/>
<path d="M809.307 0H803.849V5.45764H809.307V0Z" fill="#231F20"/>
<path d="M820.48 0H815.022V5.45764H820.48V0Z" fill="#231F20"/>
<path d="M831.633 0H826.175V5.45764H831.633V0Z" fill="#231F20"/>
<path d="M842.807 0H837.35V5.45764H842.807V0Z" fill="#231F20"/>
<path d="M853.982 0H848.524V5.45764H853.982V0Z" fill="#231F20"/>
<path d="M865.134 0H859.677V5.45764H865.134V0Z" fill="#231F20"/>
<path d="M876.309 0H870.851V5.45764H876.309V0Z" fill="#231F20"/>
<path d="M452.014 11.0227H446.557V16.4804H452.014V11.0227Z" fill="#231F20"/>
<path d="M463.188 11.0227H457.73V16.4804H463.188V11.0227Z" fill="#231F20"/>
<path d="M474.34 11.0227H468.883V16.4804H474.34V11.0227Z" fill="#231F20"/>
<path d="M485.515 11.0227H480.057V16.4804H485.515V11.0227Z" fill="#231F20"/>
<path d="M496.69 11.0227H491.232V16.4804H496.69V11.0227Z" fill="#231F20"/>
<path d="M507.842 11.0227H502.384V16.4804H507.842V11.0227Z" fill="#231F20"/>
<path d="M519.015 11.0227H513.558V16.4804H519.015V11.0227Z" fill="#231F20"/>
<path d="M530.169 11.0227H524.711V16.4804H530.169V11.0227Z" fill="#231F20"/>
<path d="M541.342 11.0227H535.885V16.4804H541.342V11.0227Z" fill="#231F20"/>
<path d="M552.495 11.0227H547.037V16.4804H552.495V11.0227Z" fill="#231F20"/>
<path d="M563.669 11.0227H558.211V16.4804H563.669V11.0227Z" fill="#231F20"/>
<path d="M574.844 11.0227H569.386V16.4804H574.844V11.0227Z" fill="#231F20"/>
<path d="M585.996 11.0227H580.539V16.4804H585.996V11.0227Z" fill="#231F20"/>
<path d="M597.17 11.0227H591.712V16.4804H597.17V11.0227Z" fill="#231F20"/>
<path d="M608.323 11.0227H602.865V16.4804H608.323V11.0227Z" fill="#231F20"/>
<path d="M619.497 11.0227H614.039V16.4804H619.497V11.0227Z" fill="#231F20"/>
<path d="M630.671 11.0227H625.213V16.4804H630.671V11.0227Z" fill="#231F20"/>
<path d="M641.823 11.0227H636.366V16.4804H641.823V11.0227Z" fill="#231F20"/>
<path d="M652.998 11.0227H647.541V16.4804H652.998V11.0227Z" fill="#231F20"/>
<path d="M664.151 11.0227H658.693V16.4804H664.151V11.0227Z" fill="#231F20"/>
<path d="M675.324 11.0227H669.866V16.4804H675.324V11.0227Z" fill="#231F20"/>
<path d="M686.499 11.0227H681.041V16.4804H686.499V11.0227Z" fill="#231F20"/>
<path d="M697.651 11.0227H692.193V16.4804H697.651V11.0227Z" fill="#231F20"/>
<path d="M708.826 11.0227H703.368V16.4804H708.826V11.0227Z" fill="#231F20"/>
<path d="M719.978 11.0227H714.52V16.4804H719.978V11.0227Z" fill="#231F20"/>
<path d="M731.152 11.0227H725.695V16.4804H731.152V11.0227Z" fill="#231F20"/>
<path d="M742.326 11.0227H736.868V16.4804H742.326V11.0227Z" fill="#231F20"/>
<path d="M753.479 11.0227H748.022V16.4804H753.479V11.0227Z" fill="#231F20"/>
<path d="M764.653 11.0227H759.195V16.4804H764.653V11.0227Z" fill="#231F20"/>
<path d="M775.805 11.0227H770.348V16.4804H775.805V11.0227Z" fill="#231F20"/>
<path d="M786.98 11.0227H781.522V16.4804H786.98V11.0227Z" fill="#231F20"/>
<path d="M798.154 11.0227H792.697V16.4804H798.154V11.0227Z" fill="#231F20"/>
<path d="M809.307 11.0227H803.849V16.4804H809.307V11.0227Z" fill="#231F20"/>
<path d="M820.48 11.0227H815.022V16.4804H820.48V11.0227Z" fill="#231F20"/>
<path d="M831.633 11.0227H826.175V16.4804H831.633V11.0227Z" fill="#231F20"/>
<path d="M842.807 11.0227H837.35V16.4804H842.807V11.0227Z" fill="#231F20"/>
<path d="M853.982 11.0227H848.524V16.4804H853.982V11.0227Z" fill="#231F20"/>
<path d="M865.134 11.0227H859.677V16.4804H865.134V11.0227Z" fill="#231F20"/>
</svg>
