<?xml version="1.0" encoding="utf-8"?>
<!-- Generator: Adobe Illustrator 25.3.1, SVG Export Plug-In . SVG Version: 6.00 Build 0)  -->
<svg version="1.1" width="current" height="current" id="Layer_1" xmlns="http://www.w3.org/2000/svg"
	xmlns:xlink="http://www.w3.org/1999/xlink" x="0px" y="0px"
	viewBox="0 0 67.2 42.1" style="enable-background:new 0 0 67.2 42.1;" xml:space="preserve">
<rect x="9" y="37.7" class="st0" width="4.5" height="4.5"/>
<rect x="4.5" y="33.2" class="st0" width="4.5" height="4.5"/>
<rect y="28.7" class="st0" width="4.5" height="4.5"/>
<rect y="24.2" class="st0" width="4.5" height="4.5"/>
<rect y="19.7" class="st0" width="4.5" height="4.5"/>
<rect x="4.5" y="15.2" class="st0" width="4.5" height="4.5"/>
<rect x="9" y="15.2" class="st0" width="4.5" height="4.5"/>
<rect x="13.4" y="10.8" class="st0" width="4.5" height="4.5"/>
<rect x="17.9" y="6.3" class="st0" width="4.5" height="4.5"/>
<rect x="22.4" y="1.8" class="st0" width="4.5" height="4.5"/>
<rect x="26.9" y="1.8" class="st0" width="4.5" height="4.5"/>
<rect x="31.4" y="1.8" class="st0" width="4.5" height="4.5"/>
<rect x="35.9" y="1.8" class="st0" width="4.5" height="4.5"/>
<rect x="40.3" y="1.8" class="st0" width="4.5" height="4.5"/>
<rect x="44.8" y="6.3" class="st0" width="4.5" height="4.5"/>
<rect x="49.3" y="10.8" class="st0" width="4.5" height="4.5"/>
<rect x="53.8" y="15.2" class="st0" width="4.5" height="4.5"/>
<rect x="58.3" y="15.2" class="st0" width="4.5" height="4.5"/>
<rect x="62.8" y="24.2" class="st0" width="4.5" height="4.5"/>
<rect x="62.8" y="19.7" class="st0" width="4.5" height="4.5"/>
<rect x="62.8" y="28.7" class="st0" width="4.5" height="4.5"/>
<rect x="58.3" y="33.2" class="st0" width="4.5" height="4.5"/>
<rect x="53.8" y="37.7" class="st0" width="4.5" height="4.5"/>
<rect x="13.4" y="37.7" class="st0" width="4.5" height="4.5"/>
<rect x="17.9" y="37.7" class="st0" width="4.5" height="4.5"/>
<rect x="22.4" y="37.7" class="st0" width="4.5" height="4.5"/>
<rect x="26.9" y="37.7" class="st0" width="4.5" height="4.5"/>
<rect x="31.4" y="37.7" class="st0" width="4.5" height="4.5"/>
<rect x="35.9" y="37.7" class="st0" width="4.5" height="4.5"/>
<rect x="40.3" y="37.7" class="st0" width="4.5" height="4.5"/>
<rect x="44.8" y="37.7" class="st0" width="4.5" height="4.5"/>
<rect x="49.3" y="37.7" class="st0" width="4.5" height="4.5"/>
<g>
	<polygon class="st0" points="4.5,24.2 4.5,19.7 0,19.7 0,24.2 0,28.7 0,33.2 4.5,33.2 4.5,37.7 9,37.7 9,33.2 4.5,33.2 4.5,28.7 	
		"/>
	<polygon class="st0" points="9,19.7 13.5,19.7 13.5,15.2 9,15.2 4.5,15.2 4.5,15.2 4.5,19.7 4.5,19.7 	"/>
	<rect x="13.5" y="10.8" class="st0" width="4.5" height="4.5"/>
	<rect x="17.9" y="6.3" class="st0" width="4.5" height="4.5"/>
	<polygon class="st0" points="31.4,6.3 35.9,6.3 40.3,6.3 44.8,6.3 44.8,1.8 40.3,1.8 35.9,1.8 31.4,1.8 26.9,1.8 22.4,1.8 
		22.4,6.3 26.9,6.3 	"/>
	<rect x="44.8" y="6.3" class="st0" width="4.5" height="4.5"/>
	<rect x="49.3" y="10.8" class="st0" width="4.5" height="4.5"/>
	<polygon class="st0" points="58.3,15.2 53.8,15.2 53.8,19.7 58.3,19.7 62.8,19.7 62.8,15.2 	"/>
	<polygon class="st0" points="62.8,19.7 62.8,24.2 62.8,28.7 62.8,29.6 62.8,33.2 58.3,33.2 58.3,37.7 62.8,37.7 62.8,33.2 
		67.2,33.2 67.2,29.6 67.2,28.7 67.2,24.2 67.2,19.7 	"/>
	<polygon class="st0" points="53.8,37.7 49.3,37.7 44.8,37.7 41.8,37.7 40.4,37.7 40.3,37.7 35.9,37.7 31.4,37.7 26.9,37.7 
		25.4,37.7 22.4,37.7 9,37.7 9,42.1 22.4,42.1 25.4,42.1 26.9,42.1 31.4,42.1 35.9,42.1 40.3,42.1 40.4,42.1 41.8,42.1 44.8,42.1 
		49.3,42.1 53.8,42.1 53.8,42.1 58.3,42.1 58.3,37.7 53.8,37.7 	"/>
</g>
</svg>