<?xml version="1.0" encoding="utf-8"?>
<svg version="1.1" id="cloud-fill" xmlns="http://www.w3.org/2000/svg"
	xmlns:xlink="http://www.w3.org/1999/xlink" x="0px" y="0px"
	viewBox="0 0 67.3 40.4" style="enable-background:new 0 0 67.3 40.4;" xml:space="preserve">
<polygon points="67.2,17.9 62.8,17.9 62.8,13.4 58.3,13.4 53.8,13.4 53.8,9 49.82,9 49.3,9 49.3,4.5 44.8,4.5 44.8,0 40.4,0 40.3,0 
	35.9,0 31.4,0 26.9,0 22.4,0 22.4,4.5 17.9,4.5 17.9,9 13.5,9 13.4,9 13.4,13.4 12.35,13.4 9,13.4 4.5,13.4 4.5,17.9 0,17.9 0,22.4 
	0,26.9 0,31.4 4.5,31.4 4.5,35.9 6.75,35.9 9,35.9 9,40.3 9,40.4 13.4,40.4 13.5,40.4 17.9,40.4 22.4,40.4 26.9,40.4 31.4,40.4 
	35.9,40.4 40.3,40.4 40.4,40.4 44.8,40.4 49.3,40.4 53.8,40.4 58.3,40.4 58.3,40.3 58.3,35.9 62.8,35.9 62.8,31.4 67.2,31.4 
	67.3,31.4 67.3,26.9 67.3,22.4 67.3,17.9 "/>
</svg>