<?xml version="1.0" encoding="utf-8"?>
<!-- Generator: Adobe Illustrator 25.3.1, SVG Export Plug-In . SVG Version: 6.00 Build 0)  -->
<svg version="1.1" id="Layer_1" xmlns="http://www.w3.org/2000/svg" xmlns:xlink="http://www.w3.org/1999/xlink" x="0px" y="0px"
	 viewBox="0 0 100.73 74.48" style="enable-background:new 0 0 100.73 74.48;" xml:space="preserve">
<style type="text/css">
	.st0{fill:#FFFFFF;}
	.st1{fill:#231F20;}
</style>
<g>
	<polygon class="st0" points="96.25,4.48 96.25,0 91.77,0 8.97,0 4.48,0 4.48,4.48 0,4.48 0,8.97 0,8.97 0,13.45 0,17.93 0,65.51 
		0,70 4.48,70 4.48,74.48 8.97,74.48 91.77,74.48 96.25,74.48 96.25,70 100.73,70 100.73,65.51 100.73,8.97 100.73,4.48 	"/>
	<g>
		<rect x="4.48" y="8.97" class="st1" width="4.48" height="4.48"/>
		<rect x="8.97" y="8.97" class="st1" width="4.48" height="4.48"/>
		<rect x="13.45" y="13.45" class="st1" width="4.48" height="4.48"/>
		<rect x="17.93" y="17.93" class="st1" width="4.48" height="4.48"/>
		<rect x="22.41" y="22.42" class="st1" width="4.48" height="4.48"/>
		<rect x="26.9" y="26.9" class="st1" width="4.48" height="4.48"/>
		<rect x="31.38" y="31.38" class="st1" width="4.48" height="4.48"/>
		<rect x="64.87" y="31.38" class="st1" width="4.48" height="4.48"/>
		<rect x="69.35" y="26.9" class="st1" width="4.48" height="4.48"/>
		<rect x="73.83" y="22.42" class="st1" width="4.48" height="4.48"/>
		<rect x="78.32" y="17.93" class="st1" width="4.48" height="4.48"/>
		<rect x="82.8" y="13.45" class="st1" width="4.48" height="4.48"/>
		<rect x="87.28" y="8.97" class="st1" width="4.48" height="4.48"/>
		<rect x="35.86" y="35.86" class="st1" width="4.48" height="4.48"/>
		<rect x="40.35" y="35.86" class="st1" width="4.48" height="4.48"/>
		<rect x="44.83" y="35.86" class="st1" width="4.48" height="4.48"/>
		<rect x="49.31" y="35.86" class="st1" width="4.48" height="4.48"/>
		<rect x="53.8" y="35.86" class="st1" width="4.48" height="4.48"/>
		<rect x="58.28" y="35.86" class="st1" width="6.59" height="4.48"/>
		<rect x="8.97" y="65.51" class="st1" width="82.8" height="4.48"/>
		<rect x="4.48" y="13.45" class="st1" width="4.48" height="52.06"/>
		<rect x="91.77" y="8.97" class="st1" width="4.48" height="56.55"/>
		<rect x="8.97" y="4.48" class="st1" width="82.8" height="4.48"/>
	</g>
</g>
</svg>
