<?xml version="1.0" encoding="utf-8"?>
<!-- Generator: Adobe Illustrator 25.3.1, SVG Export Plug-In . SVG Version: 6.00 Build 0)  -->
<svg version="1.1" id="PfIcon" xmlns="http://www.w3.org/2000/svg"
	xmlns:xlink="http://www.w3.org/1999/xlink" x="0px" y="0px"
	viewBox="0 0 103.11 105.74" style="enable-background:new 0 0 103.11 105.74;"
	xml:space="preserve">
<style type="text/css">
	.st0{fill:#FFFFFF;}
</style>
<g>
	<polygon class="st0" points="98.63,17.93 98.63,13.45 94.14,13.45 94.14,8.97 89.66,8.97 89.66,4.48 85.18,4.48 85.18,0 17.93,0 
		17.93,37.3 4.48,37.3 4.48,41.79 0,41.79 0,64.2 4.48,64.2 4.48,73.17 8.97,73.17 8.97,82.13 13.45,82.13 13.45,91.1 17.93,91.1 
		17.93,100.06 22.42,100.06 22.42,104.55 98.63,104.55 98.63,100.06 103.11,100.06 103.11,17.93 	"/>
	<g>
		<g>
			<rect x="26.9" y="95.58" width="67.24" height="4.48"/>
		</g>
		<g>
			<polygon points="26.9,86.62 22.41,86.62 22.41,91.1 22.41,95.58 26.9,95.58 26.9,91.1 			"/>
		</g>
		<g>
			<polygon points="22.41,77.65 17.93,77.65 17.93,82.13 17.93,86.62 22.41,86.62 22.41,82.13 			"/>
		</g>
		<g>
			<polygon points="17.93,68.68 13.45,68.68 13.45,73.17 13.45,77.65 17.93,77.65 17.93,73.17 			"/>
		</g>
		<g>
			<polygon points="13.45,59.72 8.97,59.72 8.97,64.2 8.97,68.68 13.45,68.68 13.45,64.2 			"/>
		</g>
		<g>
			<polygon points="94.14,22.41 94.14,77.65 89.66,77.65 89.66,82.13 89.66,86.62 94.14,86.62 94.14,91.1 94.14,95.58 98.63,95.58 
				98.63,91.1 98.63,22.41 			"/>
		</g>
		<g>
			<polygon points="89.66,68.68 85.18,68.68 85.18,73.17 85.18,77.65 89.66,77.65 89.66,73.17 			"/>
		</g>
		<g>
			<rect x="89.66" y="17.93" width="4.48" height="4.48"/>
		</g>
		<g>
			<rect x="85.18" y="13.45" width="4.48" height="4.48"/>
		</g>
		<g>
			<rect x="80.69" y="8.97" width="4.48" height="4.48"/>
		</g>
		<g>
			<polygon points="85.18,59.72 85.18,55.23 80.69,55.23 80.69,59.72 80.69,64.2 80.69,68.68 85.18,68.68 85.18,64.2 			"/>
		</g>
		<g>
			<polygon points="8.97,50.75 8.97,46.27 4.48,46.27 4.48,50.75 4.48,55.23 4.48,59.72 8.97,59.72 8.97,55.23 			"/>
		</g>
		<g>
			<polygon points="17.93,46.27 22.41,46.27 26.9,46.27 26.9,8.97 80.69,8.97 80.69,4.48 26.9,4.48 22.41,4.48 22.41,8.97 
				22.41,41.79 17.93,41.79 13.45,41.79 8.97,41.79 8.97,46.27 13.45,46.27 			"/>
		</g>
		<g>
			<rect x="26.9" y="46.27" width="4.48" height="4.48"/>
		</g>
		<g>
			<rect x="38.11" y="22.41" width="4.48" height="4.48"/>
		</g>
		<g>
			<rect x="38.11" y="33.68" width="4.48" height="4.48"/>
		</g>
		<g>
			<polygon points="47.07,42.65 63.88,42.65 63.88,38.17 47.07,38.17 42.59,38.17 42.59,42.65 			"/>
		</g>
		<g>
			<rect x="63.88" y="22.41" width="4.48" height="4.48"/>
		</g>
		<g>
			<rect x="63.88" y="33.68" width="4.48" height="4.48"/>
		</g>
		<g>
			<polygon points="76.21,50.75 71.73,50.75 67.24,50.75 62.76,50.75 58.28,50.75 53.8,50.75 49.31,50.75 44.83,50.75 40.35,50.75 
				35.86,50.75 31.38,50.75 31.38,55.23 35.86,55.23 40.35,55.23 44.83,55.23 49.31,55.23 53.8,55.23 58.28,55.23 62.76,55.23 
				67.24,55.23 71.73,55.23 76.21,55.23 80.69,55.23 80.69,50.75 			"/>
		</g>
	</g>
</g>
</svg>