<?xml version="1.0" encoding="utf-8"?>
<!-- Generator: Adobe Illustrator 25.3.1, SVG Export Plug-In . SVG Version: 6.00 Build 0)  -->
<svg version="1.1" id="Layer_1" xmlns="http://www.w3.org/2000/svg" xmlns:xlink="http://www.w3.org/1999/xlink" x="0px" y="0px"
	 viewBox="0 0 125.52 116.56" style="enable-background:new 0 0 125.52 116.56;" xml:space="preserve">
<style type="text/css">
	.st0{fill:#231F20;}
	.st1{fill:#FFFFFF;}
</style>
<g>
	<g>
		<polygon class="st0" points="42.59,114.32 42.59,109.83 33.62,109.83 33.62,105.35 24.66,105.35 24.66,100.87 20.17,100.87 
			20.17,96.38 15.69,96.38 15.69,91.9 11.21,91.9 11.21,82.94 6.72,82.94 6.72,73.97 2.24,73.97 2.24,42.59 6.72,42.59 6.72,33.62 
			11.21,33.62 11.21,24.66 15.69,24.66 15.69,20.17 20.17,20.17 20.17,15.69 24.66,15.69 24.66,11.21 33.62,11.21 33.62,6.72 
			42.59,6.72 42.59,2.24 82.94,2.24 82.94,6.72 91.9,6.72 91.9,11.21 100.87,11.21 100.87,15.69 105.35,15.69 105.35,20.17 
			109.83,20.17 109.83,24.66 114.32,24.66 114.32,33.62 118.8,33.62 118.8,42.59 123.28,42.59 123.28,73.97 118.8,73.97 
			118.8,82.94 114.32,82.94 114.32,91.9 109.83,91.9 109.83,96.38 105.35,96.38 105.35,100.87 100.87,100.87 100.87,105.35 
			91.9,105.35 91.9,109.83 82.94,109.83 82.94,114.32 		"/>
		<path class="st1" d="M80.69,4.48v4.48h4.48h4.48v4.48h4.48h4.48v4.48h4.48v4.48h4.48v4.48h4.48v4.48v4.48h4.48v4.48v4.48h4.48
			v4.48v4.48v4.48v4.48v4.48v4.48h-4.48v4.48v4.48h-4.48v4.48v4.48h-4.48v4.48h-4.48v4.48h-4.48v4.48h-4.48h-4.48v4.48h-4.48h-4.48
			v4.48h-4.48h-4.48h-4.48h-4.48h-4.48H53.8h-4.48h-4.48v-4.48h-4.48h-4.48v-4.48h-4.48H26.9v-4.48h-4.48v-4.48h-4.48v-4.48h-4.48
			v-4.48v-4.48H8.97v-4.48v-4.48H4.48v-4.48v-4.48v-4.48V53.8v-4.48v-4.48h4.48v-4.48v-4.48h4.48v-4.48V26.9h4.48v-4.48h4.48v-4.48
			h4.48v-4.48h4.48h4.48V8.97h4.48h4.48V4.48h4.48h4.48h4.48h4.48h4.48h4.48h4.48H80.69 M85.18,0h-4.48h-4.48h-4.48h-4.48h-4.48
			h-4.48H53.8h-4.48h-4.48h-4.48v4.48h0h-4.48h-4.48v4.48h0H26.9h-4.48v4.48h0h-4.48v4.48h-4.48v4.48v0h0H8.97v4.48v4.48H4.48v4.48
			v4.48h0H0v4.48v4.48v4.48v4.48v4.48v4.48v4.48v4.48h4.48l0,0v4.48v4.48h4.48l0,0v4.48v4.48h4.48l0,4.48h4.48l0,0v4.48h4.48h0v4.48
			h4.48h4.48l0,4.48h4.48h4.48l0,0v4.48h4.48h4.48h4.48h4.48h4.48h4.48h4.48h4.48h4.48h4.48v-4.48v0h0h4.48h4.48v-4.48h0h4.48h4.48
			v-4.48h0h4.48v-4.48h4.48v-4.48h0h4.48v-4.48v-4.48h4.48v-4.48v-4.48v0h0h4.48v-4.48v-4.48v-4.48v-4.48V53.8v-4.48v-4.48v-4.48
			h-4.48l0-4.48v-4.48h-4.48V26.9v-4.48h-4.48l0,0v-4.48h-4.48v-4.48h-4.48h0V8.97h-4.48h-4.48h0V4.48h-4.48h-4.48L85.18,0L85.18,0z
			"/>
	</g>
	<path class="st1" d="M92.83,44.83V40.5v-4.33v-0.15v-4.33V27.2h-4.48h-4.48v4.48h-4.48H74.9h-4.48v0.04
		c-0.04-0.03-0.08-0.04-0.08-0.04V27.2h-7.77h-0.15h-7.77v4.48l-0.08,0.04v-0.04h-4.48h-4.48h-4.48V27.2h-4.48h-4.48v4.48v4.33v0.15
		v4.33v4.33h-4.33v4.48v4.48v4.48v4.48v4.48h4.48v4.48h4.48l0,0v4.48h4.48v4.48h4.33h0.15h8.97v4.48h-4.48v4.48h-4.48h-4.48h-4.48
		v-4.48h-4.48v-4.48h-4.48h-4.48v4.48h4.48v4.48h4.48v4.48h4.48v4.48h4.48h4.48h4.48v13.45H74.9V89.66v-4.48h-4.48v-4.48h8.81h4.48
		v-4.48h4.48v-4.48h4.48v-4.48h4.48v-4.48v-4.48V53.8v-4.48v-4.48H92.83z"/>
</g>
</svg>
