<?xml version="1.0" encoding="utf-8"?>
<!-- Generator: Adobe Illustrator 25.3.1, SVG Export Plug-In . SVG Version: 6.00 Build 0)  -->
<svg version="1.1" id="Layer_1" xmlns="http://www.w3.org/2000/svg" xmlns:xlink="http://www.w3.org/1999/xlink" x="0px" y="0px"
	 viewBox="0 0 481.34 106.31" style="enable-background:new 0 0 481.34 106.31;" xml:space="preserve">
<style type="text/css">
	.st0{fill:#FFFFFF;}
</style>
<g>
	<rect y="83.9" class="st0" width="4.48" height="4.48"/>
	<rect y="92.86" class="st0" width="4.48" height="4.48"/>
	<rect y="97.35" class="st0" width="4.48" height="4.48"/>
	<rect y="101.83" class="st0" width="481.34" height="4.48"/>
	<rect y="88.38" class="st0" width="481.34" height="4.48"/>
	<rect x="4.48" y="79.42" class="st0" width="4.48" height="4.48"/>
	<rect x="8.97" y="74.93" class="st0" width="4.48" height="4.48"/>
	<rect x="13.45" y="70.45" class="st0" width="4.48" height="4.48"/>
	<rect x="17.93" y="65.97" class="st0" width="4.48" height="4.48"/>
	<rect x="22.42" y="61.48" class="st0" width="4.48" height="4.48"/>
	<rect x="26.9" y="57" class="st0" width="4.48" height="4.48"/>
	<rect x="31.38" y="57" class="st0" width="4.48" height="4.48"/>
	<rect x="35.86" y="57" class="st0" width="4.48" height="4.48"/>
	<rect x="40.35" y="57" class="st0" width="4.48" height="4.48"/>
	<rect x="44.83" y="57" class="st0" width="4.48" height="4.48"/>
	<rect x="49.31" y="57" class="st0" width="4.48" height="4.48"/>
	<rect x="53.8" y="57" class="st0" width="4.48" height="4.48"/>
	<rect x="58.28" y="57" class="st0" width="4.48" height="4.48"/>
	<rect x="62.76" y="57" class="st0" width="4.48" height="4.48"/>
	<rect x="67.25" y="57" class="st0" width="4.48" height="4.48"/>
	<rect x="71.73" y="57" class="st0" width="4.48" height="4.48"/>
	<rect x="76.21" y="57" class="st0" width="4.48" height="4.48"/>
	<rect x="80.69" y="57" class="st0" width="4.48" height="4.48"/>
	<rect x="85.18" y="57" class="st0" width="4.48" height="4.48"/>
	<rect x="89.66" y="57" class="st0" width="4.48" height="4.48"/>
	<rect x="94.14" y="57" class="st0" width="4.48" height="4.48"/>
	<rect x="98.63" y="57" class="st0" width="4.48" height="4.48"/>
	<rect x="103.11" y="57" class="st0" width="4.48" height="4.48"/>
	<rect x="107.59" y="57" class="st0" width="4.48" height="4.48"/>
	<rect x="112.07" y="57" class="st0" width="4.48" height="4.48"/>
	<rect x="116.56" y="57" class="st0" width="4.48" height="4.48"/>
	<rect x="121.04" y="57" class="st0" width="4.48" height="4.48"/>
	<rect x="125.52" y="57" class="st0" width="4.48" height="4.48"/>
	<rect x="130.01" y="57" class="st0" width="4.48" height="4.48"/>
	<rect x="134.49" y="57" class="st0" width="4.48" height="4.48"/>
	<rect x="138.97" y="57" class="st0" width="4.48" height="4.48"/>
	<rect x="143.46" y="57" class="st0" width="4.48" height="4.48"/>
	<rect x="147.94" y="57" class="st0" width="4.48" height="4.48"/>
	<rect x="152.42" y="57" class="st0" width="4.48" height="4.48"/>
	<rect x="156.9" y="57" class="st0" width="4.48" height="4.48"/>
	<rect x="161.39" y="57" class="st0" width="4.48" height="4.48"/>
	<rect x="165.87" y="57" class="st0" width="4.48" height="4.48"/>
	<rect x="170.35" y="57" class="st0" width="4.48" height="4.48"/>
	<rect x="174.84" y="57" class="st0" width="4.48" height="4.48"/>
	<rect x="179.32" y="57" class="st0" width="4.48" height="4.48"/>
	<rect x="183.8" y="57" class="st0" width="4.48" height="4.48"/>
	<rect x="188.29" y="57" class="st0" width="4.48" height="4.48"/>
	<rect x="192.77" y="57" class="st0" width="4.48" height="4.48"/>
	<rect x="197.25" y="57" class="st0" width="4.48" height="4.48"/>
	<rect x="201.74" y="57" class="st0" width="4.48" height="4.48"/>
	<rect x="206.22" y="57" class="st0" width="4.48" height="4.48"/>
	<rect x="210.7" y="57" class="st0" width="4.48" height="4.48"/>
	<rect x="215.18" y="57" class="st0" width="4.48" height="4.48"/>
	<rect x="219.67" y="57" class="st0" width="4.48" height="4.48"/>
	<rect x="224.15" y="57" class="st0" width="4.48" height="4.48"/>
	<rect x="228.63" y="57" class="st0" width="4.48" height="4.48"/>
	<rect x="233.12" y="57" class="st0" width="4.48" height="4.48"/>
	<rect x="237.6" y="57" class="st0" width="4.48" height="4.48"/>
	<rect x="242.08" y="57" class="st0" width="4.48" height="4.48"/>
	<rect x="246.57" y="57" class="st0" width="4.48" height="4.48"/>
	<rect x="251.05" y="57" class="st0" width="203.4" height="4.48"/>
	<rect x="476.86" y="83.9" class="st0" width="4.48" height="4.48"/>
	<rect x="476.86" y="92.87" class="st0" width="4.48" height="4.48"/>
	<rect x="476.86" y="97.35" class="st0" width="4.48" height="4.48"/>
	<rect x="472.38" y="79.41" class="st0" width="4.48" height="4.48"/>
	<rect x="467.9" y="74.94" class="st0" width="4.48" height="4.48"/>
	<rect x="463.42" y="70.45" class="st0" width="4.48" height="4.48"/>
	<rect x="458.93" y="65.96" class="st0" width="4.48" height="4.48"/>
	<rect x="454.44" y="61.49" class="st0" width="4.48" height="4.48"/>
</g>
<g>
	<polygon points="31.38,57 0,88.38 0,106.31 481.34,106.31 481.34,88.38 449.67,57 	"/>
	<g>
		<rect x="4.48" y="79.41" class="st0" width="4.48" height="4.48"/>
		<rect x="8.97" y="74.93" class="st0" width="4.48" height="4.48"/>
		<rect x="13.45" y="70.45" class="st0" width="4.48" height="4.48"/>
		<rect x="17.93" y="65.97" class="st0" width="4.48" height="4.48"/>
		<rect x="22.42" y="61.48" class="st0" width="4.48" height="4.48"/>
		<polygon class="st0" points="35.86,61.48 40.35,61.48 44.83,61.48 49.31,61.48 53.8,61.48 58.28,61.48 62.76,61.48 67.24,61.48 
			71.73,61.48 76.21,61.48 80.69,61.48 85.18,61.48 89.66,61.48 94.14,61.48 98.63,61.48 103.11,61.48 107.59,61.48 112.08,61.48 
			116.56,61.48 121.04,61.48 125.52,61.48 130.01,61.48 134.49,61.48 138.97,61.48 143.46,61.48 147.94,61.48 152.42,61.48 
			156.91,61.48 161.39,61.48 165.87,61.48 170.35,61.48 174.84,61.48 179.32,61.48 183.8,61.48 188.29,61.48 192.77,61.48 
			197.25,61.48 201.73,61.48 206.22,61.48 210.7,61.48 215.18,61.48 219.67,61.48 224.15,61.48 228.63,61.48 233.12,61.48 
			237.6,61.48 242.08,61.48 246.57,61.48 251.05,61.48 454.45,61.48 454.45,57 251.05,57 246.57,57 242.08,57 237.6,57 233.12,57 
			228.63,57 224.15,57 219.67,57 215.18,57 210.7,57 206.22,57 201.73,57 197.25,57 192.77,57 188.29,57 183.8,57 179.32,57 
			174.84,57 170.35,57 165.87,57 161.39,57 156.91,57 152.42,57 147.94,57 143.46,57 138.97,57 134.49,57 130.01,57 125.52,57 
			121.04,57 116.56,57 112.08,57 107.59,57 103.11,57 98.63,57 94.14,57 89.66,57 85.18,57 80.69,57 76.21,57 71.73,57 67.24,57 
			62.76,57 58.28,57 53.8,57 49.31,57 44.83,57 40.35,57 35.86,57 31.38,57 26.9,57 26.9,61.48 31.38,61.48 		"/>
		<path class="st0" d="M476.86,83.9v4.48H4.48V83.9H0v4.48v4.48v4.48v4.48v4.48h481.34v-4.48v-4.48v-4.48v-4.48V83.9H476.86z
			 M476.86,97.35v4.48H4.48v-4.48v-4.48h472.38L476.86,97.35L476.86,97.35z"/>
		<rect x="472.38" y="79.41" class="st0" width="4.48" height="4.48"/>
		<rect x="467.89" y="74.93" class="st0" width="4.48" height="4.48"/>
		<rect x="463.41" y="70.45" class="st0" width="4.48" height="4.48"/>
		<rect x="458.93" y="65.97" class="st0" width="4.48" height="4.48"/>
		<rect x="454.45" y="61.48" class="st0" width="4.48" height="4.48"/>
	</g>
</g>
</svg>
