<?xml version="1.0" encoding="utf-8"?>
<!-- Generator: Adobe Illustrator 25.3.1, SVG Export Plug-In . SVG Version: 6.00 Build 0)  -->
<svg version="1.1" id="Layer_1" xmlns="http://www.w3.org/2000/svg" xmlns:xlink="http://www.w3.org/1999/xlink" x="0px" y="0px"
	 viewBox="0 0 481.34 49.31" style="enable-background:new 0 0 481.34 49.31;" xml:space="preserve">
<style type="text/css">
	.st0{fill:#FFFFFF;}
</style>
<g>
	<rect x="0" y="26.9" class="st0" width="4.48" height="4.48"/>
	<rect x="0" y="35.86" class="st0" width="4.48" height="4.48"/>
	<rect x="0" y="40.35" class="st0" width="4.48" height="4.48"/>
	<rect y="44.83" class="st0" width="481.34" height="4.48"/>
	<rect y="31.38" class="st0" width="481.34" height="4.48"/>
	<rect x="4.48" y="22.42" class="st0" width="4.48" height="4.48"/>
	<rect x="8.97" y="17.93" class="st0" width="4.48" height="4.48"/>
	<rect x="13.45" y="13.45" class="st0" width="4.48" height="4.48"/>
	<rect x="17.93" y="8.97" class="st0" width="4.48" height="4.48"/>
	<rect x="22.42" y="4.48" class="st0" width="4.48" height="4.48"/>
	<rect x="26.9" class="st0" width="4.48" height="4.48"/>
	<rect x="31.38" class="st0" width="4.48" height="4.48"/>
	<rect x="35.86" class="st0" width="4.48" height="4.48"/>
	<rect x="40.35" class="st0" width="4.48" height="4.48"/>
	<rect x="44.83" class="st0" width="4.48" height="4.48"/>
	<rect x="49.31" class="st0" width="4.48" height="4.48"/>
	<rect x="53.8" class="st0" width="4.48" height="4.48"/>
	<rect x="58.28" class="st0" width="4.48" height="4.48"/>
	<rect x="62.76" class="st0" width="4.48" height="4.48"/>
	<rect x="67.25" class="st0" width="4.48" height="4.48"/>
	<rect x="71.73" class="st0" width="4.48" height="4.48"/>
	<rect x="76.21" class="st0" width="4.48" height="4.48"/>
	<rect x="80.69" class="st0" width="4.48" height="4.48"/>
	<rect x="85.18" class="st0" width="4.48" height="4.48"/>
	<rect x="89.66" class="st0" width="4.48" height="4.48"/>
	<rect x="94.14" class="st0" width="4.48" height="4.48"/>
	<rect x="98.63" class="st0" width="4.48" height="4.48"/>
	<rect x="103.11" class="st0" width="4.48" height="4.48"/>
	<rect x="107.59" class="st0" width="4.48" height="4.48"/>
	<rect x="112.07" class="st0" width="4.48" height="4.48"/>
	<rect x="116.56" class="st0" width="4.48" height="4.48"/>
	<rect x="121.04" class="st0" width="4.48" height="4.48"/>
	<rect x="125.52" class="st0" width="4.48" height="4.48"/>
	<rect x="130.01" class="st0" width="4.48" height="4.48"/>
	<rect x="134.49" class="st0" width="4.48" height="4.48"/>
	<rect x="138.97" class="st0" width="4.48" height="4.48"/>
	<rect x="143.46" class="st0" width="4.48" height="4.48"/>
	<rect x="147.94" class="st0" width="4.48" height="4.48"/>
	<rect x="152.42" class="st0" width="4.48" height="4.48"/>
	<rect x="156.9" class="st0" width="4.48" height="4.48"/>
	<rect x="161.39" class="st0" width="4.48" height="4.48"/>
	<rect x="165.87" class="st0" width="4.48" height="4.48"/>
	<rect x="170.35" class="st0" width="4.48" height="4.48"/>
	<rect x="174.84" class="st0" width="4.48" height="4.48"/>
	<rect x="179.32" class="st0" width="4.48" height="4.48"/>
	<rect x="183.8" class="st0" width="4.48" height="4.48"/>
	<rect x="188.29" class="st0" width="4.48" height="4.48"/>
	<rect x="192.77" class="st0" width="4.48" height="4.48"/>
	<rect x="197.25" class="st0" width="4.48" height="4.48"/>
	<rect x="201.74" class="st0" width="4.48" height="4.48"/>
	<rect x="206.22" class="st0" width="4.48" height="4.48"/>
	<rect x="210.7" class="st0" width="4.48" height="4.48"/>
	<rect x="215.18" class="st0" width="4.48" height="4.48"/>
	<rect x="219.67" class="st0" width="4.48" height="4.48"/>
	<rect x="224.15" class="st0" width="4.48" height="4.48"/>
	<rect x="228.63" class="st0" width="4.48" height="4.48"/>
	<rect x="233.12" class="st0" width="4.48" height="4.48"/>
	<rect x="237.6" class="st0" width="4.48" height="4.48"/>
	<rect x="242.08" class="st0" width="4.48" height="4.48"/>
	<rect x="246.57" class="st0" width="4.48" height="4.48"/>
	<rect x="251.05" class="st0" width="203.4" height="4.48"/>
	
		<rect x="476.86" y="26.9" transform="matrix(-1 -1.224647e-16 1.224647e-16 -1 958.2041 58.279)" class="st0" width="4.48" height="4.48"/>
	
		<rect x="476.86" y="35.86" transform="matrix(-1 -1.224647e-16 1.224647e-16 -1 958.2041 76.211)" class="st0" width="4.48" height="4.48"/>
	
		<rect x="476.86" y="40.35" transform="matrix(-1 -1.224647e-16 1.224647e-16 -1 958.2041 85.177)" class="st0" width="4.48" height="4.48"/>
	
		<rect x="472.38" y="22.42" transform="matrix(-1 -1.224647e-16 1.224647e-16 -1 949.2381 49.313)" class="st0" width="4.48" height="4.48"/>
	
		<rect x="467.89" y="17.93" transform="matrix(-1 -1.224647e-16 1.224647e-16 -1 940.2721 40.347)" class="st0" width="4.48" height="4.48"/>
	
		<rect x="463.41" y="13.45" transform="matrix(-1 -1.224647e-16 1.224647e-16 -1 931.3062 31.381)" class="st0" width="4.48" height="4.48"/>
	
		<rect x="458.93" y="8.97" transform="matrix(-1 -1.224647e-16 1.224647e-16 -1 922.3401 22.415)" class="st0" width="4.48" height="4.48"/>
	
		<rect x="454.45" y="4.48" transform="matrix(-1 -1.224647e-16 1.224647e-16 -1 913.3741 13.449)" class="st0" width="4.48" height="4.48"/>
</g>
<g>
	<polygon points="31.38,0 0,31.38 0,49.31 481.34,49.31 481.34,31.38 449.67,0 	"/>
	<g>
		<rect x="4.48" y="22.41" class="st0" width="4.48" height="4.48"/>
		<rect x="8.97" y="17.93" class="st0" width="4.48" height="4.48"/>
		<rect x="13.45" y="13.45" class="st0" width="4.48" height="4.48"/>
		<rect x="17.93" y="8.97" class="st0" width="4.48" height="4.48"/>
		<rect x="22.42" y="4.48" class="st0" width="4.48" height="4.48"/>
		<polygon class="st0" points="35.86,4.48 40.35,4.48 44.83,4.48 49.31,4.48 53.8,4.48 58.28,4.48 62.76,4.48 67.24,4.48 
			71.73,4.48 76.21,4.48 80.69,4.48 85.18,4.48 89.66,4.48 94.14,4.48 98.63,4.48 103.11,4.48 107.59,4.48 112.08,4.48 116.56,4.48 
			121.04,4.48 125.52,4.48 130.01,4.48 134.49,4.48 138.97,4.48 143.46,4.48 147.94,4.48 152.42,4.48 156.91,4.48 161.39,4.48 
			165.87,4.48 170.35,4.48 174.84,4.48 179.32,4.48 183.8,4.48 188.29,4.48 192.77,4.48 197.25,4.48 201.73,4.48 206.22,4.48 
			210.7,4.48 215.18,4.48 219.67,4.48 224.15,4.48 228.63,4.48 233.12,4.48 237.6,4.48 242.08,4.48 246.57,4.48 251.05,4.48 
			454.45,4.48 454.45,0 251.05,0 246.57,0 242.08,0 237.6,0 233.12,0 228.63,0 224.15,0 219.67,0 215.18,0 210.7,0 206.22,0 
			201.73,0 197.25,0 192.77,0 188.29,0 183.8,0 179.32,0 174.84,0 170.35,0 165.87,0 161.39,0 156.91,0 152.42,0 147.94,0 143.46,0 
			138.97,0 134.49,0 130.01,0 125.52,0 121.04,0 116.56,0 112.08,0 107.59,0 103.11,0 98.63,0 94.14,0 89.66,0 85.18,0 80.69,0 
			76.21,0 71.73,0 67.24,0 62.76,0 58.28,0 53.8,0 49.31,0 44.83,0 40.35,0 35.86,0 31.38,0 26.9,0 26.9,4.48 31.38,4.48 		"/>
		<path class="st0" d="M476.86,26.9v4.48H4.48V26.9H0v4.48v4.48v4.48v4.48v4.48h481.34v-4.48v-4.48v-4.48v-4.48V26.9H476.86z
			 M476.86,40.35v4.48H4.48v-4.48v-4.48h472.38V40.35z"/>
		<rect x="472.38" y="22.41" class="st0" width="4.48" height="4.48"/>
		<rect x="467.89" y="17.93" class="st0" width="4.48" height="4.48"/>
		<rect x="463.41" y="13.45" class="st0" width="4.48" height="4.48"/>
		<rect x="458.93" y="8.97" class="st0" width="4.48" height="4.48"/>
		<rect x="454.45" y="4.48" class="st0" width="4.48" height="4.48"/>
	</g>
</g>
</svg>
