<?xml version="1.0" encoding="utf-8"?>
<!-- Generator: Adobe Illustrator 25.3.1, SVG Export Plug-In . SVG Version: 6.00 Build 0)  -->
<svg version="1.1" id="Layer_1" xmlns="http://www.w3.org/2000/svg" xmlns:xlink="http://www.w3.org/1999/xlink" x="0px" y="0px"
	 viewBox="0 0 461.05 180.62" style="enable-background:new 0 0 461.05 180.62;" xml:space="preserve">
<style type="text/css">
	.st0{fill:#FFFFFF;}
</style>
<g>
	<polygon points="456.83,29.89 456.83,25.67 452.61,25.67 452.61,21.45 448.38,21.45 448.38,17.22 443.55,17.22 31.76,17.22 
		26.93,17.22 26.93,21.45 22.7,21.45 22.7,26.28 22.7,163.11 22.7,167.94 26.93,167.94 26.93,172.17 31.15,172.17 31.15,176.39 
		35.37,176.39 35.37,180.62 40.2,180.62 452,180.62 456.22,180.62 461.05,180.62 461.05,175.79 461.05,171.56 461.05,34.72 
		461.05,29.89 	"/>
	<g>
		<rect x="27.53" y="26.28" class="st0" width="4.22" height="136.84"/>
		<polygon class="st0" points="452,34.72 452,30.5 447.78,30.5 447.78,26.28 443.55,26.28 443.55,163.11 31.76,163.11 31.76,167.34 
			35.98,167.34 35.98,171.56 40.2,171.56 40.2,175.79 452,175.79 456.22,175.79 456.22,171.56 456.22,34.72 		"/>
		<rect x="31.76" y="22.05" class="st0" width="411.8" height="4.22"/>
	</g>
	<g>
		<polygon points="7.18,49.08 7.18,44.85 2.95,44.85 2.95,7.7 7.18,7.7 7.18,3.47 231.44,3.47 231.44,7.7 235.66,7.7 235.66,44.85 
			231.44,44.85 231.44,49.08 		"/>
		<path d="M229.02,5.89v4.22h4.22v32.33h-4.22v4.22H9.59v-4.22H5.37V10.11h4.22V5.89H229.02 M233.85,1.06h-4.83H9.59H4.76v4.22H0.54
			v4.83v32.33v4.83h4.22v4.22h4.83h219.43h4.83v-4.22h4.22v-4.83V10.11V5.28h-4.22V1.06L233.85,1.06z"/>
	</g>
	<g>
		<rect x="5.37" y="10.11" class="st0" width="4.22" height="32.33"/>
		<rect x="229.02" y="10.11" class="st0" width="4.22" height="32.33"/>
		<rect x="9.59" y="5.89" class="st0" width="219.43" height="4.22"/>
		<rect x="9.59" y="42.44" class="st0" width="219.43" height="4.22"/>
	</g>
</g>
</svg>
