<?xml version="1.0" encoding="utf-8"?>
<!-- Generator: Adobe Illustrator 25.3.1, SVG Export Plug-In . SVG Version: 6.00 Build 0)  -->
<svg version="1.1" id="Layer_1" xmlns="http://www.w3.org/2000/svg" xmlns:xlink="http://www.w3.org/1999/xlink" x="0px" y="0px"
	 viewBox="0 0 370 76" style="enable-background:new 0 0 370 76;" xml:space="preserve">
<style type="text/css">
	.st0{fill:#FFFFFF;}
</style>
<g>
	<g>
		<polygon class="st0" points="19,31 20,31 23,31 25,31 25,29 25,2 25,0 23,0 20,0 19,0 18,0 17,0 14,0 12,0 12,2 12,12 7,12 7,2 
			7,0 5,0 2,0 0,0 0,2 0,29 0,31 2,31 5,31 7,31 7,29 7,19 12,19 12,29 12,31 14,31 17,31 18,31 		"/>
		<polygon class="st0" points="48,29 48,31 50,31 53,31 55,31 55,29 55,10 56,10 57,10 57,14 57,16 59,16 60,16 60,29 60,31 62,31 
			65,31 67,31 67,29 67,16 68,16 70,16 70,14 70,10 71,10 73,10 73,8 73,2 73,0 71,0 68,0 66,0 66,2 66,6 65,6 64,6 62,6 61,6 61,2 
			61,0 59,0 56,0 55,0 54,0 53,0 50,0 48,0 48,2 48,6 47,6 46,6 44,6 43,6 43,2 43,0 41,0 38,0 36,0 36,2 36,29 36,31 38,31 41,31 
			43,31 43,29 43,22 44,22 47,22 48,22 		"/>
		<polygon class="st0" points="89,31 91,31 91,29 91,19 92,19 93,19 93,23 93,25 95,25 96,25 96,29 96,31 98,31 101,31 102,31 
			103,31 104,31 107,31 109,31 109,29 109,22 114,22 114,29 114,31 116,31 119,31 120,31 121,31 122,31 125,31 127,31 127,29 
			127,22 128,22 131,22 132,22 132,29 132,31 134,31 137,31 138,31 139,31 140,31 152,31 154,31 154,29 154,26 154,24 152,24 
			145,24 145,19 152,19 154,19 154,17 154,14 154,12 152,12 145,12 145,7 152,7 154,7 154,5 154,2 154,0 152,0 140,0 139,0 138,0 
			137,0 134,0 132,0 132,2 132,6 131,6 130,6 128,6 127,6 127,2 127,0 125,0 122,0 120,0 120,2 120,15 119,15 118,15 118,8 118,6 
			116,6 115,6 115,2 115,0 113,0 110,0 108,0 108,2 108,6 107,6 105,6 105,8 105,15 104,15 103,15 103,2 103,0 101,0 98,0 96,0 
			96,2 96,9 95,9 94,9 94,5 94,3 92,3 91,3 91,2 91,0 89,0 86,0 84,0 84,2 84,29 84,31 86,31 		"/>
		<polygon class="st0" points="176,0 174,0 174,2 174,3 173,3 172,3 172,2 172,0 170,0 167,0 165,0 165,2 165,29 165,31 167,31 
			170,31 171,31 172,31 173,31 182,31 184,31 184,29 184,28 185,28 187,28 187,26 187,17 187,15 185,15 184,15 184,14 184,12 
			182,12 178,12 178,7 185,7 187,7 187,5 187,2 187,0 185,0 		"/>
		<polygon class="st0" points="209,31 211,31 211,29 211,28 212,28 213,28 213,29 213,31 215,31 218,31 220,31 220,29 220,22 
			221,22 222,22 222,26 222,28 224,28 225,28 225,29 225,31 227,31 230,31 232,31 232,29 232,26 232,24 230,24 229,24 229,20 
			229,18 227,18 226,18 226,17 226,15 226,14 226,13 227,13 229,13 229,11 229,7 230,7 231,7 231,8 231,10 233,10 234,10 234,14 
			234,16 236,16 237,16 237,29 237,31 239,31 242,31 244,31 244,29 244,16 245,16 247,16 247,14 247,10 248,10 250,10 250,8 250,2 
			250,0 248,0 245,0 243,0 243,2 243,6 242,6 241,6 239,6 238,6 238,2 238,0 236,0 233,0 232,0 231,0 230,0 227,0 225,0 225,2 
			225,3 224,3 222,3 222,5 222,9 221,9 220,9 220,2 220,0 218,0 215,0 214,0 213,0 212,0 203,0 201,0 201,2 201,3 200,3 198,3 
			198,5 198,14 198,16 200,16 201,16 201,17 201,19 203,19 207,19 207,24 200,24 198,24 198,26 198,29 198,31 200,31 		"/>
		<polygon class="st0" points="269,25 271,25 271,23 271,20 271,18 269,18 266,18 264,18 264,20 264,23 264,25 266,25 		"/>
		<polygon class="st0" points="269,16 271,16 271,14 271,11 271,9 269,9 266,9 264,9 264,11 264,14 264,16 266,16 		"/>
		<polygon class="st0" points="278,31 280,31 280,29 280,28 281,28 283,28 283,26 283,22 284,22 286,22 286,20 286,11 286,9 284,9 
			283,9 283,5 283,3 281,3 280,3 280,2 280,0 278,0 275,0 273,0 273,2 273,5 273,7 275,7 276,7 276,11 276,13 278,13 279,13 279,18 
			278,18 276,18 276,20 276,24 275,24 273,24 273,26 273,29 273,31 275,31 		"/>
		<polygon class="st0" points="11,45 9,45 9,47 9,51 8,51 7,51 7,47 7,45 5,45 2,45 0,45 0,47 0,74 0,76 2,76 5,76 7,76 7,74 7,58 
			8,58 11,58 13,58 13,56 13,55 14,55 16,55 16,53 16,47 16,45 14,45 		"/>
		<polygon class="st0" points="32,45 30,45 30,47 30,51 29,51 28,51 26,51 25,51 25,47 25,45 23,45 20,45 18,45 18,47 18,74 18,76 
			20,76 23,76 25,76 25,74 25,67 26,67 29,67 30,67 30,74 30,76 32,76 35,76 37,76 37,74 37,47 37,45 35,45 		"/>
		<polygon class="st0" points="184,48 184,47 184,45 182,45 170,45 169,45 168,45 167,45 164,45 162,45 162,47 162,54 161,54 
			160,54 160,50 160,48 158,48 157,48 157,47 157,45 155,45 152,45 151,45 150,45 149,45 137,45 136,45 135,45 134,45 119,45 
			118,45 117,45 116,45 113,45 111,45 111,47 111,54 110,54 109,54 109,50 109,48 107,48 106,48 106,47 106,45 104,45 101,45 99,45 
			99,47 99,48 98,48 97,48 97,47 97,45 95,45 86,45 84,45 84,47 84,48 83,48 82,48 81,48 80,48 79,48 79,47 79,45 77,45 65,45 
			64,45 63,45 62,45 50,45 48,45 48,47 48,74 48,76 50,76 53,76 55,76 55,74 55,64 62,64 63,64 63,74 63,76 65,76 68,76 70,76 
			70,74 70,64 72,64 72,68 72,70 74,70 75,70 75,74 75,76 77,76 80,76 82,76 82,74 82,73 83,73 84,73 84,74 84,76 86,76 95,76 
			97,76 97,74 97,73 98,73 99,73 99,74 99,76 101,76 104,76 106,76 106,74 106,64 107,64 108,64 108,68 108,70 110,70 111,70 
			111,74 111,76 113,76 116,76 118,76 118,74 118,52 119,52 123,52 123,74 123,76 125,76 128,76 130,76 130,74 130,52 134,52 
			135,52 135,74 135,76 137,76 149,76 150,76 151,76 152,76 155,76 157,76 157,74 157,64 158,64 159,64 159,68 159,70 161,70 
			162,70 162,74 162,76 164,76 167,76 168,76 169,76 170,76 182,76 184,76 184,74 184,73 185,73 187,73 187,71 187,50 187,48 
			185,48 		"/>
		<polygon class="st0" points="346,48 346,47 346,45 344,45 332,45 331,45 330,45 329,45 317,45 315,45 315,47 315,48 314,48 
			313,48 313,47 313,45 311,45 299,45 297,45 297,47 297,48 296,48 295,48 295,47 295,45 293,45 284,45 282,45 282,47 282,48 
			281,48 279,48 279,50 279,69 278,69 271,69 271,47 271,45 269,45 266,45 265,45 264,45 263,45 251,45 250,45 249,45 248,45 
			245,45 243,45 243,47 243,54 242,54 241,54 239,54 238,54 238,47 238,45 236,45 233,45 232,45 231,45 230,45 218,45 216,45 
			216,47 216,48 215,48 214,48 214,47 214,45 212,45 200,45 198,45 198,47 198,74 198,76 200,76 212,76 214,76 214,74 214,73 
			215,73 216,73 216,74 216,76 218,76 230,76 232,76 232,74 232,71 232,69 230,69 223,69 223,64 230,64 232,64 232,62 232,59 
			232,58 233,58 234,58 234,68 234,70 236,70 237,70 237,74 237,76 239,76 242,76 244,76 244,74 244,70 245,70 247,70 247,68 
			247,58 248,58 249,58 249,74 249,76 251,76 263,76 264,76 265,76 266,76 278,76 280,76 280,74 280,73 281,73 282,73 282,74 
			282,76 284,76 293,76 295,76 295,74 295,73 296,73 297,73 297,74 297,76 299,76 302,76 304,76 304,74 304,64 311,64 313,64 
			313,62 313,61 314,61 315,61 315,74 315,76 317,76 329,76 330,76 331,76 332,76 335,76 337,76 337,74 337,64 339,64 339,68 
			339,70 341,70 342,70 342,74 342,76 344,76 347,76 349,76 349,74 349,68 349,66 347,66 346,66 346,61 347,61 349,61 349,59 
			349,50 349,48 347,48 		"/>
		<polygon class="st0" points="353,45 351,45 351,47 351,65 351,67 351,68 351,74 351,76 353,76 356,76 358,76 358,74 358,68 
			358,66 358,65 358,47 358,45 356,45 		"/>
		<polygon class="st0" points="368,45 365,45 363,45 363,47 363,65 363,67 363,68 363,74 363,76 365,76 368,76 370,76 370,74 
			370,68 370,66 370,65 370,47 370,45 		"/>
	</g>
	<g>
		<g>
			<path d="M2,29V2h3v12h9V2h3v27h-3V17H5v12H2z"/>
		</g>
		<g>
			<path d="M20,29V2h3v27H20z"/>
		</g>
		<g>
			<path d="M38,29V2h3v6h3v6h-3v15H38z M44,14h3v6h-3V14z M47,14V8h3V2h3v27h-3V14H47z"/>
		</g>
		<g>
			<path d="M56,8V2h3v6H56z M59,14V8h3v6H59z M62,29V14h3v15H62z M65,14V8h3v6H65z M68,8V2h3v6H68z"/>
		</g>
		<g>
			<path d="M86,29V2h3v3h3v6h-3v18H86z M92,17v-6h3v6H92z M95,23v-6h3V2h3v27h-3v-6H95z"/>
		</g>
		<g>
			<path d="M104,29V17h3V8h3v9h3V8h3v9h3v12h-3v-9h-9v9H104z M110,8V2h3v6H110z"/>
		</g>
		<g>
			<path d="M122,29V2h3v6h3v6h-3v15H122z M128,14h3v6h-3V14z M131,14V8h3V2h3v27h-3V14H131z"/>
		</g>
		<g>
			<path d="M140,29V2h12v3h-9v9h9v3h-9v9h9v3H140z"/>
		</g>
		<g>
			<path d="M167,29V2h3v27H167z"/>
		</g>
		<g>
			<path d="M173,14V5h3v9H173z M173,29v-3h9v3H173z M176,5V2h9v3H176z M176,14h6v3h-6V14z M182,26v-9h3v9H182z"/>
		</g>
		<g>
			<path d="M200,14V5h3v9H200z M200,29v-3h9v3H200z M203,5V2h9v3H203z M203,14h6v3h-6V14z M209,26v-9h3v9H209z"/>
		</g>
		<g>
			<path d="M215,29V2h3v12h3v3h-3v12H215z M221,14v-3h3v3H221z M221,17h3v3h-3V17z M227,11h-3V5h3V11z M227,20v6h-3v-6H227z M227,5
				V2h3v3H227z M227,26h3v3h-3V26z"/>
		</g>
		<g>
			<path d="M233,8V2h3v6H233z M236,14V8h3v6H236z M239,29V14h3v15H239z M242,14V8h3v6H242z M245,8V2h3v6H245z"/>
		</g>
		<g>
			<path d="M266,14v-3h3v3H266z M266,23v-3h3v3H266z"/>
		</g>
		<g>
			<path d="M275,5V2h3v3H275z M275,29v-3h3v3H275z M278,11V5h3v6H278z M278,26v-6h3v6H278z M281,20v-9h3v9H281z"/>
		</g>
		<g>
			<path d="M2,74V47h3v27H2z"/>
		</g>
		<g>
			<path d="M8,56v-3h3v3H8z M11,53v-6h3v6H11z"/>
		</g>
		<g>
			<path d="M20,74V47h3v6h3v6h-3v15H20z M26,59h3v6h-3V59z M29,59v-6h3v-6h3v27h-3V59H29z"/>
		</g>
		<g>
			<path d="M50,74V47h12v3h-9v9h9v3h-9v12H50z"/>
		</g>
		<g>
			<path d="M65,74V47h12v3h-9v9h9v9h-3v-6h-6v12H65z M77,59v-9h3v9H77z M77,68h3v6h-3V68z"/>
		</g>
		<g>
			<path d="M83,71V50h3v21H83z M95,47v3h-9v-3H95z M95,71v3h-9v-3H95z M95,50h3v21h-3V50z"/>
		</g>
		<g>
			<path d="M101,74V47h3v3h3v6h-3v18H101z M107,62v-6h3v6H107z M110,68v-6h3V47h3v27h-3v-6H110z"/>
		</g>
		<g>
			<path d="M119,50v-3h15v3h-6v24h-3V50H119z"/>
		</g>
		<g>
			<path d="M137,74V47h12v3h-9v9h9v3h-9v9h9v3H137z"/>
		</g>
		<g>
			<path d="M152,74V47h3v3h3v6h-3v18H152z M158,62v-6h3v6H158z M161,68v-6h3V47h3v27h-3v-6H161z"/>
		</g>
		<g>
			<path d="M170,74V47h12v3h-9v21h9v3H170z M182,71V50h3v21H182z"/>
		</g>
		<g>
			<path d="M200,74V47h12v3h-9v21h9v3H200z M212,71V50h3v21H212z"/>
		</g>
		<g>
			<path d="M218,74V47h12v3h-9v9h9v3h-9v9h9v3H218z"/>
		</g>
		<g>
			<path d="M233,56v-9h3v9H233z M236,68V56h3v12H236z M239,68h3v6h-3V68z M242,68V56h3v12H242z M245,56v-9h3v9H245z"/>
		</g>
		<g>
			<path d="M251,74V47h12v3h-9v9h9v3h-9v9h9v3H251z"/>
		</g>
		<g>
			<path d="M266,74V47h3v24h9v3H266z"/>
		</g>
		<g>
			<path d="M281,71V50h3v21H281z M293,47v3h-9v-3H293z M293,71v3h-9v-3H293z M293,50h3v21h-3V50z"/>
		</g>
		<g>
			<path d="M299,74V47h12v3h-9v9h9v3h-9v12H299z M311,59v-9h3v9H311z"/>
		</g>
		<g>
			<path d="M317,74V47h12v3h-9v9h9v3h-9v9h9v3H317z"/>
		</g>
		<g>
			<path d="M332,74V47h12v3h-9v9h9v9h-3v-6h-6v12H332z M344,59v-9h3v9H344z M344,68h3v6h-3V68z"/>
		</g>
		<g>
			<path d="M353,65V47h3v18H353z M353,68h3v6h-3V68z"/>
		</g>
		<g>
			<path d="M365,65V47h3v18H365z M365,68h3v6h-3V68z"/>
		</g>
	</g>
</g>
</svg>
