<?xml version="1.0" encoding="utf-8"?>
<!-- Generator: Adobe Illustrator 25.3.1, SVG Export Plug-In . SVG Version: 6.00 Build 0)  -->
<svg version="1.1" id="MeIcon" xmlns="http://www.w3.org/2000/svg"
	xmlns:xlink="http://www.w3.org/1999/xlink" x="0px" y="0px"
	viewBox="0 0 98.8 106.3" style="enable-background:new 0 0 98.8 106.3;" xml:space="preserve">
<style type="text/css">
	.st0{fill:#FFFFFF;}
</style>
<g>
	<polyline class="st0" points="18.4,88.7 18.4,92.6 18.4,92.6 13.9,92.6 9.4,92.6 9.4,97.1 9.4,101.5 9.4,106 13.9,106 18.4,106 
		22.9,106 27.4,106 31.8,106 36.3,106 40.8,106 45.3,106 49.8,106 54.2,106 58.7,106 63.2,106 67.7,106 72.2,106 76.7,106 81.1,106 
		85.6,106 90.1,106 90.1,101.5 90.1,97.1 90.1,92.6 85.6,92.6 81.1,92.6 76.7,92.6 76.7,92.6 76.7,88.7 76.7,88.7 81.1,88.7 
		85.6,88.7 85.6,84.2 85.6,80.9 85.6,76.4 85.6,71.9 90.1,71.9 90.1,67.4 90.1,67.4 94.4,67.4 94.4,63 98.8,63 98.8,58.5 98.8,54 
		98.8,49.5 98.8,45 98.8,40.5 98.8,36.1 94.4,36.1 94.4,31.6 89.9,31.6 85.4,31.6 85.4,31.6 85.4,31.4 85.4,27.1 85.4,26.9 
		85.4,22.5 80.9,22.5 80.8,22.5 80.8,21.4 80.8,18 80.8,13.5 76.3,13.5 76.2,13.5 76.2,13.5 76.2,9 71.8,9 71.8,4.5 67.3,4.5 
		67.3,0 62.8,0 62.8,0 58.3,0 53.8,0 49.3,0 44.8,0 40.4,0 35.9,0 31.4,0 26.9,0 22.4,0 22.4,4.5 22.4,4.5 18,4.5 13.5,4.5 13.5,9 
		9,9 9,13.4 9,13.5 9,13.5 4.5,13.5 4.5,18 4.5,22.5 4.5,26.9 4.5,31.4 4.5,35.9 0,35.9 0,40.4 0,44.9 0,49.3 0,53.8 0,58.3 0,62.8 
		4.5,62.8 4.5,84.2 4.5,88.7 9,88.7 13.4,88.7 17.9,88.7 	"/>
	<g>
		<polygon points="85.6,54 81.1,54 81.1,58.5 81.1,63 81.1,67.4 85.6,67.4 85.6,63 85.6,63 89.9,63 89.9,58.5 85.6,58.5 		"/>
		<rect x="65.5" y="44.9" width="4.5" height="4.5"/>
		<rect x="40.8" y="45" width="4.5" height="4.5"/>
		<rect x="45.3" y="57.1" width="4.5" height="4.5"/>
		<polygon points="54.2,66 58.7,66 63.2,66 63.2,61.5 58.7,61.5 54.2,61.5 49.8,61.5 49.8,66 		"/>
		<rect x="63.2" y="57.1" width="4.5" height="4.5"/>
		<polygon points="89.9,40.5 89.9,45 89.9,49.5 89.9,54 89.9,58.5 94.4,58.5 94.4,54 94.4,49.5 94.4,45 94.4,40.5 		"/>
		<polygon points="85.4,36.1 80.9,36.1 80.9,31.6 80.9,31.4 80.9,27.1 80.9,26.9 76.3,26.9 76.3,22.5 76.3,21.4 76.3,18 71.8,18 
			71.8,17.9 71.8,13.5 71.8,13.5 71.8,13.5 67.3,13.5 67.3,9 67.3,9 67.3,9 63.9,9 62.8,9 62.8,4.5 62.8,4.5 62.8,4.5 58.3,4.5 
			53.8,4.5 49.3,4.5 44.9,4.5 40.4,4.5 35.9,4.5 31.4,4.5 26.9,4.5 26.9,4.5 26.9,4.5 26.9,9 22.4,9 18,9 18,9 18,9 18,13.4 
			17.3,13.4 13.5,13.4 13.5,13.4 13.5,13.5 13.5,17.9 13.5,17.9 13.5,17.9 13.5,18 9,18 9,22.5 9,26.9 9,31.4 9,35.9 9,40.4 
			13.5,40.4 15.7,40.4 18,40.4 18,35.9 18,31.4 22.4,31.4 22.4,35.9 26.9,35.9 26.9,31.4 31.4,31.4 31.4,35.9 35.9,35.9 35.9,31.4 
			40.4,31.4 40.4,35.9 44.8,35.9 44.8,31.4 49.3,31.4 49.3,35.9 53.8,35.9 53.8,31.4 58.3,31.4 58.3,35.9 62.8,35.9 62.8,31.4 
			67.3,31.4 67.3,35.9 71.8,35.9 71.8,31.4 76.4,31.4 76.4,31.6 76.4,36.1 76.4,40.5 76.4,45 76.4,49.5 76.4,54 80.9,54 80.9,49.5 
			80.9,45 80.9,40.5 85.4,40.5 89.9,40.5 89.9,36.1 		"/>
		<polygon points="4.5,44.9 4.5,49.3 4.5,53.8 4.5,58.3 9,58.3 9,53.8 9,49.3 9,44.9 9,40.4 4.5,40.4 		"/>
		<rect x="13.5" y="49.3" width="4.5" height="4.5"/>
		<rect x="18" y="53.9" width="4.5" height="4.5"/>
		<path d="M76.6,97h-4.5v-4.5v-4.5h-4.5h-4.5v-4.5v-2.7h4.5h4.5h4.5v3.3h4.5v-3.3v-4.5v-9h-4.5v4.5h-4.5v4.5h-4.5h-4.5h-4.5h-4.5
			h-4.5h-4.5h-4.5h-4.5h-4.5h-4.5v-4.8h-4.9v-4.3v-0.1v-4.4H18h-4.5v-4.5H9v25.9h4.5v-3.3h4.5h4.5h4.9v3.3v0.6v3.3h-4.5v4.5V97h-4.5
			h-4.5v4.5h4.5h4.5h4.5h4.5h4.5h4.5h4.5h4.5h4.5h4.5h4.5h4.5h4.5h4.5h4.5h4.5V97h-4.5H76.6z M58.7,83.6v4.5v4.5V97h-4.5h-4.5h-4.5
			h-4.5v-4.5v-4.5h-4.5h-4.5v-3.3h0v-0.6v-3.3h4.5h4.5h4.5h4.5h4.5h4.5V83.6z"/>
	</g>
</g>
</svg>