<?xml version="1.0" encoding="utf-8"?>
<!-- Generator: Adobe Illustrator 25.3.1, SVG Export Plug-In . SVG Version: 6.00 Build 0)  -->
<svg version="1.1" id="Layer_1" xmlns="http://www.w3.org/2000/svg" xmlns:xlink="http://www.w3.org/1999/xlink" x="0px" y="0px"
	 viewBox="0 0 98.84 106.26" style="enable-background:new 0 0 98.84 106.26;" xml:space="preserve">
<style type="text/css">
	.st0{fill:#FFFFFF;}
</style>
<g>
	<polyline class="st0" points="18.38,88.68 18.38,92.57 18.38,92.57 13.9,92.57 9.41,92.57 9.41,97.06 9.41,101.54 9.41,106.02 
		13.9,106.02 18.38,106.02 22.86,106.02 27.35,106.02 31.83,106.02 36.31,106.02 40.8,106.02 45.28,106.02 49.76,106.02 
		54.24,106.02 58.73,106.02 63.21,106.02 67.69,106.02 72.18,106.02 76.66,106.02 81.14,106.02 85.63,106.02 90.11,106.02 
		90.11,101.54 90.11,97.06 90.11,92.57 85.63,92.57 81.14,92.57 76.66,92.57 76.66,92.57 76.66,88.68 76.66,88.68 81.14,88.68 
		85.63,88.68 85.63,84.2 85.63,80.89 85.63,76.41 85.63,71.93 90.11,71.93 90.11,67.44 90.11,67.44 94.36,67.44 94.36,62.96 
		98.84,62.96 98.84,58.48 98.84,54 98.84,49.51 98.84,45.03 98.84,40.55 98.84,36.06 94.36,36.06 94.36,31.58 89.87,31.58 
		85.39,31.58 85.39,31.58 85.39,31.41 85.39,27.1 85.39,26.93 85.39,22.45 80.91,22.45 80.81,22.45 80.81,21.39 80.81,17.99 
		80.81,13.51 76.33,13.51 76.24,13.51 76.24,13.46 76.24,8.98 71.76,8.97 71.76,4.49 67.28,4.48 67.28,0.01 62.8,0 62.79,0 58.3,0 
		53.82,0 49.34,0 44.85,0 40.37,0 35.89,0 31.4,0 26.92,0 22.44,0 22.43,4.48 22.43,4.48 17.96,4.48 13.47,4.48 13.46,8.97 
		8.99,8.97 8.98,13.45 8.98,13.48 8.97,13.48 4.48,13.48 4.48,17.97 4.48,22.45 4.48,26.93 4.48,31.41 4.48,35.9 0,35.9 0,40.38 
		0,44.86 0,49.35 0,53.83 0,58.31 0,62.8 4.48,62.8 4.48,84.2 4.48,88.68 8.97,88.68 13.45,88.68 17.93,88.68 	"/>
	<g>
		<rect x="81.14" y="62.96" width="4.48" height="4.48"/>
		<polygon points="85.63,58.48 85.63,54 81.14,54 81.14,58.48 85.39,58.48 		"/>
		<rect x="65.45" y="44.89" width="4.48" height="4.48"/>
		<rect x="40.8" y="45.03" width="4.48" height="4.48"/>
		<rect x="45.28" y="57.06" width="4.48" height="4.48"/>
		<polygon points="54.24,66.03 58.73,66.03 63.21,66.03 63.21,61.54 58.73,61.54 54.24,61.54 49.76,61.54 49.76,66.03 		"/>
		<rect x="63.21" y="57.06" width="4.48" height="4.48"/>
		<polygon points="89.87,40.55 89.87,45.03 89.87,49.51 89.87,54 89.87,58.48 94.36,58.48 94.36,54 94.36,49.51 94.36,45.03 
			94.36,40.55 		"/>
		<polygon points="85.39,58.48 81.14,58.48 81.14,62.96 85.39,62.96 85.63,62.96 89.87,62.96 89.87,58.48 85.63,58.48 		"/>
		<g>
			<polygon points="85.39,36.06 80.91,36.06 80.91,31.58 80.91,31.41 80.91,27.1 80.91,26.93 76.33,26.93 76.33,22.47 76.33,21.39 
				76.33,17.99 71.75,17.99 71.75,17.97 17.96,17.97 17.33,17.97 15.71,17.97 13.47,17.97 8.97,17.97 8.97,22.45 8.97,26.93 
				8.97,31.41 8.97,35.9 8.97,40.38 13.47,40.38 15.71,40.38 17.96,40.38 17.96,35.9 17.96,31.41 22.44,31.41 22.44,35.9 
				26.92,35.9 26.92,31.41 31.4,31.41 31.4,35.9 35.89,35.9 35.89,31.41 40.37,31.41 40.37,35.9 44.85,35.9 44.85,31.41 
				49.34,31.41 49.34,35.9 53.82,35.9 53.82,31.41 58.3,31.41 58.3,35.9 62.79,35.9 62.79,31.41 67.27,31.41 67.27,35.9 71.75,35.9 
				71.75,31.41 76.42,31.41 76.42,31.58 76.42,36.06 76.42,40.55 76.42,45.03 76.42,49.51 76.42,54 80.91,54 80.91,49.51 
				80.91,45.03 80.91,40.55 85.39,40.55 89.87,40.55 89.87,36.06 			"/>
			<path d="M17.33,17.95h0.63h49.31h4.48h0.01v-0.01v-4.48v-0.01h-0.01h-4.47V8.98V8.97h-0.01h-3.35H62.8V4.49V4.48h-0.01H58.3
				h-4.48h-4.48h-4.48h-4.48h-4.48H31.4h-4.48h-0.01v0.01v4.47h-4.47h-4.48h-0.01v0.01v4.47h-0.62h-3.86h-0.01v0.01v4.48v0.01h0.01
				H17.33z M67.27,13.46h0.22H67.27L67.27,13.46z M13.47,13.46h0.22H13.47L13.47,13.46z"/>
		</g>
		<polygon points="4.48,44.86 4.48,49.35 4.48,53.83 4.48,58.31 8.97,58.31 8.97,53.83 8.97,49.35 8.97,44.86 8.97,40.38 
			4.48,40.38 		"/>
		<rect x="13.45" y="49.3" width="4.48" height="4.48"/>
		<rect x="18.03" y="53.88" width="4.48" height="4.48"/>
		<path d="M13.45,84.2v-3.3h4.48h4.48h4.93v3.3v0.59v3.3h-4.48v4.48v4.48h-4.48H13.9v4.48h4.48h4.48h4.48h4.48h4.48h4.48h4.48h4.48
			h4.48h4.48h4.48h4.48h4.48h4.48h4.48h4.48v-4.48h-4.48h-4.48h-4.48v-4.48v-4.48h-4.48h-4.48v-4.48v-2.71h4.48h4.48h4.48v3.3h4.48
			v-3.3v-4.48v-8.97h-4.48v4.48h-4.48v4.48h-4.48h-4.48h-4.48h-4.48h-4.48h-4.48H40.8h-4.48h-4.48h-4.48v-4.78h-4.93v-4.35v-0.13
			V62.8h-4.48h-4.48v-4.48H8.97V84.2H13.45z M31.83,84.79V84.2v-3.3h4.48h4.48h4.48h4.48h4.48h4.48v2.71v4.48v4.48v4.48h-4.48h-4.48
			h-4.48H40.8v-4.48v-4.48h-4.48h-4.48V84.79z"/>
	</g>
</g>
</svg>
