<?xml version="1.0" encoding="utf-8"?>
<!-- Generator: Adobe Illustrator 28.2.0, SVG Export Plug-In . SVG Version: 6.00 Build 0)  -->
<svg version="1.1" xmlns="http://www.w3.org/2000/svg" xmlns:xlink="http://www.w3.org/1999/xlink" x="0px" y="0px"
	 viewBox="0 0 98.8 106.3" style="enable-background:new 0 0 98.8 106.3;" xml:space="preserve">
<style type="text/css">
	.st0{display:none;}
	.st1{display:inline;}
	.st2{fill:#FFFFFF;}
	.st3{opacity:0.1;}
	.st4{display:inline;opacity:0.2;}
	.st5{display:inline;fill:#FFFFFF;}
	.st6{opacity:0.2;fill:#FF0000;}
	.st7{display:inline;opacity:0.2;fill:#FF0000;}
</style>
<g id="Layer_2" class="st0">
	<g class="st1">
		<polyline class="st2" points="18.4,88.8 18.4,92.8 18.4,92.8 13.9,92.8 9.4,92.8 9.4,97.2 9.4,101.7 9.4,106.2 13.9,106.2 
			18.4,106.2 22.9,106.2 27.4,106.2 31.8,106.2 36.3,106.2 40.8,106.2 45.3,106.2 49.8,106.2 54.2,106.2 58.7,106.2 63.2,106.2 
			67.7,106.2 72.2,106.2 76.7,106.2 81.1,106.2 85.6,106.2 90.1,106.2 90.1,101.7 90.1,97.2 90.1,92.8 85.6,92.8 81.1,92.8 
			76.7,92.8 76.7,92.8 76.7,88.8 76.7,88.8 81.1,88.8 85.6,88.8 85.6,84.3 85.6,81.1 85.6,76.6 85.6,72.1 90.1,72.1 90.1,67.6 
			90.1,67.6 94.4,67.6 94.4,63.2 98.8,63.2 98.8,58.7 98.8,54.2 98.8,49.7 98.8,45.2 98.8,40.7 98.8,36.2 94.4,36.2 94.4,31.8 
			89.9,31.8 85.4,31.8 85.4,31.8 85.4,31.6 85.4,27.3 85.4,27.1 85.4,22.7 80.9,22.7 80.8,22.7 80.8,21.6 80.8,18.2 80.8,13.7 
			76.3,13.7 76.2,13.7 76.2,13.7 76.2,9.2 71.8,9.2 71.8,4.7 67.3,4.7 67.3,0.2 62.8,0.2 62.8,0.2 58.3,0.2 53.8,0.2 49.3,0.2 
			44.8,0.2 40.4,0.2 35.9,0.2 31.4,0.2 26.9,0.2 22.4,0.2 22.4,4.7 22.4,4.7 18,4.7 13.5,4.7 13.5,9.2 9,9.2 9,13.6 9,13.7 9,13.7 
			4.5,13.7 4.5,18.2 4.5,22.7 4.5,27.1 4.5,31.6 4.5,36.1 0,36.1 0,40.6 0,45.1 0,49.5 0,54 0,58.5 0,63 4.5,63 4.5,84.3 4.5,88.8 
			9,88.8 13.4,88.8 17.9,88.8 		"/>
		<g>
			<polygon points="85.6,54.2 81.1,54.2 81.1,58.7 81.1,63.2 81.1,67.6 85.6,67.6 85.6,63.2 85.6,63.2 89.9,63.2 89.9,58.7 
				85.6,58.7 			"/>
			<rect x="45.3" y="57.2" width="4.5" height="4.5"/>
			<polygon points="54.2,66.2 58.7,66.2 63.2,66.2 63.2,61.7 58.7,61.7 54.2,61.7 49.8,61.7 49.8,66.2 			"/>
			<rect x="63.2" y="57.2" width="4.5" height="4.5"/>
			<polygon points="89.9,40.7 89.9,45.2 89.9,49.7 89.9,54.2 89.9,58.7 94.4,58.7 94.4,54.2 94.4,49.7 94.4,45.2 94.4,40.7 			"/>
			<polygon points="85.4,36.2 80.9,36.2 80.9,31.8 80.9,31.6 80.9,27.3 80.9,27.1 76.3,27.1 76.3,22.7 76.3,21.6 76.3,18.2 
				71.8,18.2 71.8,18.1 71.8,13.7 71.8,13.7 71.8,13.7 67.3,13.7 67.3,9.2 67.3,9.2 67.3,9.2 63.9,9.2 62.8,9.2 62.8,4.7 62.8,4.7 
				62.8,4.7 58.3,4.7 53.8,4.7 49.3,4.7 44.9,4.7 40.4,4.7 35.9,4.7 31.4,4.7 26.9,4.7 26.9,4.7 26.9,4.7 26.9,9.2 22.4,9.2 18,9.2 
				18,9.2 18,9.2 18,13.6 17.3,13.6 13.5,13.6 13.5,13.6 13.5,13.7 13.5,18.1 13.5,18.1 13.5,18.1 13.5,18.2 9,18.2 9,22.7 9,27.1 
				9,31.6 9,36.1 9,40.6 13.5,40.6 15.7,40.6 18,40.6 18,36.1 18,31.6 22.4,31.6 22.4,36.1 26.9,36.1 26.9,31.6 31.4,31.6 
				31.4,36.1 35.9,36.1 35.9,31.6 40.4,31.6 40.4,36.1 44.8,36.1 44.8,31.6 49.3,31.6 49.3,36.1 53.8,36.1 53.8,31.6 58.3,31.6 
				58.3,36.1 62.8,36.1 62.8,31.6 67.3,31.6 67.3,36.1 71.8,36.1 71.8,31.6 76.4,31.6 76.4,31.8 76.4,36.2 76.4,40.7 76.4,45.2 
				76.4,49.7 76.4,54.2 80.9,54.2 80.9,49.7 80.9,45.2 80.9,40.7 85.4,40.7 89.9,40.7 89.9,36.2 			"/>
			<polygon points="4.5,45.1 4.5,49.5 4.5,54 4.5,58.5 9,58.5 9,54 9,49.5 9,45.1 9,40.6 4.5,40.6 			"/>
			<rect x="13.5" y="49.5" width="4.5" height="4.5"/>
			<rect x="18" y="54.1" width="4.5" height="4.5"/>
			<path d="M76.6,97.2h-4.5v-4.5v-4.5h-4.5h-4.5v-4.5V81h4.5h4.5h4.5v3.3h4.5V81v-4.5v-9h-4.5V72h-4.5v4.5h-4.5h-4.5h-4.5h-4.5h-4.5
				h-4.5h-4.5h-4.5h-4.5h-4.5v-4.8h-4.9v-4.3v-0.1v-4.4H18h-4.5v-4.5H9v25.9h4.5v-3.3H18h4.5h4.9v3.3v0.6v3.3h-4.5v4.5v4.5h-4.5
				h-4.5v4.5h4.5h4.5h4.5h4.5h4.5h4.5h4.5h4.5h4.5h4.5h4.5h4.5h4.5h4.5h4.5h4.5v-4.5h-4.5H76.6z M58.7,83.8v4.5v4.5v4.4h-4.5h-4.5
				h-4.5h-4.5v-4.5v-4.5h-4.5h-4.5v-3.3l0,0v-0.6v-3.3h4.5h4.5h4.5h4.5h4.5h4.5V83.8z"/>
		</g>
	</g>
	<rect x="66.6" y="45.1" class="st1" width="4.5" height="4.5"/>
	<rect x="41.9" y="45.2" class="st1" width="4.5" height="4.5"/>
</g>
<g id="MeIcon" class="st0">
	<g class="st1">
		<polyline class="st2" points="18.4,88.8 18.4,92.8 18.4,92.8 13.9,92.8 9.4,92.8 9.4,97.2 9.4,101.7 9.4,106.2 13.9,106.2 
			18.4,106.2 22.9,106.2 27.4,106.2 31.8,106.2 36.3,106.2 40.8,106.2 45.3,106.2 49.8,106.2 54.2,106.2 58.7,106.2 63.2,106.2 
			67.7,106.2 72.2,106.2 76.7,106.2 81.1,106.2 85.6,106.2 90.1,106.2 90.1,101.7 90.1,97.2 90.1,92.8 85.6,92.8 81.1,92.8 
			76.7,92.8 76.7,92.8 76.7,88.8 76.7,88.8 81.1,88.8 85.6,88.8 85.6,84.3 85.6,81.1 85.6,76.6 85.6,72.1 90.1,72.1 90.1,67.6 
			90.1,67.6 94.4,67.6 94.4,63.2 98.8,63.2 98.8,58.7 98.8,54.2 98.8,49.7 98.8,45.2 98.8,40.7 98.8,36.2 94.4,36.2 94.4,31.8 
			89.9,31.8 85.4,31.8 85.4,31.8 85.4,31.6 85.4,27.3 85.4,27.1 85.4,22.7 80.9,22.7 80.8,22.7 80.8,21.6 80.8,18.2 80.8,13.7 
			76.3,13.7 76.2,13.7 76.2,13.7 76.2,9.2 71.8,9.2 71.8,4.7 67.3,4.7 67.3,0.2 62.8,0.2 62.8,0.2 58.3,0.2 53.8,0.2 49.3,0.2 
			44.8,0.2 40.4,0.2 35.9,0.2 31.4,0.2 26.9,0.2 22.4,0.2 22.4,4.7 22.4,4.7 18,4.7 13.5,4.7 13.5,9.2 9,9.2 9,13.6 9,13.7 9,13.7 
			4.5,13.7 4.5,18.2 4.5,22.7 4.5,27.1 4.5,31.6 4.5,36.1 0,36.1 0,40.6 0,45.1 0,49.5 0,54 0,58.5 0,63 4.5,63 4.5,84.3 4.5,88.8 
			9,88.8 13.4,88.8 17.9,88.8 		"/>
		<g>
			<polygon points="85.6,54.2 81.1,54.2 81.1,58.7 81.1,63.2 81.1,67.6 85.6,67.6 85.6,63.2 85.6,63.2 89.9,63.2 89.9,58.7 
				85.6,58.7 			"/>
			<polygon points="54.2,66.2 58.7,66.2 63.2,66.2 63.2,61.7 58.7,61.7 54.2,61.7 49.8,61.7 49.8,66.2 			"/>
			<polygon points="89.9,40.7 89.9,45.2 89.9,49.7 89.9,54.2 89.9,58.7 94.4,58.7 94.4,54.2 94.4,49.7 94.4,45.2 94.4,40.7 			"/>
			<polygon points="85.4,36.2 80.9,36.2 80.9,31.8 80.9,31.6 80.9,27.3 80.9,27.1 76.3,27.1 76.3,22.7 76.3,21.6 76.3,18.2 
				71.8,18.2 71.8,18.1 71.8,13.7 71.8,13.7 71.8,13.7 67.3,13.7 67.3,9.2 67.3,9.2 67.3,9.2 63.9,9.2 62.8,9.2 62.8,4.7 62.8,4.7 
				62.8,4.7 58.3,4.7 53.8,4.7 49.3,4.7 44.9,4.7 40.4,4.7 35.9,4.7 31.4,4.7 26.9,4.7 26.9,4.7 26.9,4.7 26.9,9.2 22.4,9.2 18,9.2 
				18,9.2 18,9.2 18,13.6 17.3,13.6 13.5,13.6 13.5,13.6 13.5,13.7 13.5,18.1 13.5,18.1 13.5,18.1 13.5,18.2 9,18.2 9,22.7 9,27.1 
				9,31.6 9,36.1 9,40.6 13.5,40.6 15.7,40.6 18,40.6 18,36.1 18,31.6 22.4,31.6 22.4,36.1 26.9,36.1 26.9,31.6 31.4,31.6 
				31.4,36.1 35.9,36.1 35.9,31.6 40.4,31.6 40.4,36.1 44.8,36.1 44.8,31.6 49.3,31.6 49.3,36.1 53.8,36.1 53.8,31.6 58.3,31.6 
				58.3,36.1 62.8,36.1 62.8,31.6 67.3,31.6 67.3,36.1 71.8,36.1 71.8,31.6 76.4,31.6 76.4,31.8 76.4,36.2 76.4,40.7 76.4,45.2 
				76.4,49.7 76.4,54.2 80.9,54.2 80.9,49.7 80.9,45.2 80.9,40.7 85.4,40.7 89.9,40.7 89.9,36.2 			"/>
			<polygon points="4.5,45.1 4.5,49.5 4.5,54 4.5,58.5 9,58.5 9,54 9,49.5 9,45.1 9,40.6 4.5,40.6 			"/>
			<rect x="13.5" y="49.5" width="4.5" height="4.5"/>
			<rect x="18" y="54.1" width="4.5" height="4.5"/>
			<path d="M76.6,97.2h-4.5v-4.5v-4.5h-4.5h-4.5v-4.5V81h4.5h4.5h4.5v3.3h4.5V81v-4.5v-9h-4.5V72h-4.5v4.5h-4.5h-4.5h-4.5h-4.5h-4.5
				h-4.5h-4.5h-4.5h-4.5h-4.5v-4.8h-4.9v-4.3v-0.1v-4.4H18h-4.5v-4.5H9v25.9h4.5v-3.3H18h4.5h4.9v3.3v0.6v3.3h-4.5v4.5v4.5h-4.5
				h-4.5v4.5h4.5h4.5h4.5h4.5h4.5h4.5h4.5h4.5h4.5h4.5h4.5h4.5h4.5h4.5h4.5h4.5v-4.5h-4.5H76.6z M58.7,83.8v4.5v4.5v4.4h-4.5h-4.5
				h-4.5h-4.5v-4.5v-4.5h-4.5h-4.5v-3.3l0,0v-0.6v-3.3h4.5h4.5h4.5h4.5h4.5h4.5V83.8z"/>
		</g>
	</g>
	<rect x="66.6" y="47.3" class="st1" width="4.5" height="2.2"/>
	<rect x="41.9" y="47.3" class="st1" width="4.5" height="2.3"/>
</g>
<g id="MeIcon_copy" class="st0">
	<g class="st1">
		<polyline class="st2" points="18.4,88.8 18.4,92.8 18.4,92.8 13.9,92.8 9.4,92.8 9.4,97.2 9.4,101.7 9.4,106.2 13.9,106.2 
			18.4,106.2 22.9,106.2 27.4,106.2 31.8,106.2 36.3,106.2 40.8,106.2 45.3,106.2 49.8,106.2 54.2,106.2 58.7,106.2 63.2,106.2 
			67.7,106.2 72.2,106.2 76.7,106.2 81.1,106.2 85.6,106.2 90.1,106.2 90.1,101.7 90.1,97.2 90.1,92.8 85.6,92.8 81.1,92.8 
			76.7,92.8 76.7,92.8 76.7,88.8 76.7,88.8 81.1,88.8 85.6,88.8 85.6,84.3 85.6,81.1 85.6,76.6 85.6,72.1 90.1,72.1 90.1,67.6 
			90.1,67.6 94.4,67.6 94.4,63.2 98.8,63.2 98.8,58.7 98.8,54.2 98.8,49.7 98.8,45.2 98.8,40.7 98.8,36.2 94.4,36.2 94.4,31.8 
			89.9,31.8 85.4,31.8 85.4,31.8 85.4,31.6 85.4,27.3 85.4,27.1 85.4,22.7 80.9,22.7 80.8,22.7 80.8,21.6 80.8,18.2 80.8,13.7 
			76.3,13.7 76.2,13.7 76.2,13.7 76.2,9.2 71.8,9.2 71.8,4.7 67.3,4.7 67.3,0.2 62.8,0.2 62.8,0.2 58.3,0.2 53.8,0.2 49.3,0.2 
			44.8,0.2 40.4,0.2 35.9,0.2 31.4,0.2 26.9,0.2 22.4,0.2 22.4,4.7 22.4,4.7 18,4.7 13.5,4.7 13.5,9.2 9,9.2 9,13.6 9,13.7 9,13.7 
			4.5,13.7 4.5,18.2 4.5,22.7 4.5,27.1 4.5,31.6 4.5,36.1 0,36.1 0,40.6 0,45.1 0,49.5 0,54 0,58.5 0,63 4.5,63 4.5,84.3 4.5,88.8 
			9,88.8 13.4,88.8 17.9,88.8 		"/>
		<g>
			<polygon points="85.6,54.2 81.1,54.2 81.1,58.7 81.1,63.2 81.1,67.6 85.6,67.6 85.6,63.2 85.6,63.2 89.9,63.2 89.9,58.7 
				85.6,58.7 			"/>
			<rect x="45.3" y="57.2" width="4.5" height="4.5"/>
			<polygon points="54.2,66.2 58.7,66.2 63.2,66.2 63.2,61.7 58.7,61.7 54.2,61.7 49.8,61.7 49.8,66.2 			"/>
			<rect x="63.2" y="57.2" width="4.5" height="4.5"/>
			<polygon points="89.9,40.7 89.9,45.2 89.9,49.7 89.9,54.2 89.9,58.7 94.4,58.7 94.4,54.2 94.4,49.7 94.4,45.2 94.4,40.7 			"/>
			<polygon points="85.4,36.2 80.9,36.2 80.9,31.8 80.9,31.6 80.9,27.3 80.9,27.1 76.3,27.1 76.3,22.7 76.3,21.6 76.3,18.2 
				71.8,18.2 71.8,18.1 71.8,13.7 71.8,13.7 71.8,13.7 67.3,13.7 67.3,9.2 67.3,9.2 67.3,9.2 63.9,9.2 62.8,9.2 62.8,4.7 62.8,4.7 
				62.8,4.7 58.3,4.7 53.8,4.7 49.3,4.7 44.9,4.7 40.4,4.7 35.9,4.7 31.4,4.7 26.9,4.7 26.9,4.7 26.9,4.7 26.9,9.2 22.4,9.2 18,9.2 
				18,9.2 18,9.2 18,13.6 17.3,13.6 13.5,13.6 13.5,13.6 13.5,13.7 13.5,18.1 13.5,18.1 13.5,18.1 13.5,18.2 9,18.2 9,22.7 9,27.1 
				9,31.6 9,36.1 9,40.6 13.5,40.6 15.7,40.6 18,40.6 18,36.1 18,31.6 22.4,31.6 22.4,36.1 26.9,36.1 26.9,31.6 31.4,31.6 
				31.4,36.1 35.9,36.1 35.9,31.6 40.4,31.6 40.4,36.1 44.8,36.1 44.8,31.6 49.3,31.6 49.3,36.1 53.8,36.1 53.8,31.6 58.3,31.6 
				58.3,36.1 62.8,36.1 62.8,31.6 67.3,31.6 67.3,36.1 71.8,36.1 71.8,31.6 76.4,31.6 76.4,31.8 76.4,36.2 76.4,40.7 76.4,45.2 
				76.4,49.7 76.4,54.2 80.9,54.2 80.9,49.7 80.9,45.2 80.9,40.7 85.4,40.7 89.9,40.7 89.9,36.2 			"/>
			<polygon points="4.5,45.1 4.5,49.5 4.5,54 4.5,58.5 9,58.5 9,54 9,49.5 9,45.1 9,40.6 4.5,40.6 			"/>
			<rect x="13.5" y="49.5" width="4.5" height="4.5"/>
			<rect x="18" y="54.1" width="4.5" height="4.5"/>
			<path d="M76.6,97.2h-4.5v-4.5v-4.5h-4.5h-4.5v-4.5V81h4.5h4.5h4.5v3.3h4.5V81v-4.5v-9h-4.5V72h-4.5v4.5h-4.5h-4.5h-4.5h-4.5h-4.5
				h-4.5h-4.5h-4.5h-4.5h-4.5v-4.8h-4.9v-4.3v-0.1v-4.4H18h-4.5v-4.5H9v25.9h4.5v-3.3H18h4.5h4.9v3.3v0.6v3.3h-4.5v4.5v4.5h-4.5
				h-4.5v4.5h4.5h4.5h4.5h4.5h4.5h4.5h4.5h4.5h4.5h4.5h4.5h4.5h4.5h4.5h4.5h4.5v-4.5h-4.5H76.6z M58.7,83.8v4.5v4.5v4.4h-4.5h-4.5
				h-4.5h-4.5v-4.5v-4.5h-4.5h-4.5v-3.3l0,0v-0.6v-3.3h4.5h4.5h4.5h4.5h4.5h4.5V83.8z"/>
		</g>
	</g>
	<rect x="66.6" y="45.1" class="st1" width="4.5" height="4.5"/>
	<rect x="41.9" y="45.2" class="st1" width="4.5" height="4.5"/>
	<g class="st1">
		<polygon class="st3" points="43,56.2 43,54 34,54 34,56.2 31.7,56.2 31.7,65.3 34,65.3 34,67.6 43,67.6 43,65.3 45.3,65.3 
			45.3,56.2 		"/>
	</g>
	<g class="st1">
		<polygon class="st3" points="81.1,54.2 78.8,54 69.8,54 69.8,56.2 67.5,56.2 67.5,65.3 69.8,65.3 69.8,67.6 78.8,67.6 81.1,67.6 
			81.1,65.3 81.1,56.2 		"/>
	</g>
</g>
<g id="MeIcon_copy_6" class="st0">
	<g class="st1">
		<polyline class="st2" points="18.4,88.8 18.4,92.8 18.4,92.8 13.9,92.8 9.4,92.8 9.4,97.2 9.4,101.7 9.4,106.2 13.9,106.2 
			18.4,106.2 22.9,106.2 27.4,106.2 31.8,106.2 36.3,106.2 40.8,106.2 45.3,106.2 49.8,106.2 54.2,106.2 58.7,106.2 63.2,106.2 
			67.7,106.2 72.2,106.2 76.7,106.2 81.1,106.2 85.6,106.2 90.1,106.2 90.1,101.7 90.1,97.2 90.1,92.8 85.6,92.8 81.1,92.8 
			76.7,92.8 76.7,92.8 76.7,88.8 76.7,88.8 81.1,88.8 85.6,88.8 85.6,84.3 85.6,81.1 85.6,76.6 85.6,72.1 90.1,72.1 90.1,67.6 
			90.1,67.6 94.4,67.6 94.4,63.2 98.8,63.2 98.8,58.7 98.8,54.2 98.8,49.7 98.8,45.2 98.8,40.7 98.8,36.2 94.4,36.2 94.4,31.8 
			89.9,31.8 85.4,31.8 85.4,31.8 85.4,31.6 85.4,27.3 85.4,27.1 85.4,22.7 80.9,22.7 80.8,22.7 80.8,21.6 80.8,18.2 80.8,13.7 
			76.3,13.7 76.2,13.7 76.2,13.7 76.2,9.2 71.8,9.2 71.8,4.7 67.3,4.7 67.3,0.2 62.8,0.2 62.8,0.2 58.3,0.2 53.8,0.2 49.3,0.2 
			44.8,0.2 40.4,0.2 35.9,0.2 31.4,0.2 26.9,0.2 22.4,0.2 22.4,4.7 22.4,4.7 18,4.7 13.5,4.7 13.5,9.2 9,9.2 9,13.6 9,13.7 9,13.7 
			4.5,13.7 4.5,18.2 4.5,22.7 4.5,27.1 4.5,31.6 4.5,36.1 0,36.1 0,40.6 0,45.1 0,49.5 0,54 0,58.5 0,63 4.5,63 4.5,84.3 4.5,88.8 
			9,88.8 13.4,88.8 17.9,88.8 		"/>
		<g>
			<polygon points="85.6,54.2 81.1,54.2 81.1,58.7 81.1,63.2 81.1,67.6 85.6,67.6 85.6,63.2 85.6,63.2 89.9,63.2 89.9,58.7 
				85.6,58.7 			"/>
			<rect x="45.3" y="57.2" width="4.5" height="4.5"/>
			<polygon points="54.2,66.2 58.7,66.2 63.2,66.2 63.2,61.7 58.7,61.7 54.2,61.7 49.8,61.7 49.8,66.2 			"/>
			<rect x="63.2" y="57.2" width="4.5" height="4.5"/>
			<polygon points="89.9,40.7 89.9,45.2 89.9,49.7 89.9,54.2 89.9,58.7 94.4,58.7 94.4,54.2 94.4,49.7 94.4,45.2 94.4,40.7 			"/>
			<polygon points="85.4,36.2 80.9,36.2 80.9,31.8 80.9,31.6 80.9,27.3 80.9,27.1 76.3,27.1 76.3,22.7 76.3,21.6 76.3,18.2 
				71.8,18.2 71.8,18.1 71.8,13.7 71.8,13.7 71.8,13.7 67.3,13.7 67.3,9.2 67.3,9.2 67.3,9.2 63.9,9.2 62.8,9.2 62.8,4.7 62.8,4.7 
				62.8,4.7 58.3,4.7 53.8,4.7 49.3,4.7 44.9,4.7 40.4,4.7 35.9,4.7 31.4,4.7 26.9,4.7 26.9,4.7 26.9,4.7 26.9,9.2 22.4,9.2 18,9.2 
				18,9.2 18,9.2 18,13.6 17.3,13.6 13.5,13.6 13.5,13.6 13.5,13.7 13.5,18.1 13.5,18.1 13.5,18.1 13.5,18.2 9,18.2 9,22.7 9,27.1 
				9,31.6 9,36.1 9,40.6 13.5,40.6 15.7,40.6 18,40.6 18,36.1 18,31.6 22.4,31.6 22.4,36.1 26.9,36.1 26.9,31.6 31.4,31.6 
				31.4,36.1 35.9,36.1 35.9,31.6 40.4,31.6 40.4,36.1 44.8,36.1 44.8,31.6 49.3,31.6 49.3,36.1 53.8,36.1 53.8,31.6 58.3,31.6 
				58.3,36.1 62.8,36.1 62.8,31.6 67.3,31.6 67.3,36.1 71.8,36.1 71.8,31.6 76.4,31.6 76.4,31.8 76.4,36.2 76.4,40.7 76.4,45.2 
				76.4,49.7 76.4,54.2 80.9,54.2 80.9,49.7 80.9,45.2 80.9,40.7 85.4,40.7 89.9,40.7 89.9,36.2 			"/>
			<polygon points="4.5,45.1 4.5,49.5 4.5,54 4.5,58.5 9,58.5 9,54 9,49.5 9,45.1 9,40.6 4.5,40.6 			"/>
			<rect x="13.5" y="49.5" width="4.5" height="4.5"/>
			<rect x="18" y="54.1" width="4.5" height="4.5"/>
			<path d="M76.6,97.2h-4.5v-4.5v-4.5h-4.5h-4.5v-4.5V81h4.5h4.5h4.5v3.3h4.5V81v-4.5v-9h-4.5V72h-4.5v4.5h-4.5h-4.5h-4.5h-4.5h-4.5
				h-4.5h-4.5h-4.5h-4.5h-4.5v-4.8h-4.9v-4.3v-0.1v-4.4H18h-4.5v-4.5H9v25.9h4.5v-3.3H18h4.5h4.9v3.3v0.6v3.3h-4.5v4.5v4.5h-4.5
				h-4.5v4.5h4.5h4.5h4.5h4.5h4.5h4.5h4.5h4.5h4.5h4.5h4.5h4.5h4.5h4.5h4.5h4.5v-4.5h-4.5H76.6z M58.7,83.8v4.5v4.5v4.4h-4.5h-4.5
				h-4.5h-4.5v-4.5v-4.5h-4.5h-4.5v-3.3l0,0v-0.6v-3.3h4.5h4.5h4.5h4.5h4.5h4.5V83.8z"/>
		</g>
	</g>
	<rect x="63.2" y="45.1" class="st1" width="4.5" height="4.5"/>
	<rect x="41.9" y="45.2" class="st1" width="4.5" height="4.5"/>
	<polygon class="st4" points="43,56.2 43,54 34,54 34,56.2 31.7,56.2 31.7,65.3 34,65.3 34,67.6 43,67.6 43,65.3 45.3,65.3 
		45.3,56.2 	"/>
	<polygon class="st4" points="81.1,54.2 78.8,54 69.8,54 69.8,56.2 67.5,56.2 67.5,65.3 69.8,65.3 69.8,67.6 78.8,67.6 81.1,67.6 
		81.1,65.3 81.1,56.2 	"/>
	<rect x="35.1" y="18.2" class="st5" width="4.5" height="4.5"/>
	<polygon class="st5" points="28.6,18.2 26.4,18.2 26.4,13.7 21.9,13.7 21.9,18.2 17.4,18.2 17.4,22.7 21.9,22.7 21.9,25.4 
		21.9,27.2 26.4,27.2 26.4,25.4 26.4,22.7 28.6,22.7 30.9,22.7 30.9,18.2 	"/>
</g>
<g id="MeIcon_copy_5">
	<g>
		<polyline class="st2" points="18.4,88.8 18.4,92.8 18.4,92.8 13.9,92.8 9.4,92.8 9.4,97.2 9.4,101.7 9.4,106.2 13.9,106.2 
			18.4,106.2 22.9,106.2 27.4,106.2 31.8,106.2 36.3,106.2 40.8,106.2 45.3,106.2 49.8,106.2 54.2,106.2 58.7,106.2 63.2,106.2 
			67.7,106.2 72.2,106.2 76.7,106.2 81.1,106.2 85.6,106.2 90.1,106.2 90.1,101.7 90.1,97.2 90.1,92.8 85.6,92.8 81.1,92.8 
			76.7,92.8 76.7,92.8 76.7,88.8 76.7,88.8 81.1,88.8 85.6,88.8 85.6,84.3 85.6,81.1 85.6,76.6 85.6,72.1 90.1,72.1 90.1,67.6 
			90.1,67.6 94.4,67.6 94.4,63.2 98.8,63.2 98.8,58.7 98.8,54.2 98.8,49.7 98.8,45.2 98.8,40.7 98.8,36.2 94.4,36.2 94.4,31.8 
			89.9,31.8 85.4,31.8 85.4,31.8 85.4,31.6 85.4,27.3 85.4,27.1 85.4,22.7 80.9,22.7 80.8,22.7 80.8,21.6 80.8,18.2 80.8,13.7 
			76.3,13.7 76.2,13.7 76.2,13.7 76.2,9.2 71.8,9.2 71.8,4.7 67.3,4.7 67.3,0.2 62.8,0.2 62.8,0.2 58.3,0.2 53.8,0.2 49.3,0.2 
			44.8,0.2 40.4,0.2 35.9,0.2 31.4,0.2 26.9,0.2 22.4,0.2 22.4,4.7 22.4,4.7 18,4.7 13.5,4.7 13.5,9.2 9,9.2 9,13.6 9,13.7 9,13.7 
			4.5,13.7 4.5,18.2 4.5,22.7 4.5,27.1 4.5,31.6 4.5,36.1 0,36.1 0,40.6 0,45.1 0,49.5 0,54 0,58.5 0,63 4.5,63 4.5,84.3 4.5,88.8 
			9,88.8 13.4,88.8 17.9,88.8 		"/>
		<g>
			<polygon points="85.6,54.2 81.1,54.2 81.1,58.7 81.1,63.2 81.1,67.6 85.6,67.6 85.6,63.2 85.6,63.2 89.9,63.2 89.9,58.7 
				85.6,58.7 			"/>
			<rect x="45.3" y="57.2" width="4.5" height="4.5"/>
			<polygon points="54.2,66.2 58.7,66.2 63.2,66.2 63.2,61.7 58.7,61.7 54.2,61.7 49.8,61.7 49.8,66.2 			"/>
			<rect x="63.2" y="57.2" width="4.5" height="4.5"/>
			<polygon points="89.9,40.7 89.9,45.2 89.9,49.7 89.9,54.2 89.9,58.7 94.4,58.7 94.4,54.2 94.4,49.7 94.4,45.2 94.4,40.7 			"/>
			<polygon points="85.4,36.2 80.9,36.2 80.9,31.8 80.9,31.6 80.9,27.3 80.9,27.1 76.3,27.1 76.3,22.7 76.3,21.6 76.3,18.2 
				71.8,18.2 71.8,18.1 71.8,13.7 71.8,13.7 71.8,13.7 67.3,13.7 67.3,9.2 67.3,9.2 67.3,9.2 63.9,9.2 62.8,9.2 62.8,4.7 62.8,4.7 
				62.8,4.7 58.3,4.7 53.8,4.7 49.3,4.7 44.9,4.7 40.4,4.7 35.9,4.7 31.4,4.7 26.9,4.7 26.9,4.7 26.9,4.7 26.9,9.2 22.4,9.2 18,9.2 
				18,9.2 18,9.2 18,13.6 17.3,13.6 13.5,13.6 13.5,13.6 13.5,13.7 13.5,18.1 13.5,18.1 13.5,18.1 13.5,18.2 9,18.2 9,22.7 9,27.1 
				9,31.6 9,36.1 9,40.6 13.5,40.6 15.7,40.6 18,40.6 18,36.1 18,31.6 22.4,31.6 22.4,36.1 26.9,36.1 26.9,31.6 31.4,31.6 
				31.4,36.1 35.9,36.1 35.9,31.6 40.4,31.6 40.4,36.1 44.8,36.1 44.8,31.6 49.3,31.6 49.3,36.1 53.8,36.1 53.8,31.6 58.3,31.6 
				58.3,36.1 62.8,36.1 62.8,31.6 67.3,31.6 67.3,36.1 71.8,36.1 71.8,31.6 76.4,31.6 76.4,31.8 76.4,36.2 76.4,40.7 76.4,45.2 
				76.4,49.7 76.4,54.2 80.9,54.2 80.9,49.7 80.9,45.2 80.9,40.7 85.4,40.7 89.9,40.7 89.9,36.2 			"/>
			<polygon points="4.5,45.1 4.5,49.5 4.5,54 4.5,58.5 9,58.5 9,54 9,49.5 9,45.1 9,40.6 4.5,40.6 			"/>
			<rect x="13.5" y="49.5" width="4.5" height="4.5"/>
			<rect x="18" y="54.1" width="4.5" height="4.5"/>
			<path d="M76.6,97.2h-4.5v-4.5v-4.5h-4.5h-4.5v-4.5V81h4.5h4.5h4.5v3.3h4.5V81v-4.5v-9h-4.5V72h-4.5v4.5h-4.5h-4.5h-4.5h-4.5h-4.5
				h-4.5h-4.5h-4.5h-4.5h-4.5v-4.8h-4.9v-4.3v-0.1v-4.4H18h-4.5v-4.5H9v25.9h4.5v-3.3H18h4.5h4.9v3.3v0.6v3.3h-4.5v4.5v4.5h-4.5
				h-4.5v4.5h4.5h4.5h4.5h4.5h4.5h4.5h4.5h4.5h4.5h4.5h4.5h4.5h4.5h4.5h4.5h4.5v-4.5h-4.5H76.6z M58.7,83.8v4.5v4.5v4.4h-4.5h-4.5
				h-4.5h-4.5v-4.5v-4.5h-4.5h-4.5v-3.3l0,0v-0.6v-3.3h4.5h4.5h4.5h4.5h4.5h4.5V83.8z"/>
		</g>
	</g>
	<rect x="63.2" y="47.3" width="4.5" height="2.3"/>
	<rect x="41.9" y="47.4" width="4.5" height="2.3"/>
	<polygon class="st6" points="43,56.2 43,54 34,54 34,56.2 31.7,56.2 31.7,65.3 34,65.3 34,67.6 43,67.6 43,65.3 45.3,65.3 
		45.3,56.2 	"/>
	<polygon class="st6" points="81.1,54.2 78.8,54 69.8,54 69.8,56.2 67.5,56.2 67.5,65.3 69.8,65.3 69.8,67.6 78.8,67.6 81.1,67.6 
		81.1,65.3 81.1,56.2 	"/>
	<rect x="35.1" y="18.2" class="st2" width="4.5" height="4.5"/>
	<polygon class="st2" points="28.6,18.2 26.4,18.2 26.4,13.7 21.9,13.7 21.9,18.2 17.4,18.2 17.4,22.7 21.9,22.7 21.9,25.4 
		21.9,27.2 26.4,27.2 26.4,25.4 26.4,22.7 28.6,22.7 30.9,22.7 30.9,18.2 	"/>
</g>
<g id="MeIcon_copy_3" class="st0">
	<g class="st1">
		<polyline class="st2" points="18.4,88.8 18.4,92.8 18.4,92.8 13.9,92.8 9.4,92.8 9.4,97.2 9.4,101.7 9.4,106.2 13.9,106.2 
			18.4,106.2 22.9,106.2 27.4,106.2 31.8,106.2 36.3,106.2 40.8,106.2 45.3,106.2 49.8,106.2 54.2,106.2 58.7,106.2 63.2,106.2 
			67.7,106.2 72.2,106.2 76.7,106.2 81.1,106.2 85.6,106.2 90.1,106.2 90.1,101.7 90.1,97.2 90.1,92.8 85.6,92.8 81.1,92.8 
			76.7,92.8 76.7,92.8 76.7,88.8 76.7,88.8 81.1,88.8 85.6,88.8 85.6,84.3 85.6,81.1 85.6,76.6 85.6,72.1 90.1,72.1 90.1,67.6 
			90.1,67.6 94.4,67.6 94.4,63.2 98.8,63.2 98.8,58.7 98.8,54.2 98.8,49.7 98.8,45.2 98.8,40.7 98.8,36.2 94.4,36.2 94.4,31.8 
			89.9,31.8 85.4,31.8 85.4,31.8 85.4,31.6 85.4,27.3 85.4,27.1 85.4,22.7 80.9,22.7 80.8,22.7 80.8,21.6 80.8,18.2 80.8,13.7 
			76.3,13.7 76.2,13.7 76.2,13.7 76.2,9.2 71.8,9.2 71.8,4.7 67.3,4.7 67.3,0.2 62.8,0.2 62.8,0.2 58.3,0.2 53.8,0.2 49.3,0.2 
			44.8,0.2 40.4,0.2 35.9,0.2 31.4,0.2 26.9,0.2 22.4,0.2 22.4,4.7 22.4,4.7 18,4.7 13.5,4.7 13.5,9.2 9,9.2 9,13.6 9,13.7 9,13.7 
			4.5,13.7 4.5,18.2 4.5,22.7 4.5,27.1 4.5,31.6 4.5,36.1 0,36.1 0,40.6 0,45.1 0,49.5 0,54 0,58.5 0,63 4.5,63 4.5,84.3 4.5,88.8 
			9,88.8 13.4,88.8 17.9,88.8 		"/>
		<g>
			<polygon points="85.6,54.2 81.1,54.2 81.1,58.7 81.1,63.2 81.1,67.6 85.6,67.6 85.6,63.2 85.6,63.2 89.9,63.2 89.9,58.7 
				85.6,58.7 			"/>
			<rect x="45.3" y="57.2" width="4.5" height="4.5"/>
			<polygon points="54.2,66.2 58.7,66.2 63.2,66.2 63.2,61.7 58.7,61.7 54.2,61.7 49.8,61.7 49.8,66.2 			"/>
			<rect x="63.2" y="57.2" width="4.5" height="4.5"/>
			<polygon points="89.9,40.7 89.9,45.2 89.9,49.7 89.9,54.2 89.9,58.7 94.4,58.7 94.4,54.2 94.4,49.7 94.4,45.2 94.4,40.7 			"/>
			<polygon points="85.4,36.2 80.9,36.2 80.9,31.8 80.9,31.6 80.9,27.3 80.9,27.1 76.3,27.1 76.3,22.7 76.3,21.6 76.3,18.2 
				71.8,18.2 71.8,18.1 71.8,13.7 71.8,13.7 71.8,13.7 67.3,13.7 67.3,9.2 67.3,9.2 67.3,9.2 63.9,9.2 62.8,9.2 62.8,4.7 62.8,4.7 
				62.8,4.7 58.3,4.7 53.8,4.7 49.3,4.7 44.9,4.7 40.4,4.7 35.9,4.7 31.4,4.7 26.9,4.7 26.9,4.7 26.9,4.7 26.9,9.2 22.4,9.2 18,9.2 
				18,9.2 18,9.2 18,13.6 17.3,13.6 13.5,13.6 13.5,13.6 13.5,13.7 13.5,18.1 13.5,18.1 13.5,18.1 13.5,18.2 9,18.2 9,22.7 9,27.1 
				9,31.6 9,36.1 9,40.6 13.5,40.6 15.7,40.6 18,40.6 18,36.1 18,31.6 22.4,31.6 22.4,36.1 26.9,36.1 26.9,31.6 31.4,31.6 
				31.4,36.1 35.9,36.1 35.9,31.6 40.4,31.6 40.4,36.1 44.8,36.1 44.8,31.6 49.3,31.6 49.3,36.1 53.8,36.1 53.8,31.6 58.3,31.6 
				58.3,36.1 62.8,36.1 62.8,31.6 67.3,31.6 67.3,36.1 71.8,36.1 71.8,31.6 76.4,31.6 76.4,31.8 76.4,36.2 76.4,40.7 76.4,45.2 
				76.4,49.7 76.4,54.2 80.9,54.2 80.9,49.7 80.9,45.2 80.9,40.7 85.4,40.7 89.9,40.7 89.9,36.2 			"/>
			<polygon points="4.5,45.1 4.5,49.5 4.5,54 4.5,58.5 9,58.5 9,54 9,49.5 9,45.1 9,40.6 4.5,40.6 			"/>
			<rect x="13.5" y="49.5" width="4.5" height="4.5"/>
			<rect x="18" y="54.1" width="4.5" height="4.5"/>
			<path d="M76.6,97.2h-4.5v-4.5v-4.5h-4.5h-4.5v-4.5V81h4.5h4.5h4.5v3.3h4.5V81v-4.5v-9h-4.5V72h-4.5v4.5h-4.5h-4.5h-4.5h-4.5h-4.5
				h-4.5h-4.5h-4.5h-4.5h-4.5v-4.8h-4.9v-4.3v-0.1v-4.4H18h-4.5v-4.5H9v25.9h4.5v-3.3H18h4.5h4.9v3.3v0.6v3.3h-4.5v4.5v4.5h-4.5
				h-4.5v4.5h4.5h4.5h4.5h4.5h4.5h4.5h4.5h4.5h4.5h4.5h4.5h4.5h4.5h4.5h4.5h4.5v-4.5h-4.5H76.6z M58.7,83.8v4.5v4.5v4.4h-4.5h-4.5
				h-4.5h-4.5v-4.5v-4.5h-4.5h-4.5v-3.3l0,0v-0.6v-3.3h4.5h4.5h4.5h4.5h4.5h4.5V83.8z"/>
		</g>
	</g>
	<rect x="63.2" y="45.1" class="st1" width="4.5" height="4.5"/>
	<rect x="41.9" y="45.2" class="st1" width="4.5" height="4.5"/>
	<polygon class="st7" points="43,56.2 43,54 34,54 34,56.2 31.7,56.2 31.7,65.3 34,65.3 34,67.6 43,67.6 43,65.3 45.3,65.3 
		45.3,56.2 	"/>
	<polygon class="st7" points="81.1,54.2 78.8,54 69.8,54 69.8,56.2 67.5,56.2 67.5,65.3 69.8,65.3 69.8,67.6 78.8,67.6 81.1,67.6 
		81.1,65.3 81.1,56.2 	"/>
	<rect x="35.1" y="18.2" class="st5" width="4.5" height="4.5"/>
	<polygon class="st5" points="28.6,18.2 26.4,18.2 26.4,13.7 21.9,13.7 21.9,18.2 17.4,18.2 17.4,22.7 21.9,22.7 21.9,25.4 
		21.9,27.2 26.4,27.2 26.4,25.4 26.4,22.7 28.6,22.7 30.9,22.7 30.9,18.2 	"/>
</g>
<g id="MeIcon_copy_4" class="st0">
	<g class="st1">
		<polyline class="st2" points="18.4,88.8 18.4,92.8 18.4,92.8 13.9,92.8 9.4,92.8 9.4,97.2 9.4,101.7 9.4,106.2 13.9,106.2 
			18.4,106.2 22.9,106.2 27.4,106.2 31.8,106.2 36.3,106.2 40.8,106.2 45.3,106.2 49.8,106.2 54.2,106.2 58.7,106.2 63.2,106.2 
			67.7,106.2 72.2,106.2 76.7,106.2 81.1,106.2 85.6,106.2 90.1,106.2 90.1,101.7 90.1,97.2 90.1,92.8 85.6,92.8 81.1,92.8 
			76.7,92.8 76.7,92.8 76.7,88.8 76.7,88.8 81.1,88.8 85.6,88.8 85.6,84.3 85.6,81.1 85.6,76.6 85.6,72.1 90.1,72.1 90.1,67.6 
			90.1,67.6 94.4,67.6 94.4,63.2 98.8,63.2 98.8,58.7 98.8,54.2 98.8,49.7 98.8,45.2 98.8,40.7 98.8,36.2 94.4,36.2 94.4,31.8 
			89.9,31.8 85.4,31.8 85.4,31.8 85.4,31.6 85.4,27.3 85.4,27.1 85.4,22.7 80.9,22.7 80.8,22.7 80.8,21.6 80.8,18.2 80.8,13.7 
			76.3,13.7 76.2,13.7 76.2,13.7 76.2,9.2 71.8,9.2 71.8,4.7 67.3,4.7 67.3,0.2 62.8,0.2 62.8,0.2 58.3,0.2 53.8,0.2 49.3,0.2 
			44.8,0.2 40.4,0.2 35.9,0.2 31.4,0.2 26.9,0.2 22.4,0.2 22.4,4.7 22.4,4.7 18,4.7 13.5,4.7 13.5,9.2 9,9.2 9,13.6 9,13.7 9,13.7 
			4.5,13.7 4.5,18.2 4.5,22.7 4.5,27.1 4.5,31.6 4.5,36.1 0,36.1 0,40.6 0,45.1 0,49.5 0,54 0,58.5 0,63 4.5,63 4.5,84.3 4.5,88.8 
			9,88.8 13.4,88.8 17.9,88.8 		"/>
		<g>
			<polygon points="85.6,54.2 81.1,54.2 81.1,58.7 81.1,63.2 81.1,67.6 85.6,67.6 85.6,63.2 85.6,63.2 89.9,63.2 89.9,58.7 
				85.6,58.7 			"/>
			<rect x="45.3" y="57.2" width="4.5" height="4.5"/>
			<polygon points="54.2,66.2 58.7,66.2 63.2,66.2 63.2,61.7 58.7,61.7 54.2,61.7 49.8,61.7 49.8,66.2 			"/>
			<rect x="63.2" y="57.2" width="4.5" height="4.5"/>
			<polygon points="89.9,40.7 89.9,45.2 89.9,49.7 89.9,54.2 89.9,58.7 94.4,58.7 94.4,54.2 94.4,49.7 94.4,45.2 94.4,40.7 			"/>
			<polygon points="85.4,36.2 80.9,36.2 80.9,31.8 80.9,31.6 80.9,27.3 80.9,27.1 76.3,27.1 76.3,22.7 76.3,21.6 76.3,18.2 
				71.8,18.2 71.8,18.1 71.8,13.7 71.8,13.7 71.8,13.7 67.3,13.7 67.3,9.2 67.3,9.2 67.3,9.2 63.9,9.2 62.8,9.2 62.8,4.7 62.8,4.7 
				62.8,4.7 58.3,4.7 53.8,4.7 49.3,4.7 44.9,4.7 40.4,4.7 35.9,4.7 31.4,4.7 26.9,4.7 26.9,4.7 26.9,4.7 26.9,9.2 22.4,9.2 18,9.2 
				18,9.2 18,9.2 18,13.6 17.3,13.6 13.5,13.6 13.5,13.6 13.5,13.7 13.5,18.1 13.5,18.1 13.5,18.1 13.5,18.2 9,18.2 9,22.7 9,27.1 
				9,31.6 9,36.1 9,40.6 13.5,40.6 15.7,40.6 18,40.6 18,36.1 18,31.6 22.4,31.6 22.4,36.1 26.9,36.1 26.9,31.6 31.4,31.6 
				31.4,36.1 35.9,36.1 35.9,31.6 40.4,31.6 40.4,36.1 44.8,36.1 44.8,31.6 49.3,31.6 49.3,36.1 53.8,36.1 53.8,31.6 58.3,31.6 
				58.3,36.1 62.8,36.1 62.8,31.6 67.3,31.6 67.3,36.1 71.8,36.1 71.8,31.6 76.4,31.6 76.4,31.8 76.4,36.2 76.4,40.7 76.4,45.2 
				76.4,49.7 76.4,54.2 80.9,54.2 80.9,49.7 80.9,45.2 80.9,40.7 85.4,40.7 89.9,40.7 89.9,36.2 			"/>
			<polygon points="4.5,45.1 4.5,49.5 4.5,54 4.5,58.5 9,58.5 9,54 9,49.5 9,45.1 9,40.6 4.5,40.6 			"/>
			<rect x="13.5" y="49.5" width="4.5" height="4.5"/>
			<rect x="18" y="54.1" width="4.5" height="4.5"/>
			<path d="M76.6,97.2h-4.5v-4.5v-4.5h-4.5h-4.5v-4.5V81h4.5h4.5h4.5v3.3h4.5V81v-4.5v-9h-4.5V72h-4.5v4.5h-4.5h-4.5h-4.5h-4.5h-4.5
				h-4.5h-4.5h-4.5h-4.5h-4.5v-4.8h-4.9v-4.3v-0.1v-4.4H18h-4.5v-4.5H9v25.9h4.5v-3.3H18h4.5h4.9v3.3v0.6v3.3h-4.5v4.5v4.5h-4.5
				h-4.5v4.5h4.5h4.5h4.5h4.5h4.5h4.5h4.5h4.5h4.5h4.5h4.5h4.5h4.5h4.5h4.5h4.5v-4.5h-4.5H76.6z M58.7,83.8v4.5v4.5v4.4h-4.5h-4.5
				h-4.5h-4.5v-4.5v-4.5h-4.5h-4.5v-3.3l0,0v-0.6v-3.3h4.5h4.5h4.5h4.5h4.5h4.5V83.8z"/>
		</g>
	</g>
	<rect x="63.2" y="45.1" class="st1" width="4.5" height="4.5"/>
	<rect x="41.9" y="45.2" class="st1" width="4.5" height="4.5"/>
	<polygon class="st7" points="43,56.2 43,54 34,54 34,56.2 31.7,56.2 31.7,65.3 34,65.3 34,67.6 43,67.6 43,65.3 45.3,65.3 
		45.3,56.2 	"/>
	<polygon class="st7" points="81.1,54.2 78.8,54 69.8,54 69.8,56.2 67.5,56.2 67.5,65.3 69.8,65.3 69.8,67.6 78.8,67.6 81.1,67.6 
		81.1,65.3 81.1,56.2 	"/>
	<rect x="35.1" y="18.2" class="st5" width="4.5" height="4.5"/>
	<polygon class="st5" points="28.6,18.2 26.4,18.2 26.4,13.7 21.9,13.7 21.9,18.2 17.4,18.2 17.4,22.7 21.9,22.7 21.9,25.4 
		21.9,27.2 26.4,27.2 26.4,25.4 26.4,22.7 28.6,22.7 30.9,22.7 30.9,18.2 	"/>
</g>
<g id="Layer_8" class="st0">
	<g class="st1">
		<path d="M177.2,46v-3.8h-3.8v-3.8h-3.8v-3.8h-3.8V11h3.8V7.2h31.1V11h3.8v23.5h-3.8v3.8h-3.8v3.8H193V46H177.2z M188.8,34.1v-3.8
			h3.8v-3.8h3.8v-7.4h-3.8v-3.8H189v3.8h-7.8v-3.8h-3.6v3.8h-3.8v7.4h3.8v3.8h3.8v3.8h3.8H188.8z"/>
		<path class="st2" d="M198.6,9.2V13h3.8v4v3.8v3.8v3.8v4h-3.8v3.8h-3.8v3.8H191V44h-4h-3.8h-4v-3.8h-3.8v-3.8h-3.8v-3.8h-3.8v-4
			v-3.8v-3.8v-3.8v-4h3.8V9.2h4h3.8h3.8h4h3.6h3.8H198.6 M183.2,17.1v-3.8h-3.8h-3.8v3.8h-3.8v3.8v3.8v3.8h3.8v3.8h3.8v3.8h3.8V40
			h3.8v-3.8h3.8v-3.8h3.8v-3.8h3.8v-3.8v-3.8v-3.8h-3.8v-3.8h-3.8H187v3.8H183.2 M202.6,5.2h-4h-4h-3.8h-3.6h-4h-3.8h-3.8h-4h-4V9
			h-3.8v4v4v3.8v3.8v3.8v4v4h3.8v3.8h3.8v3.8h3.8V48h4h4h3.8h4h4v-3.8h3.8v-3.8h3.8v-3.8h3.8v-4v-4v-3.8v-3.8v-3.8v-4V9h-3.8V5.2
			L202.6,5.2z M190.6,21.1h3.8v3.4h-3.8v3.8h-3.8v3.8h-3.4v-3.8h-3.8v-3.8h-3.8v-3.4h3.8h3.6h3.8H190.6L190.6,21.1z"/>
	</g>
	<polygon class="st5" points="194.6,13.3 190.8,13.3 187,13.3 187,17.1 183.2,17.1 183.2,13.3 179.4,13.3 175.5,13.3 175.5,17.1 
		171.7,17.1 171.7,20.9 171.7,24.7 171.7,28.5 175.5,28.5 175.5,32.3 179.4,32.3 179.4,36.1 183.2,36.1 183.2,40 187,40 187,36.1 
		190.8,36.1 190.8,32.3 194.6,32.3 194.6,28.5 198.4,28.5 198.4,24.7 198.4,20.9 198.4,17.1 194.6,17.1 	"/>
</g>
<g id="Layer_9" class="st0">
	<g class="st1">
		<polygon points="206.1,66.1 206.1,61.6 201.6,61.6 201.6,57.1 197.1,57.1 197.1,43.1 201.6,43.1 201.6,38.6 220.1,38.6 
			220.1,43.1 224.6,43.1 224.6,57.1 220.1,57.1 220.1,61.6 215.6,61.6 215.6,66.1 		"/>
		<path class="st2" d="M217.6,41.1v4.5h4.5v4.5v4.5h-4.5v4.5h-4.5v4.5h-4.5v-4.5h-4.5v-4.5h-4.5v-4.5v-4.5h4.5v-4.5h4.5v4.5h4.5
			v-4.5H217.6 M222.6,36.1h-5h-4h-5h-4.5h-5v4.5h-4.5v5v4.5v4.5v5h4.5v4.5h4.5v4.5h5h4.5h5v-4.5h4.5v-4.5h4.5v-5v-4.5v-4.5v-5h-4.5
			V36.1L222.6,36.1z"/>
	</g>
</g>
</svg>
