<?xml version="1.0" encoding="utf-8"?>
<!-- Generator: Adobe Illustrator 25.3.1, SVG Export Plug-In . SVG Version: 6.00 Build 0)  -->
<svg version="1.1" id="Layer_1" xmlns="http://www.w3.org/2000/svg" xmlns:xlink="http://www.w3.org/1999/xlink" x="0px" y="0px"
	 viewBox="0 0 125.52 116.56" style="enable-background:new 0 0 125.52 116.56;" xml:space="preserve">
<style type="text/css">
	.st0{fill:#FFFFFF;}
	.st1{fill:#231F20;}
</style>
<g>
	<g>
		<polygon class="st0" points="42.59,114.32 42.59,109.83 33.62,109.83 33.62,105.35 24.66,105.35 24.66,100.87 20.17,100.87 
			20.17,96.38 15.69,96.38 15.69,91.9 11.21,91.9 11.21,82.94 6.72,82.94 6.72,73.97 2.24,73.97 2.24,42.59 6.72,42.59 6.72,33.62 
			11.21,33.62 11.21,24.66 15.69,24.66 15.69,20.17 20.17,20.17 20.17,15.69 24.66,15.69 24.66,11.21 33.62,11.21 33.62,6.72 
			42.59,6.72 42.59,2.24 82.94,2.24 82.94,6.72 91.9,6.72 91.9,11.21 100.87,11.21 100.87,15.69 105.35,15.69 105.35,20.17 
			109.83,20.17 109.83,24.66 114.32,24.66 114.32,33.62 118.8,33.62 118.8,42.59 123.28,42.59 123.28,73.97 118.8,73.97 
			118.8,82.94 114.32,82.94 114.32,91.9 109.83,91.9 109.83,96.38 105.35,96.38 105.35,100.87 100.87,100.87 100.87,105.35 
			91.9,105.35 91.9,109.83 82.94,109.83 82.94,114.32 		"/>
		<path class="st1" d="M80.69,4.48v4.48h4.48h4.48v4.48h4.48h4.48v4.48h4.48v4.48h4.48v4.48h4.48v4.48v4.48h4.48v4.48v4.48h4.48
			v4.48v4.48v4.48v4.48v4.48v4.48h-4.48v4.48v4.48h-4.48v4.48v4.48h-4.48v4.48h-4.48v4.48h-4.48v4.48h-4.48h-4.48v4.48h-4.48h-4.48
			v4.48h-4.48h-4.48h-4.48h-4.48h-4.48H53.8h-4.48h-4.48v-4.48h-4.48h-4.48v-4.48h-4.48H26.9v-4.48h-4.48v-4.48h-4.48v-4.48h-4.48
			v-4.48v-4.48H8.97v-4.48v-4.48H4.48v-4.48v-4.48v-4.48V53.8v-4.48v-4.48h4.48v-4.48v-4.48h4.48v-4.48V26.9h4.48v-4.48h4.48v-4.48
			h4.48v-4.48h4.48h4.48V8.97h4.48h4.48V4.48h4.48h4.48h4.48h4.48h4.48h4.48h4.48H80.69 M85.18,0h-4.48h-4.48h-4.48h-4.48h-4.48
			h-4.48H53.8h-4.48h-4.48h-4.48v4.48h-4.48h-4.48v4.48H26.9h-4.48v4.48h-4.48v4.48h-4.48v4.48v0h0H8.97v4.48v4.48H4.48v4.48v4.48h0
			H0v4.48v4.48v4.48v4.48v4.48v4.48v4.48v4.48h4.48l0,0v4.48v4.48h4.48l0,0v4.48v4.48h4.48l0,4.48h4.48l0,0v4.48h4.48l0,0v4.48h4.48
			h4.48v4.48h4.48h4.48v0v4.48h4.48h4.48h4.48h4.48h4.48h4.48h4.48h4.48h4.48h4.48v-4.48v0h0h4.48h4.48v-4.48h4.48h4.48v-4.48h4.48
			v-4.48h0h4.48v-4.48h4.48v-4.48v-4.48h0h4.48v-4.48v-4.48v0h4.48v-4.48v-4.48v-4.48v-4.48V53.8v-4.48v-4.48v-4.48h-4.48v-4.48
			v-4.48h-4.48l0-4.48v-4.48h-4.48v0v-4.48h-4.48l0-4.48h-4.48l0,0V8.97h-4.48h-4.48l0,0V4.48h-4.48h-4.48L85.18,0L85.18,0z"/>
	</g>
	<g>
		<rect x="47.07" y="31.27" class="st1" width="4.48" height="4.48"/>
		<rect x="42.59" y="31.27" class="st1" width="4.48" height="4.48"/>
		<rect x="42.59" y="35.75" class="st1" width="4.48" height="4.48"/>
		<rect x="38.11" y="31.27" class="st1" width="4.48" height="4.48"/>
		<rect x="42.59" y="26.79" class="st1" width="4.48" height="4.48"/>
		<rect x="47.07" y="40.24" class="st1" width="4.48" height="4.48"/>
		<rect x="47.07" y="44.72" class="st1" width="4.48" height="4.48"/>
		<rect x="42.59" y="40.24" class="st1" width="4.48" height="4.48"/>
		<rect x="42.59" y="44.72" class="st1" width="4.48" height="4.48"/>
		<rect x="38.11" y="44.72" class="st1" width="4.48" height="4.48"/>
		<rect x="38.11" y="40.24" class="st1" width="4.48" height="4.48"/>
		<rect x="38.11" y="35.75" class="st1" width="4.48" height="4.48"/>
		<rect x="29.14" y="40.24" class="st1" width="4.48" height="8.97"/>
		<rect x="42.59" y="49.2" class="st1" width="4.48" height="4.48"/>
		<rect x="38.11" y="49.2" class="st1" width="4.48" height="4.48"/>
		<rect x="33.62" y="49.2" class="st1" width="4.48" height="4.48"/>
		<rect x="33.62" y="35.75" class="st1" width="4.48" height="13.45"/>
		<rect x="42.59" y="53.68" class="st1" width="4.48" height="4.48"/>
		<rect x="42.59" y="58.17" class="st1" width="4.48" height="4.48"/>
		<rect x="38.11" y="53.68" class="st1" width="4.48" height="4.48"/>
		<rect x="47.07" y="58.17" class="st1" width="4.48" height="4.48"/>
		<rect x="47.07" y="62.65" class="st1" width="4.48" height="4.48"/>
		<rect x="51.55" y="62.65" class="st1" width="4.48" height="4.48"/>
		<rect x="51.55" y="67.13" class="st1" width="4.48" height="4.48"/>
		<rect x="56.04" y="67.13" class="st1" width="4.48" height="4.48"/>
		<rect x="56.04" y="71.62" class="st1" width="4.48" height="4.48"/>
		<rect x="60.52" y="71.62" class="st1" width="4.48" height="4.48"/>
		<rect x="60.52" y="76.1" class="st1" width="4.48" height="4.48"/>
		<rect x="65" y="71.62" class="st1" width="4.48" height="4.48"/>
		<rect x="65" y="76.1" class="st1" width="4.48" height="4.48"/>
		<rect x="65" y="80.58" class="st1" width="4.48" height="4.48"/>
		<rect x="69.49" y="80.58" class="st1" width="13.45" height="4.48"/>
		<rect x="69.49" y="85.07" class="st1" width="4.48" height="4.48"/>
		<rect x="73.97" y="85.07" class="st1" width="4.48" height="4.48"/>
		<rect x="78.45" y="85.07" class="st1" width="4.48" height="4.48"/>
		<rect x="82.94" y="80.58" class="st1" width="4.48" height="4.48"/>
		<rect x="82.94" y="76.1" class="st1" width="4.48" height="4.48"/>
		<rect x="78.45" y="71.62" class="st1" width="8.97" height="4.48"/>
		<rect x="78.45" y="67.13" class="st1" width="8.97" height="4.48"/>
		<rect x="87.42" y="67.13" class="st1" width="4.48" height="4.48"/>
		<rect x="87.42" y="71.62" class="st1" width="4.48" height="4.48"/>
		<rect x="91.9" y="71.62" class="st1" width="4.48" height="4.48"/>
		<rect x="87.42" y="76.1" class="st1" width="4.48" height="4.48"/>
		<rect x="47.07" y="49.2" class="st1" width="4.48" height="4.48"/>
		<rect x="47.07" y="53.68" class="st1" width="4.48" height="4.48"/>
		<rect x="47.07" y="35.75" class="st1" width="4.48" height="4.48"/>
		<rect x="51.55" y="40.24" class="st1" width="4.48" height="4.48"/>
		<rect x="51.55" y="35.75" class="st1" width="4.48" height="4.48"/>
		<rect x="51.55" y="44.72" class="st1" width="4.48" height="4.48"/>
		<rect x="51.55" y="58.17" class="st1" width="4.48" height="4.48"/>
		<rect x="60.52" y="67.13" class="st1" width="4.48" height="4.48"/>
		<rect x="78.45" y="62.65" class="st1" width="4.48" height="4.48"/>
		<rect x="82.94" y="62.65" class="st1" width="4.48" height="4.48"/>
		<rect x="73.97" y="67.13" class="st1" width="4.48" height="4.48"/>
		<rect x="69.49" y="71.62" class="st1" width="4.48" height="4.48"/>
		<rect x="69.49" y="76.1" class="st1" width="13.45" height="4.48"/>
		<rect x="73.97" y="71.62" class="st1" width="4.48" height="4.48"/>
		<rect x="56.04" y="62.65" class="st1" width="4.48" height="4.48"/>
	</g>
</g>
</svg>
