<svg width="889" height="760" viewBox="0 0 889 760" fill="none" xmlns="http://www.w3.org/2000/svg">
<path d="M888.324 0H0V9.10327H888.324V0Z" fill="#231F20"/>
<path d="M888.324 726H0V735.103H888.324V726Z" fill="#231F20"/>
<path d="M16.5449 742.848H11.0873V748.305H16.5449V742.848Z" fill="#231F20"/>
<path d="M27.6543 742.848H22.1967V748.305H27.6543V742.848Z" fill="#231F20"/>
<path d="M38.8067 742.848H33.3491V748.305H38.8067V742.848Z" fill="#231F20"/>
<path d="M49.9811 742.848H44.5234V748.305H49.9811V742.848Z" fill="#231F20"/>
<path d="M61.1335 742.848H55.6758V748.305H61.1335V742.848Z" fill="#231F20"/>
<path d="M72.3079 742.848H66.8503V748.305H72.3079V742.848Z" fill="#231F20"/>
<path d="M83.4813 742.848H78.0237V748.305H83.4813V742.848Z" fill="#231F20"/>
<path d="M94.6348 742.848H89.1771V748.305H94.6348V742.848Z" fill="#231F20"/>
<path d="M105.808 742.848H100.351V748.305H105.808V742.848Z" fill="#231F20"/>
<path d="M116.961 742.848H111.503V748.305H116.961V742.848Z" fill="#231F20"/>
<path d="M128.136 742.848H122.678V748.305H128.136V742.848Z" fill="#231F20"/>
<path d="M139.31 742.848H133.852V748.305H139.31V742.848Z" fill="#231F20"/>
<path d="M150.462 742.848H145.005V748.305H150.462V742.848Z" fill="#231F20"/>
<path d="M161.636 742.848H156.178V748.305H161.636V742.848Z" fill="#231F20"/>
<path d="M172.789 742.848H167.332V748.305H172.789V742.848Z" fill="#231F20"/>
<path d="M183.963 742.848H178.505V748.305H183.963V742.848Z" fill="#231F20"/>
<path d="M195.137 742.848H189.679V748.305H195.137V742.848Z" fill="#231F20"/>
<path d="M206.29 742.848H200.832V748.305H206.29V742.848Z" fill="#231F20"/>
<path d="M217.464 742.848H212.007V748.305H217.464V742.848Z" fill="#231F20"/>
<path d="M228.617 742.848H223.159V748.305H228.617V742.848Z" fill="#231F20"/>
<path d="M239.791 742.848H234.334V748.305H239.791V742.848Z" fill="#231F20"/>
<path d="M250.965 742.848H245.507V748.305H250.965V742.848Z" fill="#231F20"/>
<path d="M262.117 742.848H256.659V748.305H262.117V742.848Z" fill="#231F20"/>
<path d="M273.292 742.848H267.834V748.305H273.292V742.848Z" fill="#231F20"/>
<path d="M284.444 742.848H278.986V748.305H284.444V742.848Z" fill="#231F20"/>
<path d="M295.619 742.848H290.161V748.305H295.619V742.848Z" fill="#231F20"/>
<path d="M306.792 742.848H301.335V748.305H306.792V742.848Z" fill="#231F20"/>
<path d="M317.946 742.848H312.488V748.305H317.946V742.848Z" fill="#231F20"/>
<path d="M329.119 742.848H323.661V748.305H329.119V742.848Z" fill="#231F20"/>
<path d="M340.271 742.848H334.814V748.305H340.271V742.848Z" fill="#231F20"/>
<path d="M351.446 742.848H345.988V748.305H351.446V742.848Z" fill="#231F20"/>
<path d="M362.62 742.848H357.163V748.305H362.62V742.848Z" fill="#231F20"/>
<path d="M373.773 742.848H368.315V748.305H373.773V742.848Z" fill="#231F20"/>
<path d="M384.946 742.848H379.489V748.305H384.946V742.848Z" fill="#231F20"/>
<path d="M396.1 742.848H390.642V748.305H396.1V742.848Z" fill="#231F20"/>
<path d="M407.274 742.848H401.816V748.305H407.274V742.848Z" fill="#231F20"/>
<path d="M418.448 742.848H412.99V748.305H418.448V742.848Z" fill="#231F20"/>
<path d="M429.6 742.848H424.143V748.305H429.6V742.848Z" fill="#231F20"/>
<path d="M440.775 742.848H435.317V748.305H440.775V742.848Z" fill="#231F20"/>
<path d="M451.927 742.848H446.47V748.305H451.927V742.848Z" fill="#231F20"/>
<path d="M27.7194 753.87H22.2617V759.328H27.7194V753.87Z" fill="#231F20"/>
<path d="M38.8287 753.87H33.371V759.328H38.8287V753.87Z" fill="#231F20"/>
<path d="M49.9811 753.87H44.5234V759.328H49.9811V753.87Z" fill="#231F20"/>
<path d="M61.1555 753.87H55.6979V759.328H61.1555V753.87Z" fill="#231F20"/>
<path d="M72.3079 753.87H66.8503V759.328H72.3079V753.87Z" fill="#231F20"/>
<path d="M83.4813 753.87H78.0237V759.328H83.4813V753.87Z" fill="#231F20"/>
<path d="M94.6558 753.87H89.1981V759.328H94.6558V753.87Z" fill="#231F20"/>
<path d="M105.808 753.87H100.351V759.328H105.808V753.87Z" fill="#231F20"/>
<path d="M116.983 753.87H111.526V759.328H116.983V753.87Z" fill="#231F20"/>
<path d="M128.136 753.87H122.678V759.328H128.136V753.87Z" fill="#231F20"/>
<path d="M139.31 753.87H133.852V759.328H139.31V753.87Z" fill="#231F20"/>
<path d="M150.483 753.87H145.026V759.328H150.483V753.87Z" fill="#231F20"/>
<path d="M161.636 753.87H156.178V759.328H161.636V753.87Z" fill="#231F20"/>
<path d="M172.81 753.87H167.353V759.328H172.81V753.87Z" fill="#231F20"/>
<path d="M183.963 753.87H178.505V759.328H183.963V753.87Z" fill="#231F20"/>
<path d="M195.137 753.87H189.679V759.328H195.137V753.87Z" fill="#231F20"/>
<path d="M206.29 753.87H200.832V759.328H206.29V753.87Z" fill="#231F20"/>
<path d="M217.464 753.87H212.007V759.328H217.464V753.87Z" fill="#231F20"/>
<path d="M228.638 753.87H223.18V759.328H228.638V753.87Z" fill="#231F20"/>
<path d="M239.791 753.87H234.334V759.328H239.791V753.87Z" fill="#231F20"/>
<path d="M250.965 753.87H245.507V759.328H250.965V753.87Z" fill="#231F20"/>
<path d="M262.117 753.87H256.659V759.328H262.117V753.87Z" fill="#231F20"/>
<path d="M273.292 753.87H267.834V759.328H273.292V753.87Z" fill="#231F20"/>
<path d="M284.466 753.87H279.008V759.328H284.466V753.87Z" fill="#231F20"/>
<path d="M295.619 753.87H290.161V759.328H295.619V753.87Z" fill="#231F20"/>
<path d="M306.792 753.87H301.335V759.328H306.792V753.87Z" fill="#231F20"/>
<path d="M317.946 753.87H312.488V759.328H317.946V753.87Z" fill="#231F20"/>
<path d="M329.119 753.87H323.661V759.328H329.119V753.87Z" fill="#231F20"/>
<path d="M340.294 753.87H334.836V759.328H340.294V753.87Z" fill="#231F20"/>
<path d="M351.446 753.87H345.988V759.328H351.446V753.87Z" fill="#231F20"/>
<path d="M362.62 753.87H357.163V759.328H362.62V753.87Z" fill="#231F20"/>
<path d="M373.773 753.87H368.315V759.328H373.773V753.87Z" fill="#231F20"/>
<path d="M384.946 753.87H379.489V759.328H384.946V753.87Z" fill="#231F20"/>
<path d="M396.121 753.87H390.663V759.328H396.121V753.87Z" fill="#231F20"/>
<path d="M407.274 753.87H401.816V759.328H407.274V753.87Z" fill="#231F20"/>
<path d="M418.448 753.87H412.99V759.328H418.448V753.87Z" fill="#231F20"/>
<path d="M429.6 753.87H424.143V759.328H429.6V753.87Z" fill="#231F20"/>
<path d="M440.775 753.87H435.317V759.328H440.775V753.87Z" fill="#231F20"/>
<path d="M451.948 753.87H446.491V759.328H451.948V753.87Z" fill="#231F20"/>
<path d="M463.102 742.848H457.644V748.305H463.102V742.848Z" fill="#231F20"/>
<path d="M474.275 742.848H468.817V748.305H474.275V742.848Z" fill="#231F20"/>
<path d="M485.427 742.848H479.97V748.305H485.427V742.848Z" fill="#231F20"/>
<path d="M496.602 742.848H491.145V748.305H496.602V742.848Z" fill="#231F20"/>
<path d="M507.755 742.848H502.297V748.305H507.755V742.848Z" fill="#231F20"/>
<path d="M518.929 742.848H513.472V748.305H518.929V742.848Z" fill="#231F20"/>
<path d="M530.103 742.848H524.645V748.305H530.103V742.848Z" fill="#231F20"/>
<path d="M541.256 742.848H535.798V748.305H541.256V742.848Z" fill="#231F20"/>
<path d="M552.43 742.848H546.972V748.305H552.43V742.848Z" fill="#231F20"/>
<path d="M563.582 742.848H558.124V748.305H563.582V742.848Z" fill="#231F20"/>
<path d="M574.756 742.848H569.299V748.305H574.756V742.848Z" fill="#231F20"/>
<path d="M585.931 742.848H580.474V748.305H585.931V742.848Z" fill="#231F20"/>
<path d="M597.084 742.848H591.626V748.305H597.084V742.848Z" fill="#231F20"/>
<path d="M608.257 742.848H602.799V748.305H608.257V742.848Z" fill="#231F20"/>
<path d="M619.411 742.848H613.953V748.305H619.411V742.848Z" fill="#231F20"/>
<path d="M630.584 742.848H625.126V748.305H630.584V742.848Z" fill="#231F20"/>
<path d="M641.758 742.848H636.301V748.305H641.758V742.848Z" fill="#231F20"/>
<path d="M652.911 742.848H647.453V748.305H652.911V742.848Z" fill="#231F20"/>
<path d="M664.085 742.848H658.628V748.305H664.085V742.848Z" fill="#231F20"/>
<path d="M675.238 742.848H669.78V748.305H675.238V742.848Z" fill="#231F20"/>
<path d="M686.411 742.848H680.954V748.305H686.411V742.848Z" fill="#231F20"/>
<path d="M697.586 742.848H692.128V748.305H697.586V742.848Z" fill="#231F20"/>
<path d="M708.738 742.848H703.281V748.305H708.738V742.848Z" fill="#231F20"/>
<path d="M719.913 742.848H714.455V748.305H719.913V742.848Z" fill="#231F20"/>
<path d="M731.065 742.848H725.608V748.305H731.065V742.848Z" fill="#231F20"/>
<path d="M742.24 742.848H736.782V748.305H742.24V742.848Z" fill="#231F20"/>
<path d="M753.413 742.848H747.955V748.305H753.413V742.848Z" fill="#231F20"/>
<path d="M764.567 742.848H759.109V748.305H764.567V742.848Z" fill="#231F20"/>
<path d="M775.74 742.848H770.282V748.305H775.74V742.848Z" fill="#231F20"/>
<path d="M786.892 742.848H781.435V748.305H786.892V742.848Z" fill="#231F20"/>
<path d="M798.067 742.848H792.61V748.305H798.067V742.848Z" fill="#231F20"/>
<path d="M809.242 742.848H803.784V748.305H809.242V742.848Z" fill="#231F20"/>
<path d="M820.394 742.848H814.936V748.305H820.394V742.848Z" fill="#231F20"/>
<path d="M831.568 742.848H826.11V748.305H831.568V742.848Z" fill="#231F20"/>
<path d="M842.72 742.848H837.262V748.305H842.72V742.848Z" fill="#231F20"/>
<path d="M853.895 742.848H848.437V748.305H853.895V742.848Z" fill="#231F20"/>
<path d="M865.069 742.848H859.611V748.305H865.069V742.848Z" fill="#231F20"/>
<path d="M876.221 742.848H870.764V748.305H876.221V742.848Z" fill="#231F20"/>
<path d="M887.396 742.848H881.938V748.305H887.396V742.848Z" fill="#231F20"/>
<path d="M463.102 753.87H457.644V759.328H463.102V753.87Z" fill="#231F20"/>
<path d="M474.275 753.87H468.817V759.328H474.275V753.87Z" fill="#231F20"/>
<path d="M485.427 753.87H479.97V759.328H485.427V753.87Z" fill="#231F20"/>
<path d="M496.602 753.87H491.145V759.328H496.602V753.87Z" fill="#231F20"/>
<path d="M507.777 753.87H502.319V759.328H507.777V753.87Z" fill="#231F20"/>
<path d="M518.929 753.87H513.472V759.328H518.929V753.87Z" fill="#231F20"/>
<path d="M530.103 753.87H524.645V759.328H530.103V753.87Z" fill="#231F20"/>
<path d="M541.256 753.87H535.798V759.328H541.256V753.87Z" fill="#231F20"/>
<path d="M552.43 753.87H546.972V759.328H552.43V753.87Z" fill="#231F20"/>
<path d="M563.582 753.87H558.124V759.328H563.582V753.87Z" fill="#231F20"/>
<path d="M574.756 753.87H569.299V759.328H574.756V753.87Z" fill="#231F20"/>
<path d="M585.931 753.87H580.474V759.328H585.931V753.87Z" fill="#231F20"/>
<path d="M597.084 753.87H591.626V759.328H597.084V753.87Z" fill="#231F20"/>
<path d="M608.257 753.87H602.799V759.328H608.257V753.87Z" fill="#231F20"/>
<path d="M619.411 753.87H613.953V759.328H619.411V753.87Z" fill="#231F20"/>
<path d="M630.584 753.87H625.126V759.328H630.584V753.87Z" fill="#231F20"/>
<path d="M641.758 753.87H636.301V759.328H641.758V753.87Z" fill="#231F20"/>
<path d="M652.911 753.87H647.453V759.328H652.911V753.87Z" fill="#231F20"/>
<path d="M664.085 753.87H658.628V759.328H664.085V753.87Z" fill="#231F20"/>
<path d="M675.238 753.87H669.78V759.328H675.238V753.87Z" fill="#231F20"/>
<path d="M686.411 753.87H680.954V759.328H686.411V753.87Z" fill="#231F20"/>
<path d="M697.586 753.87H692.128V759.328H697.586V753.87Z" fill="#231F20"/>
<path d="M708.738 753.87H703.281V759.328H708.738V753.87Z" fill="#231F20"/>
<path d="M719.913 753.87H714.455V759.328H719.913V753.87Z" fill="#231F20"/>
<path d="M731.065 753.87H725.608V759.328H731.065V753.87Z" fill="#231F20"/>
<path d="M742.24 753.87H736.782V759.328H742.24V753.87Z" fill="#231F20"/>
<path d="M753.413 753.87H747.955V759.328H753.413V753.87Z" fill="#231F20"/>
<path d="M764.567 753.87H759.109V759.328H764.567V753.87Z" fill="#231F20"/>
<path d="M775.74 753.87H770.282V759.328H775.74V753.87Z" fill="#231F20"/>
<path d="M786.892 753.87H781.435V759.328H786.892V753.87Z" fill="#231F20"/>
<path d="M798.067 753.87H792.61V759.328H798.067V753.87Z" fill="#231F20"/>
<path d="M809.242 753.87H803.784V759.328H809.242V753.87Z" fill="#231F20"/>
<path d="M820.394 753.87H814.936V759.328H820.394V753.87Z" fill="#231F20"/>
<path d="M831.568 753.87H826.11V759.328H831.568V753.87Z" fill="#231F20"/>
<path d="M842.72 753.87H837.262V759.328H842.72V753.87Z" fill="#231F20"/>
<path d="M853.895 753.87H848.437V759.328H853.895V753.87Z" fill="#231F20"/>
<path d="M865.069 753.87H859.611V759.328H865.069V753.87Z" fill="#231F20"/>
<path d="M876.221 753.87H870.764V759.328H876.221V753.87Z" fill="#231F20"/>
</svg>
