<?xml version="1.0" encoding="utf-8"?>
<!-- Generator: Adobe Illustrator 25.3.1, SVG Export Plug-In . SVG Version: 6.00 Build 0)  -->
<svg version="1.1" id="Layer_1" xmlns="http://www.w3.org/2000/svg" xmlns:xlink="http://www.w3.org/1999/xlink" x="0px" y="0px"
	 viewBox="0 0 431.67 285.09" style="enable-background:new 0 0 431.67 285.09;" xml:space="preserve">
<style type="text/css">
	.st0{fill:#231F20;}
</style>
<g>
	<g>
		<rect y="4.22" class="st0" width="4.22" height="265.85"/>
		<polyline class="st0" points="420.24,274.3 420.24,4.22 416.02,4.22 416.02,270.08 4.22,270.08 4.22,274.3 8.45,274.3 		"/>
		<rect x="4.22" class="st0" width="411.8" height="4.22"/>
	</g>
	<g>
		<rect x="9.91" y="277.45" class="st0" width="2.53" height="2.53"/>
		<rect x="15.06" y="277.45" class="st0" width="2.53" height="2.53"/>
		<rect x="20.23" y="277.45" class="st0" width="2.53" height="2.53"/>
		<rect x="25.41" y="277.45" class="st0" width="2.53" height="2.53"/>
		<rect x="30.58" y="277.45" class="st0" width="2.53" height="2.53"/>
		<rect x="35.76" y="277.45" class="st0" width="2.53" height="2.53"/>
		<rect x="40.94" y="277.45" class="st0" width="2.53" height="2.53"/>
		<rect x="46.11" y="277.45" class="st0" width="2.53" height="2.53"/>
		<rect x="51.29" y="277.45" class="st0" width="2.53" height="2.53"/>
		<rect x="56.46" y="277.45" class="st0" width="2.53" height="2.53"/>
		<rect x="61.64" y="277.45" class="st0" width="2.53" height="2.53"/>
		<rect x="66.82" y="277.45" class="st0" width="2.53" height="2.53"/>
		<rect x="71.99" y="277.45" class="st0" width="2.53" height="2.53"/>
		<rect x="77.17" y="277.45" class="st0" width="2.53" height="2.53"/>
		<rect x="82.34" y="277.45" class="st0" width="2.53" height="2.53"/>
		<rect x="87.52" y="277.45" class="st0" width="2.53" height="2.53"/>
		<rect x="92.7" y="277.45" class="st0" width="2.53" height="2.53"/>
		<rect x="97.87" y="277.45" class="st0" width="2.53" height="2.53"/>
		<rect x="103.05" y="277.45" class="st0" width="2.53" height="2.53"/>
		<rect x="108.22" y="277.45" class="st0" width="2.53" height="2.53"/>
		<rect x="113.4" y="277.45" class="st0" width="2.53" height="2.53"/>
		<rect x="118.58" y="277.45" class="st0" width="2.53" height="2.53"/>
		<rect x="123.75" y="277.45" class="st0" width="2.53" height="2.53"/>
		<rect x="128.93" y="277.45" class="st0" width="2.53" height="2.53"/>
		<rect x="134.1" y="277.45" class="st0" width="2.53" height="2.53"/>
		<rect x="139.28" y="277.45" class="st0" width="2.53" height="2.53"/>
		<rect x="144.46" y="277.45" class="st0" width="2.53" height="2.53"/>
		<rect x="149.63" y="277.45" class="st0" width="2.53" height="2.53"/>
		<rect x="154.81" y="277.45" class="st0" width="2.53" height="2.53"/>
		<rect x="159.98" y="277.45" class="st0" width="2.53" height="2.53"/>
		<rect x="165.16" y="277.45" class="st0" width="2.53" height="2.53"/>
		<rect x="170.34" y="277.45" class="st0" width="2.53" height="2.53"/>
		<rect x="175.51" y="277.45" class="st0" width="2.53" height="2.53"/>
		<rect x="180.69" y="277.45" class="st0" width="2.53" height="2.53"/>
		<rect x="185.86" y="277.45" class="st0" width="2.53" height="2.53"/>
		<rect x="191.04" y="277.45" class="st0" width="2.53" height="2.53"/>
		<rect x="196.22" y="277.45" class="st0" width="2.53" height="2.53"/>
		<rect x="201.39" y="277.45" class="st0" width="2.53" height="2.53"/>
		<rect x="206.57" y="277.45" class="st0" width="2.53" height="2.53"/>
		<rect x="211.74" y="277.45" class="st0" width="2.53" height="2.53"/>
		<rect x="15.09" y="282.55" class="st0" width="2.53" height="2.53"/>
		<rect x="20.23" y="282.55" class="st0" width="2.53" height="2.53"/>
		<rect x="25.41" y="282.55" class="st0" width="2.53" height="2.53"/>
		<rect x="30.59" y="282.55" class="st0" width="2.53" height="2.53"/>
		<rect x="35.76" y="282.55" class="st0" width="2.53" height="2.53"/>
		<rect x="40.94" y="282.55" class="st0" width="2.53" height="2.53"/>
		<rect x="46.11" y="282.55" class="st0" width="2.53" height="2.53"/>
		<rect x="51.29" y="282.55" class="st0" width="2.53" height="2.53"/>
		<rect x="56.47" y="282.55" class="st0" width="2.53" height="2.53"/>
		<rect x="61.64" y="282.55" class="st0" width="2.53" height="2.53"/>
		<rect x="66.82" y="282.55" class="st0" width="2.53" height="2.53"/>
		<rect x="71.99" y="282.55" class="st0" width="2.53" height="2.53"/>
		<rect x="77.17" y="282.55" class="st0" width="2.53" height="2.53"/>
		<rect x="82.35" y="282.55" class="st0" width="2.53" height="2.53"/>
		<rect x="87.52" y="282.55" class="st0" width="2.53" height="2.53"/>
		<rect x="92.7" y="282.55" class="st0" width="2.53" height="2.53"/>
		<rect x="97.87" y="282.55" class="st0" width="2.53" height="2.53"/>
		<rect x="103.05" y="282.55" class="st0" width="2.53" height="2.53"/>
		<rect x="108.23" y="282.55" class="st0" width="2.53" height="2.53"/>
		<rect x="113.4" y="282.55" class="st0" width="2.53" height="2.53"/>
		<rect x="118.58" y="282.55" class="st0" width="2.53" height="2.53"/>
		<rect x="123.75" y="282.55" class="st0" width="2.53" height="2.53"/>
		<rect x="128.93" y="282.55" class="st0" width="2.53" height="2.53"/>
		<rect x="134.11" y="282.55" class="st0" width="2.53" height="2.53"/>
		<rect x="139.28" y="282.55" class="st0" width="2.53" height="2.53"/>
		<rect x="144.46" y="282.55" class="st0" width="2.53" height="2.53"/>
		<rect x="149.63" y="282.55" class="st0" width="2.53" height="2.53"/>
		<rect x="154.81" y="282.55" class="st0" width="2.53" height="2.53"/>
		<rect x="159.99" y="282.55" class="st0" width="2.53" height="2.53"/>
		<rect x="165.16" y="282.55" class="st0" width="2.53" height="2.53"/>
		<rect x="170.34" y="282.55" class="st0" width="2.53" height="2.53"/>
		<rect x="175.51" y="282.55" class="st0" width="2.53" height="2.53"/>
		<rect x="180.69" y="282.55" class="st0" width="2.53" height="2.53"/>
		<rect x="185.87" y="282.55" class="st0" width="2.53" height="2.53"/>
		<rect x="191.04" y="282.55" class="st0" width="2.53" height="2.53"/>
		<rect x="196.22" y="282.55" class="st0" width="2.53" height="2.53"/>
		<rect x="201.39" y="282.55" class="st0" width="2.53" height="2.53"/>
		<rect x="206.57" y="282.55" class="st0" width="2.53" height="2.53"/>
		<rect x="211.74" y="282.55" class="st0" width="2.53" height="2.53"/>
		<rect x="216.92" y="277.45" class="st0" width="2.53" height="2.53"/>
		<rect x="222.1" y="277.45" class="st0" width="2.53" height="2.53"/>
		<rect x="227.27" y="277.45" class="st0" width="2.53" height="2.53"/>
		<rect x="232.45" y="277.45" class="st0" width="2.53" height="2.53"/>
		<rect x="237.62" y="277.45" class="st0" width="2.53" height="2.53"/>
		<rect x="242.8" y="277.45" class="st0" width="2.53" height="2.53"/>
		<rect x="247.98" y="277.45" class="st0" width="2.53" height="2.53"/>
		<rect x="253.15" y="277.45" class="st0" width="2.53" height="2.53"/>
		<rect x="258.33" y="277.45" class="st0" width="2.53" height="2.53"/>
		<rect x="263.5" y="277.45" class="st0" width="2.53" height="2.53"/>
		<rect x="268.68" y="277.45" class="st0" width="2.53" height="2.53"/>
		<rect x="273.85" y="277.45" class="st0" width="2.53" height="2.53"/>
		<rect x="279.03" y="277.45" class="st0" width="2.53" height="2.53"/>
		<rect x="284.21" y="277.45" class="st0" width="2.53" height="2.53"/>
		<rect x="289.38" y="277.45" class="st0" width="2.53" height="2.53"/>
		<rect x="294.56" y="277.45" class="st0" width="2.53" height="2.53"/>
		<rect x="299.73" y="277.45" class="st0" width="2.53" height="2.53"/>
		<rect x="304.91" y="277.45" class="st0" width="2.53" height="2.53"/>
		<rect x="310.09" y="277.45" class="st0" width="2.53" height="2.53"/>
		<rect x="315.26" y="277.45" class="st0" width="2.53" height="2.53"/>
		<rect x="320.44" y="277.45" class="st0" width="2.53" height="2.53"/>
		<rect x="325.61" y="277.45" class="st0" width="2.53" height="2.53"/>
		<rect x="330.79" y="277.45" class="st0" width="2.53" height="2.53"/>
		<rect x="335.97" y="277.45" class="st0" width="2.53" height="2.53"/>
		<rect x="341.14" y="277.45" class="st0" width="2.53" height="2.53"/>
		<rect x="346.32" y="277.45" class="st0" width="2.53" height="2.53"/>
		<rect x="351.49" y="277.45" class="st0" width="2.53" height="2.53"/>
		<rect x="356.67" y="277.45" class="st0" width="2.53" height="2.53"/>
		<rect x="361.85" y="277.45" class="st0" width="2.53" height="2.53"/>
		<rect x="367.02" y="277.45" class="st0" width="2.53" height="2.53"/>
		<rect x="372.2" y="277.45" class="st0" width="2.53" height="2.53"/>
		<rect x="377.37" y="277.45" class="st0" width="2.53" height="2.53"/>
		<rect x="382.55" y="277.45" class="st0" width="2.53" height="2.53"/>
		<rect x="387.73" y="277.45" class="st0" width="2.53" height="2.53"/>
		<rect x="392.9" y="277.45" class="st0" width="2.53" height="2.53"/>
		<rect x="398.08" y="277.45" class="st0" width="2.53" height="2.53"/>
		<rect x="403.25" y="277.45" class="st0" width="2.53" height="2.53"/>
		<rect x="408.43" y="277.45" class="st0" width="2.53" height="2.53"/>
		<rect x="413.61" y="277.45" class="st0" width="2.53" height="2.53"/>
		<rect x="418.78" y="277.45" class="st0" width="2.53" height="2.53"/>
		<rect x="423.96" y="277.05" class="st0" width="2.53" height="2.53"/>
		<rect x="216.92" y="282.55" class="st0" width="2.53" height="2.53"/>
		<rect x="222.1" y="282.55" class="st0" width="2.53" height="2.53"/>
		<rect x="227.27" y="282.55" class="st0" width="2.53" height="2.53"/>
		<rect x="232.45" y="282.55" class="st0" width="2.53" height="2.53"/>
		<rect x="237.62" y="282.55" class="st0" width="2.53" height="2.53"/>
		<rect x="242.8" y="282.55" class="st0" width="2.53" height="2.53"/>
		<rect x="247.98" y="282.55" class="st0" width="2.53" height="2.53"/>
		<rect x="253.15" y="282.55" class="st0" width="2.53" height="2.53"/>
		<rect x="258.33" y="282.55" class="st0" width="2.53" height="2.53"/>
		<rect x="263.5" y="282.55" class="st0" width="2.53" height="2.53"/>
		<rect x="268.68" y="282.55" class="st0" width="2.53" height="2.53"/>
		<rect x="273.86" y="282.55" class="st0" width="2.53" height="2.53"/>
		<rect x="279.03" y="282.55" class="st0" width="2.53" height="2.53"/>
		<rect x="284.21" y="282.55" class="st0" width="2.53" height="2.53"/>
		<rect x="289.38" y="282.55" class="st0" width="2.53" height="2.53"/>
		<rect x="294.56" y="282.55" class="st0" width="2.53" height="2.53"/>
		<rect x="299.74" y="282.55" class="st0" width="2.53" height="2.53"/>
		<rect x="304.91" y="282.55" class="st0" width="2.53" height="2.53"/>
		<rect x="310.09" y="282.55" class="st0" width="2.53" height="2.53"/>
		<rect x="315.26" y="282.55" class="st0" width="2.53" height="2.53"/>
		<rect x="320.44" y="282.55" class="st0" width="2.53" height="2.53"/>
		<rect x="325.62" y="282.55" class="st0" width="2.53" height="2.53"/>
		<rect x="330.79" y="282.55" class="st0" width="2.53" height="2.53"/>
		<rect x="335.97" y="282.55" class="st0" width="2.53" height="2.53"/>
		<rect x="341.14" y="282.55" class="st0" width="2.53" height="2.53"/>
		<rect x="346.32" y="282.55" class="st0" width="2.53" height="2.53"/>
		<rect x="351.5" y="282.55" class="st0" width="2.53" height="2.53"/>
		<rect x="356.67" y="282.55" class="st0" width="2.53" height="2.53"/>
		<rect x="361.85" y="282.55" class="st0" width="2.53" height="2.53"/>
		<rect x="367.02" y="282.55" class="st0" width="2.53" height="2.53"/>
		<rect x="372.2" y="282.55" class="st0" width="2.53" height="2.53"/>
		<rect x="377.38" y="282.55" class="st0" width="2.53" height="2.53"/>
		<rect x="382.55" y="282.55" class="st0" width="2.53" height="2.53"/>
		<rect x="387.73" y="282.55" class="st0" width="2.53" height="2.53"/>
		<rect x="392.9" y="282.55" class="st0" width="2.53" height="2.53"/>
		<rect x="398.08" y="282.55" class="st0" width="2.53" height="2.53"/>
		<rect x="403.25" y="282.55" class="st0" width="2.53" height="2.53"/>
		<rect x="408.43" y="282.55" class="st0" width="2.53" height="2.53"/>
		<rect x="413.61" y="282.55" class="st0" width="2.53" height="2.53"/>
		<rect x="418.78" y="282.55" class="st0" width="2.53" height="2.53"/>
		<rect x="423.96" y="282.55" class="st0" width="2.53" height="2.53"/>
		<rect x="429.13" y="277.05" class="st0" width="2.53" height="2.53"/>
		<rect x="429.13" y="282.55" class="st0" width="2.53" height="2.53"/>
		
			<rect x="424.03" y="271.54" transform="matrix(6.123234e-17 -1 1 6.123234e-17 152.4862 698.1069)" class="st0" width="2.53" height="2.53"/>
		
			<rect x="424.03" y="266.04" transform="matrix(6.123234e-17 -1 1 6.123234e-17 157.9917 692.6014)" class="st0" width="2.53" height="2.53"/>
		
			<rect x="424.03" y="260.53" transform="matrix(6.123234e-17 -1 1 6.123234e-17 163.4972 687.0959)" class="st0" width="2.53" height="2.53"/>
		
			<rect x="424.03" y="255.03" transform="matrix(6.123234e-17 -1 1 6.123234e-17 169.0026 681.5905)" class="st0" width="2.53" height="2.53"/>
		
			<rect x="424.03" y="249.52" transform="matrix(6.123234e-17 -1 1 6.123234e-17 174.5081 676.085)" class="st0" width="2.53" height="2.53"/>
		
			<rect x="424.03" y="244.02" transform="matrix(6.123234e-17 -1 1 6.123234e-17 180.0135 670.5795)" class="st0" width="2.53" height="2.53"/>
		
			<rect x="424.03" y="238.51" transform="matrix(6.123234e-17 -1 1 6.123234e-17 185.519 665.074)" class="st0" width="2.53" height="2.53"/>
		
			<rect x="424.03" y="233.01" transform="matrix(6.123234e-17 -1 1 6.123234e-17 191.0245 659.5686)" class="st0" width="2.53" height="2.53"/>
		
			<rect x="424.03" y="227.5" transform="matrix(6.123234e-17 -1 1 6.123234e-17 196.53 654.0631)" class="st0" width="2.53" height="2.53"/>
		
			<rect x="424.03" y="221.99" transform="matrix(6.123234e-17 -1 1 6.123234e-17 202.0354 648.5577)" class="st0" width="2.53" height="2.53"/>
		
			<rect x="424.03" y="216.49" transform="matrix(6.123234e-17 -1 1 6.123234e-17 207.5409 643.0522)" class="st0" width="2.53" height="2.53"/>
		
			<rect x="424.03" y="210.98" transform="matrix(6.123234e-17 -1 1 6.123234e-17 213.0463 637.5468)" class="st0" width="2.53" height="2.53"/>
		
			<rect x="424.03" y="205.48" transform="matrix(6.123234e-17 -1 1 6.123234e-17 218.5518 632.0413)" class="st0" width="2.53" height="2.53"/>
		
			<rect x="424.03" y="199.97" transform="matrix(6.123234e-17 -1 1 6.123234e-17 224.0573 626.5358)" class="st0" width="2.53" height="2.53"/>
		
			<rect x="424.03" y="194.47" transform="matrix(6.123234e-17 -1 1 6.123234e-17 229.5627 621.0303)" class="st0" width="2.53" height="2.53"/>
		
			<rect x="424.03" y="188.96" transform="matrix(6.123234e-17 -1 1 6.123234e-17 235.0682 615.5249)" class="st0" width="2.53" height="2.53"/>
		
			<rect x="424.03" y="183.46" transform="matrix(6.123234e-17 -1 1 6.123234e-17 240.5737 610.0194)" class="st0" width="2.53" height="2.53"/>
		
			<rect x="424.03" y="177.95" transform="matrix(6.123234e-17 -1 1 6.123234e-17 246.0791 604.514)" class="st0" width="2.53" height="2.53"/>
		
			<rect x="424.03" y="172.45" transform="matrix(6.123234e-17 -1 1 6.123234e-17 251.5846 599.0085)" class="st0" width="2.53" height="2.53"/>
		
			<rect x="424.03" y="166.94" transform="matrix(6.123234e-17 -1 1 6.123234e-17 257.0901 593.5031)" class="st0" width="2.53" height="2.53"/>
		
			<rect x="429.13" y="271.54" transform="matrix(6.123234e-17 -1 1 6.123234e-17 157.5911 703.2117)" class="st0" width="2.53" height="2.53"/>
		
			<rect x="429.13" y="266.04" transform="matrix(6.123234e-17 -1 1 6.123234e-17 163.0966 697.7063)" class="st0" width="2.53" height="2.53"/>
		
			<rect x="429.13" y="260.53" transform="matrix(6.123234e-17 -1 1 6.123234e-17 168.6021 692.2008)" class="st0" width="2.53" height="2.53"/>
		
			<rect x="429.13" y="255.03" transform="matrix(6.123234e-17 -1 1 6.123234e-17 174.1075 686.6954)" class="st0" width="2.53" height="2.53"/>
		
			<rect x="429.13" y="249.52" transform="matrix(6.123234e-17 -1 1 6.123234e-17 179.613 681.1899)" class="st0" width="2.53" height="2.53"/>
		
			<rect x="429.13" y="244.02" transform="matrix(6.123234e-17 -1 1 6.123234e-17 185.1184 675.6844)" class="st0" width="2.53" height="2.53"/>
		
			<rect x="429.13" y="238.51" transform="matrix(6.123234e-17 -1 1 6.123234e-17 190.6239 670.179)" class="st0" width="2.53" height="2.53"/>
		
			<rect x="429.13" y="233.01" transform="matrix(6.123234e-17 -1 1 6.123234e-17 196.1294 664.6735)" class="st0" width="2.53" height="2.53"/>
		
			<rect x="429.13" y="227.5" transform="matrix(6.123234e-17 -1 1 6.123234e-17 201.6348 659.168)" class="st0" width="2.53" height="2.53"/>
		
			<rect x="429.13" y="221.99" transform="matrix(6.123234e-17 -1 1 6.123234e-17 207.1403 653.6625)" class="st0" width="2.53" height="2.53"/>
		
			<rect x="429.13" y="216.49" transform="matrix(6.123234e-17 -1 1 6.123234e-17 212.6458 648.1571)" class="st0" width="2.53" height="2.53"/>
		
			<rect x="429.13" y="210.98" transform="matrix(6.123234e-17 -1 1 6.123234e-17 218.1512 642.6516)" class="st0" width="2.53" height="2.53"/>
		
			<rect x="429.13" y="205.48" transform="matrix(6.123234e-17 -1 1 6.123234e-17 223.6567 637.1462)" class="st0" width="2.53" height="2.53"/>
		
			<rect x="429.13" y="199.97" transform="matrix(6.123234e-17 -1 1 6.123234e-17 229.1622 631.6407)" class="st0" width="2.53" height="2.53"/>
		
			<rect x="429.13" y="194.47" transform="matrix(6.123234e-17 -1 1 6.123234e-17 234.6676 626.1353)" class="st0" width="2.53" height="2.53"/>
		
			<rect x="429.13" y="188.96" transform="matrix(6.123234e-17 -1 1 6.123234e-17 240.1731 620.6298)" class="st0" width="2.53" height="2.53"/>
		
			<rect x="429.13" y="183.46" transform="matrix(6.123234e-17 -1 1 6.123234e-17 245.6786 615.1243)" class="st0" width="2.53" height="2.53"/>
		
			<rect x="429.13" y="177.95" transform="matrix(6.123234e-17 -1 1 6.123234e-17 251.184 609.6188)" class="st0" width="2.53" height="2.53"/>
		
			<rect x="429.13" y="172.45" transform="matrix(6.123234e-17 -1 1 6.123234e-17 256.6895 604.1134)" class="st0" width="2.53" height="2.53"/>
		
			<rect x="429.13" y="166.94" transform="matrix(6.123234e-17 -1 1 6.123234e-17 262.1949 598.6079)" class="st0" width="2.53" height="2.53"/>
		
			<rect x="424.03" y="161.43" transform="matrix(6.123234e-17 -1 1 6.123234e-17 262.5955 587.9976)" class="st0" width="2.53" height="2.53"/>
		<rect x="423.96" y="150.42" class="st0" width="2.53" height="2.53"/>
		<rect x="423.96" y="155.93" class="st0" width="2.53" height="2.53"/>
		<rect x="429.13" y="150.42" class="st0" width="2.53" height="2.53"/>
		<rect x="429.13" y="155.93" class="st0" width="2.53" height="2.53"/>
		<rect x="429.13" y="161.43" class="st0" width="2.53" height="2.53"/>
		
			<rect x="424.03" y="144.92" transform="matrix(6.123234e-17 -1 1 6.123234e-17 279.1119 571.4811)" class="st0" width="2.53" height="2.53"/>
		
			<rect x="424.03" y="139.41" transform="matrix(6.123234e-17 -1 1 6.123234e-17 284.6174 565.9757)" class="st0" width="2.53" height="2.53"/>
		
			<rect x="424.03" y="133.91" transform="matrix(6.123234e-17 -1 1 6.123234e-17 290.1228 560.4702)" class="st0" width="2.53" height="2.53"/>
		
			<rect x="424.03" y="128.4" transform="matrix(6.123234e-17 -1 1 6.123234e-17 295.6283 554.9648)" class="st0" width="2.53" height="2.53"/>
		
			<rect x="424.03" y="122.9" transform="matrix(6.123234e-17 -1 1 6.123234e-17 301.1338 549.4593)" class="st0" width="2.53" height="2.53"/>
		
			<rect x="424.03" y="117.39" transform="matrix(6.123234e-17 -1 1 6.123234e-17 306.6392 543.9539)" class="st0" width="2.53" height="2.53"/>
		
			<rect x="424.03" y="111.88" transform="matrix(6.123234e-17 -1 1 6.123234e-17 312.1447 538.4484)" class="st0" width="2.53" height="2.53"/>
		
			<rect x="424.03" y="106.38" transform="matrix(6.123234e-17 -1 1 6.123234e-17 317.6502 532.9429)" class="st0" width="2.53" height="2.53"/>
		
			<rect x="424.03" y="100.87" transform="matrix(6.123234e-17 -1 1 6.123234e-17 323.1556 527.4374)" class="st0" width="2.53" height="2.53"/>
		
			<rect x="424.03" y="95.37" transform="matrix(6.123234e-17 -1 1 6.123234e-17 328.6611 521.932)" class="st0" width="2.53" height="2.53"/>
		
			<rect x="424.03" y="89.86" transform="matrix(6.123234e-17 -1 1 6.123234e-17 334.1666 516.4265)" class="st0" width="2.53" height="2.53"/>
		
			<rect x="424.03" y="84.36" transform="matrix(6.123234e-17 -1 1 6.123234e-17 339.672 510.9211)" class="st0" width="2.53" height="2.53"/>
		
			<rect x="424.03" y="78.85" transform="matrix(6.123234e-17 -1 1 6.123234e-17 345.1775 505.4156)" class="st0" width="2.53" height="2.53"/>
		
			<rect x="424.03" y="73.35" transform="matrix(6.123234e-17 -1 1 6.123234e-17 350.683 499.9101)" class="st0" width="2.53" height="2.53"/>
		
			<rect x="424.03" y="67.84" transform="matrix(6.123234e-17 -1 1 6.123234e-17 356.1884 494.4047)" class="st0" width="2.53" height="2.53"/>
		
			<rect x="424.03" y="62.34" transform="matrix(6.123234e-17 -1 1 6.123234e-17 361.6939 488.8992)" class="st0" width="2.53" height="2.53"/>
		
			<rect x="424.03" y="56.83" transform="matrix(6.123234e-17 -1 1 6.123234e-17 367.1993 483.3937)" class="st0" width="2.53" height="2.53"/>
		
			<rect x="424.03" y="51.32" transform="matrix(6.123234e-17 -1 1 6.123234e-17 372.7048 477.8883)" class="st0" width="2.53" height="2.53"/>
		
			<rect x="424.03" y="45.82" transform="matrix(6.123234e-17 -1 1 6.123234e-17 378.2103 472.3828)" class="st0" width="2.53" height="2.53"/>
		
			<rect x="424.03" y="40.31" transform="matrix(6.123234e-17 -1 1 6.123234e-17 383.7157 466.8773)" class="st0" width="2.53" height="2.53"/>
		
			<rect x="429.13" y="144.92" transform="matrix(6.123234e-17 -1 1 6.123234e-17 284.2168 576.5861)" class="st0" width="2.53" height="2.53"/>
		
			<rect x="429.13" y="139.41" transform="matrix(6.123234e-17 -1 1 6.123234e-17 289.7223 571.0806)" class="st0" width="2.53" height="2.53"/>
		
			<rect x="429.13" y="133.91" transform="matrix(6.123234e-17 -1 1 6.123234e-17 295.2277 565.5751)" class="st0" width="2.53" height="2.53"/>
		
			<rect x="429.13" y="128.4" transform="matrix(6.123234e-17 -1 1 6.123234e-17 300.7332 560.0696)" class="st0" width="2.53" height="2.53"/>
		
			<rect x="429.13" y="122.9" transform="matrix(6.123234e-17 -1 1 6.123234e-17 306.2387 554.5642)" class="st0" width="2.53" height="2.53"/>
		
			<rect x="429.13" y="117.39" transform="matrix(6.123234e-17 -1 1 6.123234e-17 311.7441 549.0587)" class="st0" width="2.53" height="2.53"/>
		
			<rect x="429.13" y="111.88" transform="matrix(6.123234e-17 -1 1 6.123234e-17 317.2496 543.5533)" class="st0" width="2.53" height="2.53"/>
		
			<rect x="429.13" y="106.38" transform="matrix(6.123234e-17 -1 1 6.123234e-17 322.7551 538.0478)" class="st0" width="2.53" height="2.53"/>
		
			<rect x="429.13" y="100.87" transform="matrix(6.123234e-17 -1 1 6.123234e-17 328.2605 532.5424)" class="st0" width="2.53" height="2.53"/>
		
			<rect x="429.13" y="95.37" transform="matrix(6.123234e-17 -1 1 6.123234e-17 333.766 527.0369)" class="st0" width="2.53" height="2.53"/>
		
			<rect x="429.13" y="89.86" transform="matrix(6.123234e-17 -1 1 6.123234e-17 339.2715 521.5314)" class="st0" width="2.53" height="2.53"/>
		
			<rect x="429.13" y="84.36" transform="matrix(6.123234e-17 -1 1 6.123234e-17 344.7769 516.0259)" class="st0" width="2.53" height="2.53"/>
		
			<rect x="429.13" y="78.85" transform="matrix(6.123234e-17 -1 1 6.123234e-17 350.2824 510.5205)" class="st0" width="2.53" height="2.53"/>
		
			<rect x="429.13" y="73.35" transform="matrix(6.123234e-17 -1 1 6.123234e-17 355.7878 505.015)" class="st0" width="2.53" height="2.53"/>
		
			<rect x="429.13" y="67.84" transform="matrix(6.123234e-17 -1 1 6.123234e-17 361.2933 499.5096)" class="st0" width="2.53" height="2.53"/>
		
			<rect x="429.13" y="62.34" transform="matrix(6.123234e-17 -1 1 6.123234e-17 366.7988 494.0041)" class="st0" width="2.53" height="2.53"/>
		
			<rect x="429.13" y="56.83" transform="matrix(6.123234e-17 -1 1 6.123234e-17 372.3042 488.4986)" class="st0" width="2.53" height="2.53"/>
		
			<rect x="429.13" y="51.32" transform="matrix(6.123234e-17 -1 1 6.123234e-17 377.8097 482.9932)" class="st0" width="2.53" height="2.53"/>
		
			<rect x="429.13" y="45.82" transform="matrix(6.123234e-17 -1 1 6.123234e-17 383.3152 477.4877)" class="st0" width="2.53" height="2.53"/>
		
			<rect x="429.13" y="40.31" transform="matrix(6.123234e-17 -1 1 6.123234e-17 388.8206 471.9822)" class="st0" width="2.53" height="2.53"/>
		
			<rect x="429.13" y="34.81" transform="matrix(6.123234e-17 -1 1 6.123234e-17 394.3261 466.4768)" class="st0" width="2.53" height="2.53"/>
		
			<rect x="429.13" y="29.3" transform="matrix(6.123234e-17 -1 1 6.123234e-17 399.8316 460.9713)" class="st0" width="2.53" height="2.53"/>
		
			<rect x="424.03" y="34.81" transform="matrix(6.123234e-17 -1 1 6.123234e-17 389.2212 461.3719)" class="st0" width="2.53" height="2.53"/>
		
			<rect x="424.03" y="29.3" transform="matrix(6.123234e-17 -1 1 6.123234e-17 394.7267 455.8664)" class="st0" width="2.53" height="2.53"/>
		<g>
			
				<rect x="424.03" y="39.45" transform="matrix(6.123234e-17 -1 1 6.123234e-17 384.5788 466.0143)" class="st0" width="2.53" height="2.53"/>
			
				<rect x="424.03" y="34.22" transform="matrix(6.123234e-17 -1 1 6.123234e-17 389.8065 460.7866)" class="st0" width="2.53" height="2.53"/>
			
				<rect x="424.03" y="29" transform="matrix(6.123234e-17 -1 1 6.123234e-17 395.0341 455.5589)" class="st0" width="2.53" height="2.53"/>
			
				<rect x="424.03" y="23.77" transform="matrix(6.123234e-17 -1 1 6.123234e-17 400.2618 450.3313)" class="st0" width="2.53" height="2.53"/>
			
				<rect x="424.03" y="18.54" transform="matrix(6.123234e-17 -1 1 6.123234e-17 405.4894 445.1036)" class="st0" width="2.53" height="2.53"/>
			
				<rect x="424.03" y="13.31" transform="matrix(6.123234e-17 -1 1 6.123234e-17 410.7171 439.876)" class="st0" width="2.53" height="2.53"/>
			
				<rect x="429.13" y="39.42" transform="matrix(6.123234e-17 -1 1 6.123234e-17 389.7121 471.0908)" class="st0" width="2.53" height="2.53"/>
			
				<rect x="429.13" y="34.19" transform="matrix(6.123234e-17 -1 1 6.123234e-17 394.9415 465.8614)" class="st0" width="2.53" height="2.53"/>
			
				<rect x="429.13" y="28.96" transform="matrix(6.123234e-17 -1 1 6.123234e-17 400.1709 460.632)" class="st0" width="2.53" height="2.53"/>
			
				<rect x="429.13" y="23.73" transform="matrix(6.123234e-17 -1 1 6.123234e-17 405.4003 455.4025)" class="st0" width="2.53" height="2.53"/>
			
				<rect x="429.13" y="18.5" transform="matrix(6.123234e-17 -1 1 6.123234e-17 410.6298 450.1731)" class="st0" width="2.53" height="2.53"/>
			
				<rect x="429.13" y="13.28" transform="matrix(6.123234e-17 -1 1 6.123234e-17 415.8592 444.9437)" class="st0" width="2.53" height="2.53"/>
			
				<rect x="424.03" y="8.14" transform="matrix(6.123234e-17 -1 1 6.123234e-17 415.8854 434.7076)" class="st0" width="2.53" height="2.53"/>
		</g>
	</g>
</g>
</svg>
