<svg width="889" height="512" viewBox="0 0 889 512" fill="none" xmlns="http://www.w3.org/2000/svg">
<path d="M888.324 0H0V9.10327H888.324V0Z" fill="#231F20"/>
<path d="M888.324 478H0V487.103H888.324V478Z" fill="#231F20"/>
<path d="M16.5449 494.848H11.0873V500.305H16.5449V494.848Z" fill="#231F20"/>
<path d="M27.6543 494.848H22.1966V500.305H27.6543V494.848Z" fill="#231F20"/>
<path d="M38.8067 494.848H33.349V500.305H38.8067V494.848Z" fill="#231F20"/>
<path d="M49.9811 494.848H44.5235V500.305H49.9811V494.848Z" fill="#231F20"/>
<path d="M61.1335 494.848H55.6759V500.305H61.1335V494.848Z" fill="#231F20"/>
<path d="M72.308 494.848H66.8503V500.305H72.308V494.848Z" fill="#231F20"/>
<path d="M83.4814 494.848H78.0238V500.305H83.4814V494.848Z" fill="#231F20"/>
<path d="M94.6348 494.848H89.1771V500.305H94.6348V494.848Z" fill="#231F20"/>
<path d="M105.808 494.848H100.351V500.305H105.808V494.848Z" fill="#231F20"/>
<path d="M116.961 494.848H111.503V500.305H116.961V494.848Z" fill="#231F20"/>
<path d="M128.136 494.848H122.678V500.305H128.136V494.848Z" fill="#231F20"/>
<path d="M139.31 494.848H133.852V500.305H139.31V494.848Z" fill="#231F20"/>
<path d="M150.462 494.848H145.005V500.305H150.462V494.848Z" fill="#231F20"/>
<path d="M161.636 494.848H156.178V500.305H161.636V494.848Z" fill="#231F20"/>
<path d="M172.789 494.848H167.332V500.305H172.789V494.848Z" fill="#231F20"/>
<path d="M183.963 494.848H178.505V500.305H183.963V494.848Z" fill="#231F20"/>
<path d="M195.137 494.848H189.679V500.305H195.137V494.848Z" fill="#231F20"/>
<path d="M206.29 494.848H200.832V500.305H206.29V494.848Z" fill="#231F20"/>
<path d="M217.464 494.848H212.007V500.305H217.464V494.848Z" fill="#231F20"/>
<path d="M228.617 494.848H223.159V500.305H228.617V494.848Z" fill="#231F20"/>
<path d="M239.791 494.848H234.334V500.305H239.791V494.848Z" fill="#231F20"/>
<path d="M250.965 494.848H245.507V500.305H250.965V494.848Z" fill="#231F20"/>
<path d="M262.117 494.848H256.659V500.305H262.117V494.848Z" fill="#231F20"/>
<path d="M273.292 494.848H267.834V500.305H273.292V494.848Z" fill="#231F20"/>
<path d="M284.444 494.848H278.986V500.305H284.444V494.848Z" fill="#231F20"/>
<path d="M295.619 494.848H290.161V500.305H295.619V494.848Z" fill="#231F20"/>
<path d="M306.792 494.848H301.335V500.305H306.792V494.848Z" fill="#231F20"/>
<path d="M317.946 494.848H312.488V500.305H317.946V494.848Z" fill="#231F20"/>
<path d="M329.119 494.848H323.661V500.305H329.119V494.848Z" fill="#231F20"/>
<path d="M340.272 494.848H334.814V500.305H340.272V494.848Z" fill="#231F20"/>
<path d="M351.446 494.848H345.988V500.305H351.446V494.848Z" fill="#231F20"/>
<path d="M362.62 494.848H357.163V500.305H362.62V494.848Z" fill="#231F20"/>
<path d="M373.773 494.848H368.315V500.305H373.773V494.848Z" fill="#231F20"/>
<path d="M384.946 494.848H379.489V500.305H384.946V494.848Z" fill="#231F20"/>
<path d="M396.1 494.848H390.642V500.305H396.1V494.848Z" fill="#231F20"/>
<path d="M407.274 494.848H401.816V500.305H407.274V494.848Z" fill="#231F20"/>
<path d="M418.448 494.848H412.99V500.305H418.448V494.848Z" fill="#231F20"/>
<path d="M429.6 494.848H424.143V500.305H429.6V494.848Z" fill="#231F20"/>
<path d="M440.775 494.848H435.317V500.305H440.775V494.848Z" fill="#231F20"/>
<path d="M451.927 494.848H446.47V500.305H451.927V494.848Z" fill="#231F20"/>
<path d="M27.7194 505.87H22.2617V511.328H27.7194V505.87Z" fill="#231F20"/>
<path d="M38.8287 505.87H33.3711V511.328H38.8287V505.87Z" fill="#231F20"/>
<path d="M49.9811 505.87H44.5235V511.328H49.9811V505.87Z" fill="#231F20"/>
<path d="M61.1555 505.87H55.6979V511.328H61.1555V505.87Z" fill="#231F20"/>
<path d="M72.308 505.87H66.8503V511.328H72.308V505.87Z" fill="#231F20"/>
<path d="M83.4814 505.87H78.0238V511.328H83.4814V505.87Z" fill="#231F20"/>
<path d="M94.6558 505.87H89.1982V511.328H94.6558V505.87Z" fill="#231F20"/>
<path d="M105.808 505.87H100.351V511.328H105.808V505.87Z" fill="#231F20"/>
<path d="M116.983 505.87H111.526V511.328H116.983V505.87Z" fill="#231F20"/>
<path d="M128.136 505.87H122.678V511.328H128.136V505.87Z" fill="#231F20"/>
<path d="M139.31 505.87H133.852V511.328H139.31V505.87Z" fill="#231F20"/>
<path d="M150.483 505.87H145.026V511.328H150.483V505.87Z" fill="#231F20"/>
<path d="M161.636 505.87H156.178V511.328H161.636V505.87Z" fill="#231F20"/>
<path d="M172.81 505.87H167.353V511.328H172.81V505.87Z" fill="#231F20"/>
<path d="M183.963 505.87H178.505V511.328H183.963V505.87Z" fill="#231F20"/>
<path d="M195.137 505.87H189.679V511.328H195.137V505.87Z" fill="#231F20"/>
<path d="M206.29 505.87H200.832V511.328H206.29V505.87Z" fill="#231F20"/>
<path d="M217.464 505.87H212.007V511.328H217.464V505.87Z" fill="#231F20"/>
<path d="M228.638 505.87H223.18V511.328H228.638V505.87Z" fill="#231F20"/>
<path d="M239.791 505.87H234.334V511.328H239.791V505.87Z" fill="#231F20"/>
<path d="M250.965 505.87H245.507V511.328H250.965V505.87Z" fill="#231F20"/>
<path d="M262.117 505.87H256.659V511.328H262.117V505.87Z" fill="#231F20"/>
<path d="M273.292 505.87H267.834V511.328H273.292V505.87Z" fill="#231F20"/>
<path d="M284.466 505.87H279.008V511.328H284.466V505.87Z" fill="#231F20"/>
<path d="M295.619 505.87H290.161V511.328H295.619V505.87Z" fill="#231F20"/>
<path d="M306.792 505.87H301.335V511.328H306.792V505.87Z" fill="#231F20"/>
<path d="M317.946 505.87H312.488V511.328H317.946V505.87Z" fill="#231F20"/>
<path d="M329.119 505.87H323.661V511.328H329.119V505.87Z" fill="#231F20"/>
<path d="M340.294 505.87H334.836V511.328H340.294V505.87Z" fill="#231F20"/>
<path d="M351.446 505.87H345.988V511.328H351.446V505.87Z" fill="#231F20"/>
<path d="M362.62 505.87H357.163V511.328H362.62V505.87Z" fill="#231F20"/>
<path d="M373.773 505.87H368.315V511.328H373.773V505.87Z" fill="#231F20"/>
<path d="M384.946 505.87H379.489V511.328H384.946V505.87Z" fill="#231F20"/>
<path d="M396.121 505.87H390.664V511.328H396.121V505.87Z" fill="#231F20"/>
<path d="M407.274 505.87H401.816V511.328H407.274V505.87Z" fill="#231F20"/>
<path d="M418.448 505.87H412.99V511.328H418.448V505.87Z" fill="#231F20"/>
<path d="M429.6 505.87H424.143V511.328H429.6V505.87Z" fill="#231F20"/>
<path d="M440.775 505.87H435.317V511.328H440.775V505.87Z" fill="#231F20"/>
<path d="M451.948 505.87H446.491V511.328H451.948V505.87Z" fill="#231F20"/>
<path d="M463.102 494.848H457.644V500.305H463.102V494.848Z" fill="#231F20"/>
<path d="M474.275 494.848H468.817V500.305H474.275V494.848Z" fill="#231F20"/>
<path d="M485.427 494.848H479.97V500.305H485.427V494.848Z" fill="#231F20"/>
<path d="M496.602 494.848H491.145V500.305H496.602V494.848Z" fill="#231F20"/>
<path d="M507.755 494.848H502.297V500.305H507.755V494.848Z" fill="#231F20"/>
<path d="M518.929 494.848H513.472V500.305H518.929V494.848Z" fill="#231F20"/>
<path d="M530.103 494.848H524.645V500.305H530.103V494.848Z" fill="#231F20"/>
<path d="M541.256 494.848H535.798V500.305H541.256V494.848Z" fill="#231F20"/>
<path d="M552.43 494.848H546.972V500.305H552.43V494.848Z" fill="#231F20"/>
<path d="M563.582 494.848H558.124V500.305H563.582V494.848Z" fill="#231F20"/>
<path d="M574.756 494.848H569.299V500.305H574.756V494.848Z" fill="#231F20"/>
<path d="M585.931 494.848H580.474V500.305H585.931V494.848Z" fill="#231F20"/>
<path d="M597.084 494.848H591.626V500.305H597.084V494.848Z" fill="#231F20"/>
<path d="M608.257 494.848H602.799V500.305H608.257V494.848Z" fill="#231F20"/>
<path d="M619.41 494.848H613.953V500.305H619.41V494.848Z" fill="#231F20"/>
<path d="M630.584 494.848H625.126V500.305H630.584V494.848Z" fill="#231F20"/>
<path d="M641.758 494.848H636.301V500.305H641.758V494.848Z" fill="#231F20"/>
<path d="M652.911 494.848H647.453V500.305H652.911V494.848Z" fill="#231F20"/>
<path d="M664.085 494.848H658.628V500.305H664.085V494.848Z" fill="#231F20"/>
<path d="M675.238 494.848H669.78V500.305H675.238V494.848Z" fill="#231F20"/>
<path d="M686.411 494.848H680.954V500.305H686.411V494.848Z" fill="#231F20"/>
<path d="M697.586 494.848H692.128V500.305H697.586V494.848Z" fill="#231F20"/>
<path d="M708.738 494.848H703.281V500.305H708.738V494.848Z" fill="#231F20"/>
<path d="M719.913 494.848H714.455V500.305H719.913V494.848Z" fill="#231F20"/>
<path d="M731.065 494.848H725.608V500.305H731.065V494.848Z" fill="#231F20"/>
<path d="M742.24 494.848H736.782V500.305H742.24V494.848Z" fill="#231F20"/>
<path d="M753.413 494.848H747.955V500.305H753.413V494.848Z" fill="#231F20"/>
<path d="M764.567 494.848H759.109V500.305H764.567V494.848Z" fill="#231F20"/>
<path d="M775.74 494.848H770.282V500.305H775.74V494.848Z" fill="#231F20"/>
<path d="M786.893 494.848H781.435V500.305H786.893V494.848Z" fill="#231F20"/>
<path d="M798.067 494.848H792.61V500.305H798.067V494.848Z" fill="#231F20"/>
<path d="M809.242 494.848H803.784V500.305H809.242V494.848Z" fill="#231F20"/>
<path d="M820.394 494.848H814.936V500.305H820.394V494.848Z" fill="#231F20"/>
<path d="M831.568 494.848H826.11V500.305H831.568V494.848Z" fill="#231F20"/>
<path d="M842.72 494.848H837.262V500.305H842.72V494.848Z" fill="#231F20"/>
<path d="M853.895 494.848H848.437V500.305H853.895V494.848Z" fill="#231F20"/>
<path d="M865.069 494.848H859.611V500.305H865.069V494.848Z" fill="#231F20"/>
<path d="M876.221 494.848H870.764V500.305H876.221V494.848Z" fill="#231F20"/>
<path d="M887.396 494.848H881.938V500.305H887.396V494.848Z" fill="#231F20"/>
<path d="M463.102 505.87H457.644V511.328H463.102V505.87Z" fill="#231F20"/>
<path d="M474.275 505.87H468.817V511.328H474.275V505.87Z" fill="#231F20"/>
<path d="M485.427 505.87H479.97V511.328H485.427V505.87Z" fill="#231F20"/>
<path d="M496.602 505.87H491.145V511.328H496.602V505.87Z" fill="#231F20"/>
<path d="M507.777 505.87H502.319V511.328H507.777V505.87Z" fill="#231F20"/>
<path d="M518.929 505.87H513.472V511.328H518.929V505.87Z" fill="#231F20"/>
<path d="M530.103 505.87H524.645V511.328H530.103V505.87Z" fill="#231F20"/>
<path d="M541.256 505.87H535.798V511.328H541.256V505.87Z" fill="#231F20"/>
<path d="M552.43 505.87H546.972V511.328H552.43V505.87Z" fill="#231F20"/>
<path d="M563.582 505.87H558.124V511.328H563.582V505.87Z" fill="#231F20"/>
<path d="M574.756 505.87H569.299V511.328H574.756V505.87Z" fill="#231F20"/>
<path d="M585.931 505.87H580.474V511.328H585.931V505.87Z" fill="#231F20"/>
<path d="M597.084 505.87H591.626V511.328H597.084V505.87Z" fill="#231F20"/>
<path d="M608.257 505.87H602.799V511.328H608.257V505.87Z" fill="#231F20"/>
<path d="M619.41 505.87H613.953V511.328H619.41V505.87Z" fill="#231F20"/>
<path d="M630.584 505.87H625.126V511.328H630.584V505.87Z" fill="#231F20"/>
<path d="M641.758 505.87H636.301V511.328H641.758V505.87Z" fill="#231F20"/>
<path d="M652.911 505.87H647.453V511.328H652.911V505.87Z" fill="#231F20"/>
<path d="M664.085 505.87H658.628V511.328H664.085V505.87Z" fill="#231F20"/>
<path d="M675.238 505.87H669.78V511.328H675.238V505.87Z" fill="#231F20"/>
<path d="M686.411 505.87H680.954V511.328H686.411V505.87Z" fill="#231F20"/>
<path d="M697.586 505.87H692.128V511.328H697.586V505.87Z" fill="#231F20"/>
<path d="M708.738 505.87H703.281V511.328H708.738V505.87Z" fill="#231F20"/>
<path d="M719.913 505.87H714.455V511.328H719.913V505.87Z" fill="#231F20"/>
<path d="M731.065 505.87H725.608V511.328H731.065V505.87Z" fill="#231F20"/>
<path d="M742.24 505.87H736.782V511.328H742.24V505.87Z" fill="#231F20"/>
<path d="M753.413 505.87H747.955V511.328H753.413V505.87Z" fill="#231F20"/>
<path d="M764.567 505.87H759.109V511.328H764.567V505.87Z" fill="#231F20"/>
<path d="M775.74 505.87H770.282V511.328H775.74V505.87Z" fill="#231F20"/>
<path d="M786.893 505.87H781.435V511.328H786.893V505.87Z" fill="#231F20"/>
<path d="M798.067 505.87H792.61V511.328H798.067V505.87Z" fill="#231F20"/>
<path d="M809.242 505.87H803.784V511.328H809.242V505.87Z" fill="#231F20"/>
<path d="M820.394 505.87H814.936V511.328H820.394V505.87Z" fill="#231F20"/>
<path d="M831.568 505.87H826.11V511.328H831.568V505.87Z" fill="#231F20"/>
<path d="M842.72 505.87H837.262V511.328H842.72V505.87Z" fill="#231F20"/>
<path d="M853.895 505.87H848.437V511.328H853.895V505.87Z" fill="#231F20"/>
<path d="M865.069 505.87H859.611V511.328H865.069V505.87Z" fill="#231F20"/>
<path d="M876.221 505.87H870.764V511.328H876.221V505.87Z" fill="#231F20"/>
</svg>
