<?xml version="1.0" encoding="utf-8"?>
<!-- Generator: Adobe Illustrator 25.3.1, SVG Export Plug-In . SVG Version: 6.00 Build 0)  -->
<svg version="1.1" id="Layer_1" xmlns="http://www.w3.org/2000/svg" xmlns:xlink="http://www.w3.org/1999/xlink" x="0px" y="0px"
	 viewBox="0 0 432.85 126.74" style="enable-background:new 0 0 432.85 126.74;" xml:space="preserve">
<style type="text/css">
	.st0{fill:#231F20;}
</style>
<g>
	<g>
		<rect x="1.73" y="4.22" class="st0" width="4.22" height="107.56"/>
		<polyline class="st0" points="421.97,116.01 421.97,4.22 417.75,4.22 417.75,111.79 5.95,111.79 5.95,116.01 10.18,116.01 		"/>
		<rect x="5.95" class="st0" width="411.8" height="4.22"/>
	</g>
	<g>
		<rect x="11.09" y="119.1" class="st0" width="2.53" height="2.53"/>
		<rect x="16.24" y="119.1" class="st0" width="2.53" height="2.53"/>
		<rect x="21.41" y="119.1" class="st0" width="2.53" height="2.53"/>
		<rect x="26.59" y="119.1" class="st0" width="2.53" height="2.53"/>
		<rect x="31.76" y="119.1" class="st0" width="2.53" height="2.53"/>
		<rect x="36.94" y="119.1" class="st0" width="2.53" height="2.53"/>
		<rect x="42.12" y="119.1" class="st0" width="2.53" height="2.53"/>
		<rect x="47.29" y="119.1" class="st0" width="2.53" height="2.53"/>
		<rect x="52.47" y="119.1" class="st0" width="2.53" height="2.53"/>
		<rect x="57.64" y="119.1" class="st0" width="2.53" height="2.53"/>
		<rect x="62.82" y="119.1" class="st0" width="2.53" height="2.53"/>
		<rect x="68" y="119.1" class="st0" width="2.53" height="2.53"/>
		<rect x="73.17" y="119.1" class="st0" width="2.53" height="2.53"/>
		<rect x="78.35" y="119.1" class="st0" width="2.53" height="2.53"/>
		<rect x="83.52" y="119.1" class="st0" width="2.53" height="2.53"/>
		<rect x="88.7" y="119.1" class="st0" width="2.53" height="2.53"/>
		<rect x="93.88" y="119.1" class="st0" width="2.53" height="2.53"/>
		<rect x="99.05" y="119.1" class="st0" width="2.53" height="2.53"/>
		<rect x="104.23" y="119.1" class="st0" width="2.53" height="2.53"/>
		<rect x="109.4" y="119.1" class="st0" width="2.53" height="2.53"/>
		<rect x="114.58" y="119.1" class="st0" width="2.53" height="2.53"/>
		<rect x="119.76" y="119.1" class="st0" width="2.53" height="2.53"/>
		<rect x="124.93" y="119.1" class="st0" width="2.53" height="2.53"/>
		<rect x="130.11" y="119.1" class="st0" width="2.53" height="2.53"/>
		<rect x="135.28" y="119.1" class="st0" width="2.53" height="2.53"/>
		<rect x="140.46" y="119.1" class="st0" width="2.53" height="2.53"/>
		<rect x="145.64" y="119.1" class="st0" width="2.53" height="2.53"/>
		<rect x="150.81" y="119.1" class="st0" width="2.53" height="2.53"/>
		<rect x="155.99" y="119.1" class="st0" width="2.53" height="2.53"/>
		<rect x="161.16" y="119.1" class="st0" width="2.53" height="2.53"/>
		<rect x="166.34" y="119.1" class="st0" width="2.53" height="2.53"/>
		<rect x="171.52" y="119.1" class="st0" width="2.53" height="2.53"/>
		<rect x="176.69" y="119.1" class="st0" width="2.53" height="2.53"/>
		<rect x="181.87" y="119.1" class="st0" width="2.53" height="2.53"/>
		<rect x="187.04" y="119.1" class="st0" width="2.53" height="2.53"/>
		<rect x="192.22" y="119.1" class="st0" width="2.53" height="2.53"/>
		<rect x="197.4" y="119.1" class="st0" width="2.53" height="2.53"/>
		<rect x="202.57" y="119.1" class="st0" width="2.53" height="2.53"/>
		<rect x="207.75" y="119.1" class="st0" width="2.53" height="2.53"/>
		<rect x="212.92" y="119.1" class="st0" width="2.53" height="2.53"/>
		<rect x="16.27" y="124.21" class="st0" width="2.53" height="2.53"/>
		<rect x="21.42" y="124.21" class="st0" width="2.53" height="2.53"/>
		<rect x="26.59" y="124.21" class="st0" width="2.53" height="2.53"/>
		<rect x="31.77" y="124.21" class="st0" width="2.53" height="2.53"/>
		<rect x="36.94" y="124.21" class="st0" width="2.53" height="2.53"/>
		<rect x="42.12" y="124.21" class="st0" width="2.53" height="2.53"/>
		<rect x="47.3" y="124.21" class="st0" width="2.53" height="2.53"/>
		<rect x="52.47" y="124.21" class="st0" width="2.53" height="2.53"/>
		<rect x="57.65" y="124.21" class="st0" width="2.53" height="2.53"/>
		<rect x="62.82" y="124.21" class="st0" width="2.53" height="2.53"/>
		<rect x="68" y="124.21" class="st0" width="2.53" height="2.53"/>
		<rect x="73.18" y="124.21" class="st0" width="2.53" height="2.53"/>
		<rect x="78.35" y="124.21" class="st0" width="2.53" height="2.53"/>
		<rect x="83.53" y="124.21" class="st0" width="2.53" height="2.53"/>
		<rect x="88.7" y="124.21" class="st0" width="2.53" height="2.53"/>
		<rect x="93.88" y="124.21" class="st0" width="2.53" height="2.53"/>
		<rect x="99.05" y="124.21" class="st0" width="2.53" height="2.53"/>
		<rect x="104.23" y="124.21" class="st0" width="2.53" height="2.53"/>
		<rect x="109.41" y="124.21" class="st0" width="2.53" height="2.53"/>
		<rect x="114.58" y="124.21" class="st0" width="2.53" height="2.53"/>
		<rect x="119.76" y="124.21" class="st0" width="2.53" height="2.53"/>
		<rect x="124.93" y="124.21" class="st0" width="2.53" height="2.53"/>
		<rect x="130.11" y="124.21" class="st0" width="2.53" height="2.53"/>
		<rect x="135.29" y="124.21" class="st0" width="2.53" height="2.53"/>
		<rect x="140.46" y="124.21" class="st0" width="2.53" height="2.53"/>
		<rect x="145.64" y="124.21" class="st0" width="2.53" height="2.53"/>
		<rect x="150.81" y="124.21" class="st0" width="2.53" height="2.53"/>
		<rect x="155.99" y="124.21" class="st0" width="2.53" height="2.53"/>
		<rect x="161.17" y="124.21" class="st0" width="2.53" height="2.53"/>
		<rect x="166.34" y="124.21" class="st0" width="2.53" height="2.53"/>
		<rect x="171.52" y="124.21" class="st0" width="2.53" height="2.53"/>
		<rect x="176.69" y="124.21" class="st0" width="2.53" height="2.53"/>
		<rect x="181.87" y="124.21" class="st0" width="2.53" height="2.53"/>
		<rect x="187.05" y="124.21" class="st0" width="2.53" height="2.53"/>
		<rect x="192.22" y="124.21" class="st0" width="2.53" height="2.53"/>
		<rect x="197.4" y="124.21" class="st0" width="2.53" height="2.53"/>
		<rect x="202.57" y="124.21" class="st0" width="2.53" height="2.53"/>
		<rect x="207.75" y="124.21" class="st0" width="2.53" height="2.53"/>
		<rect x="212.93" y="124.21" class="st0" width="2.53" height="2.53"/>
		<rect x="218.1" y="119.1" class="st0" width="2.53" height="2.53"/>
		<rect x="223.28" y="119.1" class="st0" width="2.53" height="2.53"/>
		<rect x="228.45" y="119.1" class="st0" width="2.53" height="2.53"/>
		<rect x="233.63" y="119.1" class="st0" width="2.53" height="2.53"/>
		<rect x="238.8" y="119.1" class="st0" width="2.53" height="2.53"/>
		<rect x="243.98" y="119.1" class="st0" width="2.53" height="2.53"/>
		<rect x="249.16" y="119.1" class="st0" width="2.53" height="2.53"/>
		<rect x="254.33" y="119.1" class="st0" width="2.53" height="2.53"/>
		<rect x="259.51" y="119.1" class="st0" width="2.53" height="2.53"/>
		<rect x="264.68" y="119.1" class="st0" width="2.53" height="2.53"/>
		<rect x="269.86" y="119.1" class="st0" width="2.53" height="2.53"/>
		<rect x="275.04" y="119.1" class="st0" width="2.53" height="2.53"/>
		<rect x="280.21" y="119.1" class="st0" width="2.53" height="2.53"/>
		<rect x="285.39" y="119.1" class="st0" width="2.53" height="2.53"/>
		<rect x="290.56" y="119.1" class="st0" width="2.53" height="2.53"/>
		<rect x="295.74" y="119.1" class="st0" width="2.53" height="2.53"/>
		<rect x="300.92" y="119.1" class="st0" width="2.53" height="2.53"/>
		<rect x="306.09" y="119.1" class="st0" width="2.53" height="2.53"/>
		<rect x="311.27" y="119.1" class="st0" width="2.53" height="2.53"/>
		<rect x="316.44" y="119.1" class="st0" width="2.53" height="2.53"/>
		<rect x="321.62" y="119.1" class="st0" width="2.53" height="2.53"/>
		<rect x="326.8" y="119.1" class="st0" width="2.53" height="2.53"/>
		<rect x="331.97" y="119.1" class="st0" width="2.53" height="2.53"/>
		<rect x="337.15" y="119.1" class="st0" width="2.53" height="2.53"/>
		<rect x="342.32" y="119.1" class="st0" width="2.53" height="2.53"/>
		<rect x="347.5" y="119.1" class="st0" width="2.53" height="2.53"/>
		<rect x="352.68" y="119.1" class="st0" width="2.53" height="2.53"/>
		<rect x="357.85" y="119.1" class="st0" width="2.53" height="2.53"/>
		<rect x="363.03" y="119.1" class="st0" width="2.53" height="2.53"/>
		<rect x="368.2" y="119.1" class="st0" width="2.53" height="2.53"/>
		<rect x="373.38" y="119.1" class="st0" width="2.53" height="2.53"/>
		<rect x="378.56" y="119.1" class="st0" width="2.53" height="2.53"/>
		<rect x="383.73" y="119.1" class="st0" width="2.53" height="2.53"/>
		<rect x="388.91" y="119.1" class="st0" width="2.53" height="2.53"/>
		<rect x="394.08" y="119.1" class="st0" width="2.53" height="2.53"/>
		<rect x="399.26" y="119.1" class="st0" width="2.53" height="2.53"/>
		<rect x="404.44" y="119.1" class="st0" width="2.53" height="2.53"/>
		<rect x="409.61" y="119.1" class="st0" width="2.53" height="2.53"/>
		<rect x="414.79" y="119.1" class="st0" width="2.53" height="2.53"/>
		<rect x="419.96" y="119.1" class="st0" width="2.53" height="2.53"/>
		<rect x="425.14" y="118.98" class="st0" width="2.53" height="2.53"/>
		<rect x="218.1" y="124.21" class="st0" width="2.53" height="2.53"/>
		<rect x="223.28" y="124.21" class="st0" width="2.53" height="2.53"/>
		<rect x="228.45" y="124.21" class="st0" width="2.53" height="2.53"/>
		<rect x="233.63" y="124.21" class="st0" width="2.53" height="2.53"/>
		<rect x="238.81" y="124.21" class="st0" width="2.53" height="2.53"/>
		<rect x="243.98" y="124.21" class="st0" width="2.53" height="2.53"/>
		<rect x="249.16" y="124.21" class="st0" width="2.53" height="2.53"/>
		<rect x="254.33" y="124.21" class="st0" width="2.53" height="2.53"/>
		<rect x="259.51" y="124.21" class="st0" width="2.53" height="2.53"/>
		<rect x="264.68" y="124.21" class="st0" width="2.53" height="2.53"/>
		<rect x="269.86" y="124.21" class="st0" width="2.53" height="2.53"/>
		<rect x="275.04" y="124.21" class="st0" width="2.53" height="2.53"/>
		<rect x="280.21" y="124.21" class="st0" width="2.53" height="2.53"/>
		<rect x="285.39" y="124.21" class="st0" width="2.53" height="2.53"/>
		<rect x="290.56" y="124.21" class="st0" width="2.53" height="2.53"/>
		<rect x="295.74" y="124.21" class="st0" width="2.53" height="2.53"/>
		<rect x="300.92" y="124.21" class="st0" width="2.53" height="2.53"/>
		<rect x="306.09" y="124.21" class="st0" width="2.53" height="2.53"/>
		<rect x="311.27" y="124.21" class="st0" width="2.53" height="2.53"/>
		<rect x="316.44" y="124.21" class="st0" width="2.53" height="2.53"/>
		<rect x="321.62" y="124.21" class="st0" width="2.53" height="2.53"/>
		<rect x="326.8" y="124.21" class="st0" width="2.53" height="2.53"/>
		<rect x="331.97" y="124.21" class="st0" width="2.53" height="2.53"/>
		<rect x="337.15" y="124.21" class="st0" width="2.53" height="2.53"/>
		<rect x="342.32" y="124.21" class="st0" width="2.53" height="2.53"/>
		<rect x="347.5" y="124.21" class="st0" width="2.53" height="2.53"/>
		<rect x="352.68" y="124.21" class="st0" width="2.53" height="2.53"/>
		<rect x="357.85" y="124.21" class="st0" width="2.53" height="2.53"/>
		<rect x="363.03" y="124.21" class="st0" width="2.53" height="2.53"/>
		<rect x="368.2" y="124.21" class="st0" width="2.53" height="2.53"/>
		<rect x="373.38" y="124.21" class="st0" width="2.53" height="2.53"/>
		<rect x="378.56" y="124.21" class="st0" width="2.53" height="2.53"/>
		<rect x="383.73" y="124.21" class="st0" width="2.53" height="2.53"/>
		<rect x="388.91" y="124.21" class="st0" width="2.53" height="2.53"/>
		<rect x="394.08" y="124.21" class="st0" width="2.53" height="2.53"/>
		<rect x="399.26" y="124.21" class="st0" width="2.53" height="2.53"/>
		<rect x="404.44" y="124.21" class="st0" width="2.53" height="2.53"/>
		<rect x="409.61" y="124.21" class="st0" width="2.53" height="2.53"/>
		<rect x="414.79" y="124.21" class="st0" width="2.53" height="2.53"/>
		<rect x="419.96" y="124.21" class="st0" width="2.53" height="2.53"/>
		<rect x="425.14" y="124.21" class="st0" width="2.53" height="2.53"/>
		<rect x="430.32" y="118.98" class="st0" width="2.53" height="2.53"/>
		<rect x="430.32" y="124.21" class="st0" width="2.53" height="2.53"/>
		
			<rect x="425.21" y="113.75" transform="matrix(6.123234e-17 -1 1 6.123234e-17 311.4559 541.4985)" class="st0" width="2.53" height="2.53"/>
		
			<rect x="425.21" y="108.53" transform="matrix(6.123234e-17 -1 1 6.123234e-17 316.6835 536.2709)" class="st0" width="2.53" height="2.53"/>
		
			<rect x="425.21" y="103.3" transform="matrix(6.123234e-17 -1 1 6.123234e-17 321.9112 531.0432)" class="st0" width="2.53" height="2.53"/>
		
			<rect x="425.21" y="98.07" transform="matrix(6.123234e-17 -1 1 6.123234e-17 327.1388 525.8156)" class="st0" width="2.53" height="2.53"/>
		
			<rect x="425.21" y="92.84" transform="matrix(6.123234e-17 -1 1 6.123234e-17 332.3665 520.5879)" class="st0" width="2.53" height="2.53"/>
		
			<rect x="425.21" y="87.62" transform="matrix(6.123234e-17 -1 1 6.123234e-17 337.5941 515.3602)" class="st0" width="2.53" height="2.53"/>
		
			<rect x="425.21" y="82.39" transform="matrix(6.123234e-17 -1 1 6.123234e-17 342.8218 510.1326)" class="st0" width="2.53" height="2.53"/>
		
			<rect x="425.21" y="77.16" transform="matrix(6.123234e-17 -1 1 6.123234e-17 348.0494 504.9049)" class="st0" width="2.53" height="2.53"/>
		
			<rect x="425.21" y="71.93" transform="matrix(6.123234e-17 -1 1 6.123234e-17 353.2771 499.6773)" class="st0" width="2.53" height="2.53"/>
		
			<rect x="425.21" y="66.71" transform="matrix(6.123234e-17 -1 1 6.123234e-17 358.5047 494.4496)" class="st0" width="2.53" height="2.53"/>
		
			<rect x="425.21" y="61.48" transform="matrix(6.123234e-17 -1 1 6.123234e-17 363.7324 489.222)" class="st0" width="2.53" height="2.53"/>
		
			<rect x="425.21" y="56.25" transform="matrix(6.123234e-17 -1 1 6.123234e-17 368.96 483.9943)" class="st0" width="2.53" height="2.53"/>
		
			<rect x="425.21" y="51.02" transform="matrix(6.123234e-17 -1 1 6.123234e-17 374.1877 478.7667)" class="st0" width="2.53" height="2.53"/>
		
			<rect x="425.21" y="45.79" transform="matrix(6.123234e-17 -1 1 6.123234e-17 379.4153 473.539)" class="st0" width="2.53" height="2.53"/>
		
			<rect x="425.21" y="40.57" transform="matrix(6.123234e-17 -1 1 6.123234e-17 384.643 468.3114)" class="st0" width="2.53" height="2.53"/>
		
			<rect x="425.21" y="35.34" transform="matrix(6.123234e-17 -1 1 6.123234e-17 389.8706 463.0837)" class="st0" width="2.53" height="2.53"/>
		
			<rect x="425.21" y="30.11" transform="matrix(6.123234e-17 -1 1 6.123234e-17 395.0983 457.8561)" class="st0" width="2.53" height="2.53"/>
		
			<rect x="425.21" y="24.88" transform="matrix(6.123234e-17 -1 1 6.123234e-17 400.3259 452.6284)" class="st0" width="2.53" height="2.53"/>
		
			<rect x="425.21" y="19.66" transform="matrix(6.123234e-17 -1 1 6.123234e-17 405.5536 447.4008)" class="st0" width="2.53" height="2.53"/>
		
			<rect x="425.21" y="14.43" transform="matrix(6.123234e-17 -1 1 6.123234e-17 410.7812 442.1731)" class="st0" width="2.53" height="2.53"/>
		
			<rect x="430.32" y="113.75" transform="matrix(6.123234e-17 -1 1 6.123234e-17 316.5643 546.5999)" class="st0" width="2.53" height="2.53"/>
		
			<rect x="430.32" y="108.52" transform="matrix(6.123234e-17 -1 1 6.123234e-17 321.7937 541.3704)" class="st0" width="2.53" height="2.53"/>
		
			<rect x="430.32" y="103.29" transform="matrix(6.123234e-17 -1 1 6.123234e-17 327.0231 536.141)" class="st0" width="2.53" height="2.53"/>
		
			<rect x="430.32" y="98.06" transform="matrix(6.123234e-17 -1 1 6.123234e-17 332.2526 530.9116)" class="st0" width="2.53" height="2.53"/>
		
			<rect x="430.32" y="92.83" transform="matrix(6.123234e-17 -1 1 6.123234e-17 337.482 525.6821)" class="st0" width="2.53" height="2.53"/>
		
			<rect x="430.32" y="87.6" transform="matrix(6.123234e-17 -1 1 6.123234e-17 342.7114 520.4528)" class="st0" width="2.53" height="2.53"/>
		
			<rect x="430.32" y="82.37" transform="matrix(6.123234e-17 -1 1 6.123234e-17 347.9408 515.2233)" class="st0" width="2.53" height="2.53"/>
		
			<rect x="430.32" y="77.14" transform="matrix(6.123234e-17 -1 1 6.123234e-17 353.1703 509.9939)" class="st0" width="2.53" height="2.53"/>
		
			<rect x="430.32" y="71.92" transform="matrix(6.123234e-17 -1 1 6.123234e-17 358.3997 504.7645)" class="st0" width="2.53" height="2.53"/>
		
			<rect x="430.32" y="66.69" transform="matrix(6.123234e-17 -1 1 6.123234e-17 363.6291 499.535)" class="st0" width="2.53" height="2.53"/>
		
			<rect x="430.32" y="61.46" transform="matrix(6.123234e-17 -1 1 6.123234e-17 368.8585 494.3056)" class="st0" width="2.53" height="2.53"/>
		
			<rect x="430.32" y="56.23" transform="matrix(6.123234e-17 -1 1 6.123234e-17 374.088 489.0762)" class="st0" width="2.53" height="2.53"/>
		
			<rect x="430.32" y="51" transform="matrix(6.123234e-17 -1 1 6.123234e-17 379.3174 483.8468)" class="st0" width="2.53" height="2.53"/>
		
			<rect x="430.32" y="45.77" transform="matrix(6.123234e-17 -1 1 6.123234e-17 384.5468 478.6173)" class="st0" width="2.53" height="2.53"/>
		
			<rect x="430.32" y="40.54" transform="matrix(6.123234e-17 -1 1 6.123234e-17 389.7762 473.3879)" class="st0" width="2.53" height="2.53"/>
		
			<rect x="430.32" y="35.31" transform="matrix(6.123234e-17 -1 1 6.123234e-17 395.0056 468.1585)" class="st0" width="2.53" height="2.53"/>
		
			<rect x="430.32" y="30.08" transform="matrix(6.123234e-17 -1 1 6.123234e-17 400.2351 462.9291)" class="st0" width="2.53" height="2.53"/>
		
			<rect x="430.32" y="24.85" transform="matrix(6.123234e-17 -1 1 6.123234e-17 405.4645 457.6996)" class="st0" width="2.53" height="2.53"/>
		
			<rect x="430.32" y="19.62" transform="matrix(6.123234e-17 -1 1 6.123234e-17 410.6939 452.4702)" class="st0" width="2.53" height="2.53"/>
		
			<rect x="430.32" y="14.39" transform="matrix(6.123234e-17 -1 1 6.123234e-17 415.9233 447.2408)" class="st0" width="2.53" height="2.53"/>
		
			<rect x="425.21" y="9.26" transform="matrix(6.123234e-17 -1 1 6.123234e-17 415.9496 437.0048)" class="st0" width="2.53" height="2.53"/>
	</g>
</g>
</svg>
