<?xml version="1.0" encoding="utf-8"?>
<!-- Generator: Adobe Illustrator 25.3.1, SVG Export Plug-In . SVG Version: 6.00 Build 0)  -->
<svg version="1.1" id="text-description-M" class='text-description' xmlns="http://www.w3.org/2000/svg" xmlns:xlink="http://www.w3.org/1999/xlink" x="0px" y="0px"
	 viewBox="0 0 431.62 235.52" style="enable-background:new 0 0 431.62 235.52;" xml:space="preserve">
<style type="text/css">
	.text-description-M{fill:#231F20;}
</style>
<g>
	<rect y="4.22" class="text-description-M" width="4.22" height="215.99"/>
	<polyline class="text-description-M" points="420.24,224.44 420.24,4.22 416.02,4.22 416.02,220.21 4.22,220.21 4.22,224.44 8.45,224.44 	"/>
	<rect x="4.22" class="text-description-M" width="411.8" height="4.22"/>
</g>
<g>
	<rect x="9.87" y="227.88" class="text-description-M" width="2.53" height="2.53"/>
	<rect x="15.01" y="227.88" class="text-description-M" width="2.53" height="2.53"/>
	<rect x="20.19" y="227.88" class="text-description-M" width="2.53" height="2.53"/>
	<rect x="25.37" y="227.88" class="text-description-M" width="2.53" height="2.53"/>
	<rect x="30.54" y="227.88" class="text-description-M" width="2.53" height="2.53"/>
	<rect x="35.72" y="227.88" class="text-description-M" width="2.53" height="2.53"/>
	<rect x="40.89" y="227.88" class="text-description-M" width="2.53" height="2.53"/>
	<rect x="46.07" y="227.88" class="text-description-M" width="2.53" height="2.53"/>
	<rect x="51.25" y="227.88" class="text-description-M" width="2.53" height="2.53"/>
	<rect x="56.42" y="227.88" class="text-description-M" width="2.53" height="2.53"/>
	<rect x="61.6" y="227.88" class="text-description-M" width="2.53" height="2.53"/>
	<rect x="66.77" y="227.88" class="text-description-M" width="2.53" height="2.53"/>
	<rect x="71.95" y="227.88" class="text-description-M" width="2.53" height="2.53"/>
	<rect x="77.13" y="227.88" class="text-description-M" width="2.53" height="2.53"/>
	<rect x="82.3" y="227.88" class="text-description-M" width="2.53" height="2.53"/>
	<rect x="87.48" y="227.88" class="text-description-M" width="2.53" height="2.53"/>
	<rect x="92.65" y="227.88" class="text-description-M" width="2.53" height="2.53"/>
	<rect x="97.83" y="227.88" class="text-description-M" width="2.53" height="2.53"/>
	<rect x="103.01" y="227.88" class="text-description-M" width="2.53" height="2.53"/>
	<rect x="108.18" y="227.88" class="text-description-M" width="2.53" height="2.53"/>
	<rect x="113.36" y="227.88" class="text-description-M" width="2.53" height="2.53"/>
	<rect x="118.53" y="227.88" class="text-description-M" width="2.53" height="2.53"/>
	<rect x="123.71" y="227.88" class="text-description-M" width="2.53" height="2.53"/>
	<rect x="128.89" y="227.88" class="text-description-M" width="2.53" height="2.53"/>
	<rect x="134.06" y="227.88" class="text-description-M" width="2.53" height="2.53"/>
	<rect x="139.24" y="227.88" class="text-description-M" width="2.53" height="2.53"/>
	<rect x="144.41" y="227.88" class="text-description-M" width="2.53" height="2.53"/>
	<rect x="149.59" y="227.88" class="text-description-M" width="2.53" height="2.53"/>
	<rect x="154.77" y="227.88" class="text-description-M" width="2.53" height="2.53"/>
	<rect x="159.94" y="227.88" class="text-description-M" width="2.53" height="2.53"/>
	<rect x="165.12" y="227.88" class="text-description-M" width="2.53" height="2.53"/>
	<rect x="170.29" y="227.88" class="text-description-M" width="2.53" height="2.53"/>
	<rect x="175.47" y="227.88" class="text-description-M" width="2.53" height="2.53"/>
	<rect x="180.65" y="227.88" class="text-description-M" width="2.53" height="2.53"/>
	<rect x="185.82" y="227.88" class="text-description-M" width="2.53" height="2.53"/>
	<rect x="191" y="227.88" class="text-description-M" width="2.53" height="2.53"/>
	<rect x="196.17" y="227.88" class="text-description-M" width="2.53" height="2.53"/>
	<rect x="201.35" y="227.88" class="text-description-M" width="2.53" height="2.53"/>
	<rect x="206.53" y="227.88" class="text-description-M" width="2.53" height="2.53"/>
	<rect x="211.7" y="227.88" class="text-description-M" width="2.53" height="2.53"/>
	<rect x="15.05" y="232.99" class="text-description-M" width="2.53" height="2.53"/>
	<rect x="20.19" y="232.99" class="text-description-M" width="2.53" height="2.53"/>
	<rect x="25.37" y="232.99" class="text-description-M" width="2.53" height="2.53"/>
	<rect x="30.55" y="232.99" class="text-description-M" width="2.53" height="2.53"/>
	<rect x="35.72" y="232.99" class="text-description-M" width="2.53" height="2.53"/>
	<rect x="40.9" y="232.99" class="text-description-M" width="2.53" height="2.53"/>
	<rect x="46.07" y="232.99" class="text-description-M" width="2.53" height="2.53"/>
	<rect x="51.25" y="232.99" class="text-description-M" width="2.53" height="2.53"/>
	<rect x="56.43" y="232.99" class="text-description-M" width="2.53" height="2.53"/>
	<rect x="61.6" y="232.99" class="text-description-M" width="2.53" height="2.53"/>
	<rect x="66.78" y="232.99" class="text-description-M" width="2.53" height="2.53"/>
	<rect x="71.95" y="232.99" class="text-description-M" width="2.53" height="2.53"/>
	<rect x="77.13" y="232.99" class="text-description-M" width="2.53" height="2.53"/>
	<rect x="82.31" y="232.99" class="text-description-M" width="2.53" height="2.53"/>
	<rect x="87.48" y="232.99" class="text-description-M" width="2.53" height="2.53"/>
	<rect x="92.66" y="232.99" class="text-description-M" width="2.53" height="2.53"/>
	<rect x="97.83" y="232.99" class="text-description-M" width="2.53" height="2.53"/>
	<rect x="103.01" y="232.99" class="text-description-M" width="2.53" height="2.53"/>
	<rect x="108.19" y="232.99" class="text-description-M" width="2.53" height="2.53"/>
	<rect x="113.36" y="232.99" class="text-description-M" width="2.53" height="2.53"/>
	<rect x="118.54" y="232.99" class="text-description-M" width="2.53" height="2.53"/>
	<rect x="123.71" y="232.99" class="text-description-M" width="2.53" height="2.53"/>
	<rect x="128.89" y="232.99" class="text-description-M" width="2.53" height="2.53"/>
	<rect x="134.06" y="232.99" class="text-description-M" width="2.53" height="2.53"/>
	<rect x="139.24" y="232.99" class="text-description-M" width="2.53" height="2.53"/>
	<rect x="144.42" y="232.99" class="text-description-M" width="2.53" height="2.53"/>
	<rect x="149.59" y="232.99" class="text-description-M" width="2.53" height="2.53"/>
	<rect x="154.77" y="232.99" class="text-description-M" width="2.53" height="2.53"/>
	<rect x="159.94" y="232.99" class="text-description-M" width="2.53" height="2.53"/>
	<rect x="165.12" y="232.99" class="text-description-M" width="2.53" height="2.53"/>
	<rect x="170.3" y="232.99" class="text-description-M" width="2.53" height="2.53"/>
	<rect x="175.47" y="232.99" class="text-description-M" width="2.53" height="2.53"/>
	<rect x="180.65" y="232.99" class="text-description-M" width="2.53" height="2.53"/>
	<rect x="185.82" y="232.99" class="text-description-M" width="2.53" height="2.53"/>
	<rect x="191" y="232.99" class="text-description-M" width="2.53" height="2.53"/>
	<rect x="196.18" y="232.99" class="text-description-M" width="2.53" height="2.53"/>
	<rect x="201.35" y="232.99" class="text-description-M" width="2.53" height="2.53"/>
	<rect x="206.53" y="232.99" class="text-description-M" width="2.53" height="2.53"/>
	<rect x="211.7" y="232.99" class="text-description-M" width="2.53" height="2.53"/>
	<rect x="216.88" y="227.88" class="text-description-M" width="2.53" height="2.53"/>
	<rect x="222.05" y="227.88" class="text-description-M" width="2.53" height="2.53"/>
	<rect x="227.23" y="227.88" class="text-description-M" width="2.53" height="2.53"/>
	<rect x="232.41" y="227.88" class="text-description-M" width="2.53" height="2.53"/>
	<rect x="237.58" y="227.88" class="text-description-M" width="2.53" height="2.53"/>
	<rect x="242.76" y="227.88" class="text-description-M" width="2.53" height="2.53"/>
	<rect x="247.93" y="227.88" class="text-description-M" width="2.53" height="2.53"/>
	<rect x="253.11" y="227.88" class="text-description-M" width="2.53" height="2.53"/>
	<rect x="258.29" y="227.88" class="text-description-M" width="2.53" height="2.53"/>
	<rect x="263.46" y="227.88" class="text-description-M" width="2.53" height="2.53"/>
	<rect x="268.64" y="227.88" class="text-description-M" width="2.53" height="2.53"/>
	<rect x="273.81" y="227.88" class="text-description-M" width="2.53" height="2.53"/>
	<rect x="278.99" y="227.88" class="text-description-M" width="2.53" height="2.53"/>
	<rect x="284.17" y="227.88" class="text-description-M" width="2.53" height="2.53"/>
	<rect x="289.34" y="227.88" class="text-description-M" width="2.53" height="2.53"/>
	<rect x="294.52" y="227.88" class="text-description-M" width="2.53" height="2.53"/>
	<rect x="299.69" y="227.88" class="text-description-M" width="2.53" height="2.53"/>
	<rect x="304.87" y="227.88" class="text-description-M" width="2.53" height="2.53"/>
	<rect x="310.05" y="227.88" class="text-description-M" width="2.53" height="2.53"/>
	<rect x="315.22" y="227.88" class="text-description-M" width="2.53" height="2.53"/>
	<rect x="320.4" y="227.88" class="text-description-M" width="2.53" height="2.53"/>
	<rect x="325.57" y="227.88" class="text-description-M" width="2.53" height="2.53"/>
	<rect x="330.75" y="227.88" class="text-description-M" width="2.53" height="2.53"/>
	<rect x="335.93" y="227.88" class="text-description-M" width="2.53" height="2.53"/>
	<rect x="341.1" y="227.88" class="text-description-M" width="2.53" height="2.53"/>
	<rect x="346.28" y="227.88" class="text-description-M" width="2.53" height="2.53"/>
	<rect x="351.45" y="227.88" class="text-description-M" width="2.53" height="2.53"/>
	<rect x="356.63" y="227.88" class="text-description-M" width="2.53" height="2.53"/>
	<rect x="361.81" y="227.88" class="text-description-M" width="2.53" height="2.53"/>
	<rect x="366.98" y="227.88" class="text-description-M" width="2.53" height="2.53"/>
	<rect x="372.16" y="227.88" class="text-description-M" width="2.53" height="2.53"/>
	<rect x="377.33" y="227.88" class="text-description-M" width="2.53" height="2.53"/>
	<rect x="382.51" y="227.88" class="text-description-M" width="2.53" height="2.53"/>
	<rect x="387.69" y="227.88" class="text-description-M" width="2.53" height="2.53"/>
	<rect x="392.86" y="227.88" class="text-description-M" width="2.53" height="2.53"/>
	<rect x="398.04" y="227.88" class="text-description-M" width="2.53" height="2.53"/>
	<rect x="403.21" y="227.88" class="text-description-M" width="2.53" height="2.53"/>
	<rect x="408.39" y="227.88" class="text-description-M" width="2.53" height="2.53"/>
	<rect x="413.57" y="227.88" class="text-description-M" width="2.53" height="2.53"/>
	<rect x="418.74" y="227.88" class="text-description-M" width="2.53" height="2.53"/>
	<rect x="423.92" y="227.76" class="text-description-M" width="2.53" height="2.53"/>
	<rect x="216.88" y="232.99" class="text-description-M" width="2.53" height="2.53"/>
	<rect x="222.06" y="232.99" class="text-description-M" width="2.53" height="2.53"/>
	<rect x="227.23" y="232.99" class="text-description-M" width="2.53" height="2.53"/>
	<rect x="232.41" y="232.99" class="text-description-M" width="2.53" height="2.53"/>
	<rect x="237.58" y="232.99" class="text-description-M" width="2.53" height="2.53"/>
	<rect x="242.76" y="232.99" class="text-description-M" width="2.53" height="2.53"/>
	<rect x="247.94" y="232.99" class="text-description-M" width="2.53" height="2.53"/>
	<rect x="253.11" y="232.99" class="text-description-M" width="2.53" height="2.53"/>
	<rect x="258.29" y="232.99" class="text-description-M" width="2.53" height="2.53"/>
	<rect x="263.46" y="232.99" class="text-description-M" width="2.53" height="2.53"/>
	<rect x="268.64" y="232.99" class="text-description-M" width="2.53" height="2.53"/>
	<rect x="273.82" y="232.99" class="text-description-M" width="2.53" height="2.53"/>
	<rect x="278.99" y="232.99" class="text-description-M" width="2.53" height="2.53"/>
	<rect x="284.17" y="232.99" class="text-description-M" width="2.53" height="2.53"/>
	<rect x="289.34" y="232.99" class="text-description-M" width="2.53" height="2.53"/>
	<rect x="294.52" y="232.99" class="text-description-M" width="2.53" height="2.53"/>
	<rect x="299.7" y="232.99" class="text-description-M" width="2.53" height="2.53"/>
	<rect x="304.87" y="232.99" class="text-description-M" width="2.53" height="2.53"/>
	<rect x="310.05" y="232.99" class="text-description-M" width="2.53" height="2.53"/>
	<rect x="315.22" y="232.99" class="text-description-M" width="2.53" height="2.53"/>
	<rect x="320.4" y="232.99" class="text-description-M" width="2.53" height="2.53"/>
	<rect x="325.57" y="232.99" class="text-description-M" width="2.53" height="2.53"/>
	<rect x="330.75" y="232.99" class="text-description-M" width="2.53" height="2.53"/>
	<rect x="335.93" y="232.99" class="text-description-M" width="2.53" height="2.53"/>
	<rect x="341.1" y="232.99" class="text-description-M" width="2.53" height="2.53"/>
	<rect x="346.28" y="232.99" class="text-description-M" width="2.53" height="2.53"/>
	<rect x="351.45" y="232.99" class="text-description-M" width="2.53" height="2.53"/>
	<rect x="356.63" y="232.99" class="text-description-M" width="2.53" height="2.53"/>
	<rect x="361.81" y="232.99" class="text-description-M" width="2.53" height="2.53"/>
	<rect x="366.98" y="232.99" class="text-description-M" width="2.53" height="2.53"/>
	<rect x="372.16" y="232.99" class="text-description-M" width="2.53" height="2.53"/>
	<rect x="377.33" y="232.99" class="text-description-M" width="2.53" height="2.53"/>
	<rect x="382.51" y="232.99" class="text-description-M" width="2.53" height="2.53"/>
	<rect x="387.69" y="232.99" class="text-description-M" width="2.53" height="2.53"/>
	<rect x="392.86" y="232.99" class="text-description-M" width="2.53" height="2.53"/>
	<rect x="398.04" y="232.99" class="text-description-M" width="2.53" height="2.53"/>
	<rect x="403.21" y="232.99" class="text-description-M" width="2.53" height="2.53"/>
	<rect x="408.39" y="232.99" class="text-description-M" width="2.53" height="2.53"/>
	<rect x="413.57" y="232.99" class="text-description-M" width="2.53" height="2.53"/>
	<rect x="418.74" y="232.99" class="text-description-M" width="2.53" height="2.53"/>
	<rect x="423.92" y="232.99" class="text-description-M" width="2.53" height="2.53"/>
	<rect x="429.09" y="227.76" class="text-description-M" width="2.53" height="2.53"/>
	<rect x="429.09" y="232.99" class="text-description-M" width="2.53" height="2.53"/>
	<rect x="423.99" y="222.54" class="text-description-M" width="2.53" height="2.53"/>
	<rect x="423.99" y="217.32" class="text-description-M" width="2.53" height="2.53"/>
	<rect x="423.99" y="212.09" class="text-description-M" width="2.53" height="2.53"/>
	<rect x="423.99" y="206.86" class="text-description-M" width="2.53" height="2.53"/>
	<rect x="423.99" y="201.64" class="text-description-M" width="2.53" height="2.53"/>
	<rect x="424" y="196.41" class="text-description-M" width="2.53" height="2.53"/>
	<rect x="423.99" y="191.19" class="text-description-M" width="2.53" height="2.53"/>
	<rect x="424" y="185.96" class="text-description-M" width="2.53" height="2.53"/>
	<rect x="423.99" y="180.74" class="text-description-M" width="2.53" height="2.53"/>
	<rect x="423.99" y="175.51" class="text-description-M" width="2.53" height="2.53"/>
	<rect x="423.99" y="170.29" class="text-description-M" width="2.53" height="2.53"/>
	<rect x="423.99" y="165.06" class="text-description-M" width="2.53" height="2.53"/>
	<rect x="423.99" y="159.83" class="text-description-M" width="2.53" height="2.53"/>
	<rect x="423.99" y="154.61" class="text-description-M" width="2.53" height="2.53"/>
	<rect x="424" y="149.38" class="text-description-M" width="2.53" height="2.53"/>
	<rect x="423.99" y="144.16" class="text-description-M" width="2.53" height="2.53"/>
	<rect x="424" y="138.93" class="text-description-M" width="2.53" height="2.53"/>
	<rect x="423.99" y="133.71" class="text-description-M" width="2.53" height="2.53"/>
	<rect x="424" y="128.48" class="text-description-M" width="2.53" height="2.53"/>
	<rect x="423.99" y="123.26" class="text-description-M" width="2.53" height="2.53"/>
	<rect x="429.09" y="222.54" class="text-description-M" width="2.53" height="2.53"/>
	<rect x="429.1" y="217.32" class="text-description-M" width="2.53" height="2.53"/>
	<rect x="429.1" y="212.09" class="text-description-M" width="2.53" height="2.53"/>
	<rect x="429.09" y="206.87" class="text-description-M" width="2.53" height="2.53"/>
	<rect x="429.1" y="201.64" class="text-description-M" width="2.53" height="2.53"/>
	<rect x="429.1" y="196.41" class="text-description-M" width="2.53" height="2.53"/>
	<rect x="429.09" y="191.19" class="text-description-M" width="2.53" height="2.53"/>
	<rect x="429.1" y="185.96" class="text-description-M" width="2.53" height="2.53"/>
	<rect x="429.1" y="180.73" class="text-description-M" width="2.53" height="2.53"/>
	<rect x="429.1" y="175.51" class="text-description-M" width="2.53" height="2.53"/>
	<rect x="429.1" y="170.28" class="text-description-M" width="2.53" height="2.53"/>
	<rect x="429.09" y="165.05" class="text-description-M" width="2.53" height="2.53"/>
	<rect x="429.1" y="159.83" class="text-description-M" width="2.53" height="2.53"/>
	<rect x="429.1" y="154.6" class="text-description-M" width="2.53" height="2.53"/>
	<rect x="429.09" y="149.38" class="text-description-M" width="2.53" height="2.53"/>
	<rect x="429.1" y="144.15" class="text-description-M" width="2.53" height="2.53"/>
	<rect x="429.1" y="138.92" class="text-description-M" width="2.53" height="2.53"/>
	<rect x="429.1" y="133.7" class="text-description-M" width="2.53" height="2.53"/>
	<rect x="429.1" y="128.47" class="text-description-M" width="2.53" height="2.53"/>
	<rect x="429.09" y="123.24" class="text-description-M" width="2.53" height="2.53"/>
	<rect x="423.99" y="118.03" class="text-description-M" width="2.53" height="2.53"/>
	<rect x="423.99" y="112.81" class="text-description-M" width="2.53" height="2.53"/>
	<rect x="423.99" y="107.58" class="text-description-M" width="2.53" height="2.53"/>
	<rect x="423.99" y="102.35" class="text-description-M" width="2.53" height="2.53"/>
	<rect x="423.99" y="97.13" class="text-description-M" width="2.53" height="2.53"/>
	<rect x="424" y="91.9" class="text-description-M" width="2.53" height="2.53"/>
	<rect x="423.99" y="86.68" class="text-description-M" width="2.53" height="2.53"/>
	<rect x="424" y="81.45" class="text-description-M" width="2.53" height="2.53"/>
	<rect x="423.99" y="76.23" class="text-description-M" width="2.53" height="2.53"/>
	<rect x="423.99" y="71" class="text-description-M" width="2.53" height="2.53"/>
	<rect x="423.99" y="65.78" class="text-description-M" width="2.53" height="2.53"/>
	<rect x="423.99" y="60.55" class="text-description-M" width="2.53" height="2.53"/>
	<rect x="423.99" y="55.32" class="text-description-M" width="2.53" height="2.53"/>
	<rect x="423.99" y="50.1" class="text-description-M" width="2.53" height="2.53"/>
	<rect x="424" y="44.87" class="text-description-M" width="2.53" height="2.53"/>
	<rect x="423.99" y="39.65" class="text-description-M" width="2.53" height="2.53"/>
	<rect x="424" y="34.42" class="text-description-M" width="2.53" height="2.53"/>
	<rect x="423.99" y="29.2" class="text-description-M" width="2.53" height="2.53"/>
	<rect x="424" y="23.97" class="text-description-M" width="2.53" height="2.53"/>
	<rect x="423.99" y="18.75" class="text-description-M" width="2.53" height="2.53"/>
	<rect x="423.99" y="13.52" class="text-description-M" width="2.53" height="2.53"/>
	<rect x="429.1" y="112.79" class="text-description-M" width="2.53" height="2.53"/>
	<rect x="429.1" y="118.02" class="text-description-M" width="2.53" height="2.53"/>
	<rect x="429.09" y="107.57" class="text-description-M" width="2.53" height="2.53"/>
	<rect x="429.1" y="102.34" class="text-description-M" width="2.53" height="2.53"/>
	<rect x="429.1" y="97.11" class="text-description-M" width="2.53" height="2.53"/>
	<rect x="429.09" y="91.89" class="text-description-M" width="2.53" height="2.53"/>
	<rect x="429.1" y="86.66" class="text-description-M" width="2.53" height="2.53"/>
	<rect x="429.1" y="81.43" class="text-description-M" width="2.53" height="2.53"/>
	<rect x="429.1" y="76.21" class="text-description-M" width="2.53" height="2.53"/>
	<rect x="429.1" y="70.98" class="text-description-M" width="2.53" height="2.53"/>
	<rect x="429.09" y="65.75" class="text-description-M" width="2.53" height="2.53"/>
	<rect x="429.1" y="60.53" class="text-description-M" width="2.53" height="2.53"/>
	<rect x="429.1" y="55.3" class="text-description-M" width="2.53" height="2.53"/>
	<rect x="429.09" y="50.08" class="text-description-M" width="2.53" height="2.53"/>
	<rect x="429.1" y="44.85" class="text-description-M" width="2.53" height="2.53"/>
	<rect x="429.1" y="39.62" class="text-description-M" width="2.53" height="2.53"/>
	<rect x="429.1" y="34.4" class="text-description-M" width="2.53" height="2.53"/>
	<rect x="429.1" y="29.17" class="text-description-M" width="2.53" height="2.53"/>
	<rect x="429.1" y="23.94" class="text-description-M" width="2.53" height="2.53"/>
	<rect x="429.1" y="18.72" class="text-description-M" width="2.53" height="2.53"/>
	<rect x="429.1" y="13.49" class="text-description-M" width="2.53" height="2.53"/>
	<rect x="424" y="8.35" class="text-description-M" width="2.53" height="2.53"/>
</g>
</svg>
