<svg width="889" height="275" viewBox="0 0 889 275" fill="none" xmlns="http://www.w3.org/2000/svg">
<path d="M888.427 0.927979H0.103561V10.0312H888.427V0.927979Z" fill="#231F20"/>
<path d="M888.427 241H0.103561V250.103H888.427V241Z" fill="#231F20"/>
<path d="M16.6485 257.848H11.1909V263.305H16.6485V257.848Z" fill="#231F20"/>
<path d="M27.7579 257.848H22.3002V263.305H27.7579V257.848Z" fill="#231F20"/>
<path d="M38.9103 257.848H33.4526V263.305H38.9103V257.848Z" fill="#231F20"/>
<path d="M50.0847 257.848H44.627V263.305H50.0847V257.848Z" fill="#231F20"/>
<path d="M61.2371 257.848H55.7794V263.305H61.2371V257.848Z" fill="#231F20"/>
<path d="M72.4115 257.848H66.9539V263.305H72.4115V257.848Z" fill="#231F20"/>
<path d="M83.585 257.848H78.1273V263.305H83.585V257.848Z" fill="#231F20"/>
<path d="M94.7383 257.848H89.2807V263.305H94.7383V257.848Z" fill="#231F20"/>
<path d="M105.912 257.848H100.454V263.305H105.912V257.848Z" fill="#231F20"/>
<path d="M117.064 257.848H111.607V263.305H117.064V257.848Z" fill="#231F20"/>
<path d="M128.239 257.848H122.781V263.305H128.239V257.848Z" fill="#231F20"/>
<path d="M139.414 257.848H133.956V263.305H139.414V257.848Z" fill="#231F20"/>
<path d="M150.566 257.848H145.108V263.305H150.566V257.848Z" fill="#231F20"/>
<path d="M161.739 257.848H156.282V263.305H161.739V257.848Z" fill="#231F20"/>
<path d="M172.893 257.848H167.435V263.305H172.893V257.848Z" fill="#231F20"/>
<path d="M184.066 257.848H178.609V263.305H184.066V257.848Z" fill="#231F20"/>
<path d="M195.241 257.848H189.783V263.305H195.241V257.848Z" fill="#231F20"/>
<path d="M206.394 257.848H200.936V263.305H206.394V257.848Z" fill="#231F20"/>
<path d="M217.568 257.848H212.11V263.305H217.568V257.848Z" fill="#231F20"/>
<path d="M228.72 257.848H223.263V263.305H228.72V257.848Z" fill="#231F20"/>
<path d="M239.895 257.848H234.437V263.305H239.895V257.848Z" fill="#231F20"/>
<path d="M251.068 257.848H245.611V263.305H251.068V257.848Z" fill="#231F20"/>
<path d="M262.221 257.848H256.763V263.305H262.221V257.848Z" fill="#231F20"/>
<path d="M273.395 257.848H267.937V263.305H273.395V257.848Z" fill="#231F20"/>
<path d="M284.547 257.848H279.09V263.305H284.547V257.848Z" fill="#231F20"/>
<path d="M295.722 257.848H290.265V263.305H295.722V257.848Z" fill="#231F20"/>
<path d="M306.896 257.848H301.438V263.305H306.896V257.848Z" fill="#231F20"/>
<path d="M318.049 257.848H312.592V263.305H318.049V257.848Z" fill="#231F20"/>
<path d="M329.223 257.848H323.765V263.305H329.223V257.848Z" fill="#231F20"/>
<path d="M340.375 257.848H334.917V263.305H340.375V257.848Z" fill="#231F20"/>
<path d="M351.55 257.848H346.092V263.305H351.55V257.848Z" fill="#231F20"/>
<path d="M362.724 257.848H357.266V263.305H362.724V257.848Z" fill="#231F20"/>
<path d="M373.876 257.848H368.419V263.305H373.876V257.848Z" fill="#231F20"/>
<path d="M385.05 257.848H379.592V263.305H385.05V257.848Z" fill="#231F20"/>
<path d="M396.204 257.848H390.746V263.305H396.204V257.848Z" fill="#231F20"/>
<path d="M407.377 257.848H401.919V263.305H407.377V257.848Z" fill="#231F20"/>
<path d="M418.552 257.848H413.094V263.305H418.552V257.848Z" fill="#231F20"/>
<path d="M429.704 257.848H424.246V263.305H429.704V257.848Z" fill="#231F20"/>
<path d="M440.878 257.848H435.421V263.305H440.878V257.848Z" fill="#231F20"/>
<path d="M452.031 257.848H446.573V263.305H452.031V257.848Z" fill="#231F20"/>
<path d="M27.8229 268.87H22.3653V274.328H27.8229V268.87Z" fill="#231F20"/>
<path d="M38.9323 268.87H33.4746V274.328H38.9323V268.87Z" fill="#231F20"/>
<path d="M50.0847 268.87H44.627V274.328H50.0847V268.87Z" fill="#231F20"/>
<path d="M61.2591 268.87H55.8015V274.328H61.2591V268.87Z" fill="#231F20"/>
<path d="M72.4115 268.87H66.9539V274.328H72.4115V268.87Z" fill="#231F20"/>
<path d="M83.585 268.87H78.1273V274.328H83.585V268.87Z" fill="#231F20"/>
<path d="M94.7594 268.87H89.3017V274.328H94.7594V268.87Z" fill="#231F20"/>
<path d="M105.912 268.87H100.454V274.328H105.912V268.87Z" fill="#231F20"/>
<path d="M117.087 268.87H111.629V274.328H117.087V268.87Z" fill="#231F20"/>
<path d="M128.239 268.87H122.781V274.328H128.239V268.87Z" fill="#231F20"/>
<path d="M139.414 268.87H133.956V274.328H139.414V268.87Z" fill="#231F20"/>
<path d="M150.587 268.87H145.129V274.328H150.587V268.87Z" fill="#231F20"/>
<path d="M161.739 268.87H156.282V274.328H161.739V268.87Z" fill="#231F20"/>
<path d="M172.914 268.87H167.456V274.328H172.914V268.87Z" fill="#231F20"/>
<path d="M184.066 268.87H178.609V274.328H184.066V268.87Z" fill="#231F20"/>
<path d="M195.241 268.87H189.783V274.328H195.241V268.87Z" fill="#231F20"/>
<path d="M206.394 268.87H200.936V274.328H206.394V268.87Z" fill="#231F20"/>
<path d="M217.568 268.87H212.11V274.328H217.568V268.87Z" fill="#231F20"/>
<path d="M228.741 268.87H223.284V274.328H228.741V268.87Z" fill="#231F20"/>
<path d="M239.895 268.87H234.437V274.328H239.895V268.87Z" fill="#231F20"/>
<path d="M251.068 268.87H245.611V274.328H251.068V268.87Z" fill="#231F20"/>
<path d="M262.221 268.87H256.763V274.328H262.221V268.87Z" fill="#231F20"/>
<path d="M273.395 268.87H267.937V274.328H273.395V268.87Z" fill="#231F20"/>
<path d="M284.57 268.87H279.112V274.328H284.57V268.87Z" fill="#231F20"/>
<path d="M295.722 268.87H290.265V274.328H295.722V268.87Z" fill="#231F20"/>
<path d="M306.896 268.87H301.438V274.328H306.896V268.87Z" fill="#231F20"/>
<path d="M318.049 268.87H312.592V274.328H318.049V268.87Z" fill="#231F20"/>
<path d="M329.223 268.87H323.765V274.328H329.223V268.87Z" fill="#231F20"/>
<path d="M340.397 268.87H334.939V274.328H340.397V268.87Z" fill="#231F20"/>
<path d="M351.55 268.87H346.092V274.328H351.55V268.87Z" fill="#231F20"/>
<path d="M362.724 268.87H357.266V274.328H362.724V268.87Z" fill="#231F20"/>
<path d="M373.876 268.87H368.419V274.328H373.876V268.87Z" fill="#231F20"/>
<path d="M385.05 268.87H379.592V274.328H385.05V268.87Z" fill="#231F20"/>
<path d="M396.225 268.87H390.767V274.328H396.225V268.87Z" fill="#231F20"/>
<path d="M407.377 268.87H401.919V274.328H407.377V268.87Z" fill="#231F20"/>
<path d="M418.552 268.87H413.094V274.328H418.552V268.87Z" fill="#231F20"/>
<path d="M429.704 268.87H424.246V274.328H429.704V268.87Z" fill="#231F20"/>
<path d="M440.878 268.87H435.421V274.328H440.878V268.87Z" fill="#231F20"/>
<path d="M452.052 268.87H446.594V274.328H452.052V268.87Z" fill="#231F20"/>
<path d="M463.205 257.848H457.748V263.305H463.205V257.848Z" fill="#231F20"/>
<path d="M474.379 257.848H468.921V263.305H474.379V257.848Z" fill="#231F20"/>
<path d="M485.531 257.848H480.073V263.305H485.531V257.848Z" fill="#231F20"/>
<path d="M496.706 257.848H491.248V263.305H496.706V257.848Z" fill="#231F20"/>
<path d="M507.858 257.848H502.401V263.305H507.858V257.848Z" fill="#231F20"/>
<path d="M519.033 257.848H513.575V263.305H519.033V257.848Z" fill="#231F20"/>
<path d="M530.206 257.848H524.749V263.305H530.206V257.848Z" fill="#231F20"/>
<path d="M541.36 257.848H535.902V263.305H541.36V257.848Z" fill="#231F20"/>
<path d="M552.533 257.848H547.075V263.305H552.533V257.848Z" fill="#231F20"/>
<path d="M563.685 257.848H558.228V263.305H563.685V257.848Z" fill="#231F20"/>
<path d="M574.86 257.848H569.402V263.305H574.86V257.848Z" fill="#231F20"/>
<path d="M586.035 257.848H580.577V263.305H586.035V257.848Z" fill="#231F20"/>
<path d="M597.187 257.848H591.73V263.305H597.187V257.848Z" fill="#231F20"/>
<path d="M608.361 257.848H602.903V263.305H608.361V257.848Z" fill="#231F20"/>
<path d="M619.514 257.848H614.056V263.305H619.514V257.848Z" fill="#231F20"/>
<path d="M630.688 257.848H625.23V263.305H630.688V257.848Z" fill="#231F20"/>
<path d="M641.862 257.848H636.404V263.305H641.862V257.848Z" fill="#231F20"/>
<path d="M653.014 257.848H647.557V263.305H653.014V257.848Z" fill="#231F20"/>
<path d="M664.189 257.848H658.731V263.305H664.189V257.848Z" fill="#231F20"/>
<path d="M675.341 257.848H669.884V263.305H675.341V257.848Z" fill="#231F20"/>
<path d="M686.515 257.848H681.057V263.305H686.515V257.848Z" fill="#231F20"/>
<path d="M697.69 257.848H692.232V263.305H697.69V257.848Z" fill="#231F20"/>
<path d="M708.842 257.848H703.384V263.305H708.842V257.848Z" fill="#231F20"/>
<path d="M720.016 257.848H714.559V263.305H720.016V257.848Z" fill="#231F20"/>
<path d="M731.169 257.848H725.711V263.305H731.169V257.848Z" fill="#231F20"/>
<path d="M742.343 257.848H736.886V263.305H742.343V257.848Z" fill="#231F20"/>
<path d="M753.517 257.848H748.059V263.305H753.517V257.848Z" fill="#231F20"/>
<path d="M764.67 257.848H759.213V263.305H764.67V257.848Z" fill="#231F20"/>
<path d="M775.844 257.848H770.386V263.305H775.844V257.848Z" fill="#231F20"/>
<path d="M786.996 257.848H781.538V263.305H786.996V257.848Z" fill="#231F20"/>
<path d="M798.171 257.848H792.713V263.305H798.171V257.848Z" fill="#231F20"/>
<path d="M809.345 257.848H803.888V263.305H809.345V257.848Z" fill="#231F20"/>
<path d="M820.498 257.848H815.04V263.305H820.498V257.848Z" fill="#231F20"/>
<path d="M831.671 257.848H826.213V263.305H831.671V257.848Z" fill="#231F20"/>
<path d="M842.823 257.848H837.366V263.305H842.823V257.848Z" fill="#231F20"/>
<path d="M853.998 257.848H848.54V263.305H853.998V257.848Z" fill="#231F20"/>
<path d="M865.173 257.848H859.715V263.305H865.173V257.848Z" fill="#231F20"/>
<path d="M876.325 257.848H870.867V263.305H876.325V257.848Z" fill="#231F20"/>
<path d="M887.5 257.848H882.042V263.305H887.5V257.848Z" fill="#231F20"/>
<path d="M463.205 268.87H457.748V274.328H463.205V268.87Z" fill="#231F20"/>
<path d="M474.379 268.87H468.921V274.328H474.379V268.87Z" fill="#231F20"/>
<path d="M485.531 268.87H480.073V274.328H485.531V268.87Z" fill="#231F20"/>
<path d="M496.706 268.87H491.248V274.328H496.706V268.87Z" fill="#231F20"/>
<path d="M507.88 268.87H502.423V274.328H507.88V268.87Z" fill="#231F20"/>
<path d="M519.033 268.87H513.575V274.328H519.033V268.87Z" fill="#231F20"/>
<path d="M530.206 268.87H524.749V274.328H530.206V268.87Z" fill="#231F20"/>
<path d="M541.36 268.87H535.902V274.328H541.36V268.87Z" fill="#231F20"/>
<path d="M552.533 268.87H547.075V274.328H552.533V268.87Z" fill="#231F20"/>
<path d="M563.685 268.87H558.228V274.328H563.685V268.87Z" fill="#231F20"/>
<path d="M574.86 268.87H569.402V274.328H574.86V268.87Z" fill="#231F20"/>
<path d="M586.035 268.87H580.577V274.328H586.035V268.87Z" fill="#231F20"/>
<path d="M597.187 268.87H591.73V274.328H597.187V268.87Z" fill="#231F20"/>
<path d="M608.361 268.87H602.903V274.328H608.361V268.87Z" fill="#231F20"/>
<path d="M619.514 268.87H614.056V274.328H619.514V268.87Z" fill="#231F20"/>
<path d="M630.688 268.87H625.23V274.328H630.688V268.87Z" fill="#231F20"/>
<path d="M641.862 268.87H636.404V274.328H641.862V268.87Z" fill="#231F20"/>
<path d="M653.014 268.87H647.557V274.328H653.014V268.87Z" fill="#231F20"/>
<path d="M664.189 268.87H658.731V274.328H664.189V268.87Z" fill="#231F20"/>
<path d="M675.341 268.87H669.884V274.328H675.341V268.87Z" fill="#231F20"/>
<path d="M686.515 268.87H681.057V274.328H686.515V268.87Z" fill="#231F20"/>
<path d="M697.69 268.87H692.232V274.328H697.69V268.87Z" fill="#231F20"/>
<path d="M708.842 268.87H703.384V274.328H708.842V268.87Z" fill="#231F20"/>
<path d="M720.016 268.87H714.559V274.328H720.016V268.87Z" fill="#231F20"/>
<path d="M731.169 268.87H725.711V274.328H731.169V268.87Z" fill="#231F20"/>
<path d="M742.343 268.87H736.886V274.328H742.343V268.87Z" fill="#231F20"/>
<path d="M753.517 268.87H748.059V274.328H753.517V268.87Z" fill="#231F20"/>
<path d="M764.67 268.87H759.213V274.328H764.67V268.87Z" fill="#231F20"/>
<path d="M775.844 268.87H770.386V274.328H775.844V268.87Z" fill="#231F20"/>
<path d="M786.996 268.87H781.538V274.328H786.996V268.87Z" fill="#231F20"/>
<path d="M798.171 268.87H792.713V274.328H798.171V268.87Z" fill="#231F20"/>
<path d="M809.345 268.87H803.888V274.328H809.345V268.87Z" fill="#231F20"/>
<path d="M820.498 268.87H815.04V274.328H820.498V268.87Z" fill="#231F20"/>
<path d="M831.671 268.87H826.213V274.328H831.671V268.87Z" fill="#231F20"/>
<path d="M842.823 268.87H837.366V274.328H842.823V268.87Z" fill="#231F20"/>
<path d="M853.998 268.87H848.54V274.328H853.998V268.87Z" fill="#231F20"/>
<path d="M865.173 268.87H859.715V274.328H865.173V268.87Z" fill="#231F20"/>
<path d="M876.325 268.87H870.867V274.328H876.325V268.87Z" fill="#231F20"/>
</svg>
