<?xml version="1.0" encoding="utf-8"?>
<!-- Generator: Adobe Illustrator 25.3.1, SVG Export Plug-In . SVG Version: 6.00 Build 0)  -->
<svg version="1.1" id="Layer_1" xmlns="http://www.w3.org/2000/svg" xmlns:xlink="http://www.w3.org/1999/xlink" x="0px" y="0px"
	 viewBox="0 0 89.66 96.4" style="enable-background:new 0 0 89.66 96.4;" xml:space="preserve">
<style type="text/css">
	.st0{fill:#FFFFFF;}
	.st1{fill:#231F20;}
</style>
<g>
	<polygon class="st0" points="85.18,13.45 85.18,13.45 85.18,8.97 80.69,8.97 76.21,8.97 76.21,8.97 71.73,8.97 71.73,8.97 
		71.73,8.97 67.25,8.97 67.25,8.97 62.76,8.97 58.28,8.97 58.28,4.48 53.8,4.48 53.8,0 49.31,0 49.31,0 44.83,0 44.83,0 40.35,0 
		40.35,0 35.86,0 35.86,4.48 35.86,4.48 31.38,4.48 31.38,8.97 31.38,8.97 26.9,8.97 22.41,8.97 17.93,8.97 13.45,8.97 8.97,8.97 
		4.48,8.97 4.48,13.45 0,13.45 0,17.93 0,22.42 0,26.9 4.48,26.9 4.48,26.9 4.48,31.38 8.97,31.38 8.97,87.44 8.97,91.92 
		13.45,91.92 13.45,96.4 17.93,96.4 67.25,96.4 69.98,96.4 71.73,96.4 76.21,96.4 76.21,91.92 80.69,91.92 80.69,87.44 80.69,31.38 
		85.18,31.38 85.18,26.9 85.18,26.9 89.66,26.9 89.66,22.42 89.66,17.93 89.66,13.45 	"/>
	<rect x="4.48" y="17.93" class="st1" width="4.48" height="4.48"/>
	<rect x="17.93" y="87.44" class="st1" width="52.05" height="4.48"/>
	<rect x="67.25" y="87.44" class="st1" width="4.48" height="4.48"/>
	<rect x="13.45" y="26.9" class="st1" width="4.48" height="60.54"/>
	<rect x="22.41" y="31.23" class="st1" width="4.48" height="51.31"/>
	<rect x="62.76" y="31.23" class="st1" width="4.48" height="51.31"/>
	<rect x="35.86" y="31.23" class="st1" width="4.48" height="51.31"/>
	<rect x="49.31" y="31.23" class="st1" width="4.48" height="51.31"/>
	<rect x="71.73" y="26.9" class="st1" width="4.48" height="60.54"/>
	<rect x="35.86" y="8.97" class="st1" width="4.48" height="4.48"/>
	<rect x="49.31" y="8.97" class="st1" width="4.48" height="4.48"/>
	<rect x="40.35" y="4.48" class="st1" width="4.48" height="4.48"/>
	<rect x="44.83" y="4.48" class="st1" width="4.48" height="4.48"/>
	<rect x="80.69" y="17.93" class="st1" width="4.48" height="4.48"/>
	<rect x="8.97" y="22.42" class="st1" width="71.73" height="4.48"/>
	<rect x="8.97" y="13.45" class="st1" width="4.48" height="4.48"/>
	<rect x="13.45" y="13.45" class="st1" width="4.48" height="4.48"/>
	<rect x="17.93" y="13.45" class="st1" width="4.48" height="4.48"/>
	<rect x="22.41" y="13.45" class="st1" width="4.48" height="4.48"/>
	<rect x="26.9" y="13.45" class="st1" width="4.48" height="4.48"/>
	<rect x="31.38" y="13.45" class="st1" width="4.48" height="4.48"/>
	<rect x="35.86" y="13.45" class="st1" width="4.48" height="4.48"/>
	<rect x="40.35" y="13.45" class="st1" width="4.48" height="4.48"/>
	<rect x="44.83" y="13.45" class="st1" width="4.48" height="4.48"/>
	<rect x="49.31" y="13.45" class="st1" width="4.48" height="4.48"/>
	<rect x="53.8" y="13.45" class="st1" width="4.48" height="4.48"/>
	<rect x="58.28" y="13.45" class="st1" width="4.48" height="4.48"/>
	<rect x="62.76" y="13.45" class="st1" width="4.48" height="4.48"/>
	<rect x="67.25" y="13.45" class="st1" width="4.48" height="4.48"/>
	<rect x="71.73" y="13.45" class="st1" width="4.48" height="4.48"/>
	<rect x="76.21" y="13.45" class="st1" width="4.48" height="4.48"/>
</g>
</svg>
