<svg id="TrIcon" width="90" height="97" viewBox="0 0 90 97" fill="none"
    xmlns="http://www.w3.org/2000/svg">
    <g clip-path="url(#clip0_25_3363)">
        <path
            d="M85.18 13.45V8.97H80.69H76.21H71.73H67.25H62.76H58.28V4.48H53.8V0H49.31H44.83H40.35H35.86V4.48H31.38V8.97H26.9H22.41H17.93H13.45H8.97H4.48V13.45H0V17.93V22.42V26.9H4.48V31.38H8.97V87.44V91.92H13.45V96.4H17.93H67.25H69.98H71.73H76.21V91.92H80.69V87.44V31.38H85.18V26.9H89.66V22.42V17.93V13.45H85.18Z"
            fill="white" />
        <path d="M8.95998 17.9301H4.47998V22.4101H8.95998V17.9301Z" fill="#231F20" />
        <path d="M69.9799 87.4399H17.9299V91.9199H69.9799V87.4399Z" fill="#231F20" />
        <path d="M71.73 87.4399H67.25V91.9199H71.73V87.4399Z" fill="#231F20" />
        <path d="M17.93 26.9H13.45V87.44H17.93V26.9Z" fill="#231F20" />
        <path d="M26.8899 31.23H22.4099V82.54H26.8899V31.23Z" fill="#231F20" />
        <path d="M67.24 31.23H62.76V82.54H67.24V31.23Z" fill="#231F20" />
        <path d="M40.3401 31.23H35.8601V82.54H40.3401V31.23Z" fill="#231F20" />
        <path d="M53.7901 31.23H49.3101V82.54H53.7901V31.23Z" fill="#231F20" />
        <path d="M76.21 26.9H71.73V87.44H76.21V26.9Z" fill="#231F20" />
        <path d="M40.3401 8.96997H35.8601V13.45H40.3401V8.96997Z" fill="#231F20" />
        <path d="M53.7901 8.96997H49.3101V13.45H53.7901V8.96997Z" fill="#231F20" />
        <path d="M44.8301 4.47998H40.3501V8.95998H44.8301V4.47998Z" fill="#231F20" />
        <path d="M49.3101 4.47998H44.8301V8.95998H49.3101V4.47998Z" fill="#231F20" />
        <path d="M85.1699 17.9301H80.6899V22.4101H85.1699V17.9301Z" fill="#231F20" />
        <path d="M80.7 22.42H8.96997V26.9H80.7V22.42Z" fill="#231F20" />
        <path d="M13.45 13.45H8.96997V17.93H13.45V13.45Z" fill="#231F20" />
        <path d="M17.93 13.45H13.45V17.93H17.93V13.45Z" fill="#231F20" />
        <path d="M22.4099 13.45H17.9299V17.93H22.4099V13.45Z" fill="#231F20" />
        <path d="M26.8899 13.45H22.4099V17.93H26.8899V13.45Z" fill="#231F20" />
        <path d="M31.3799 13.45H26.8999V17.93H31.3799V13.45Z" fill="#231F20" />
        <path d="M35.8599 13.45H31.3799V17.93H35.8599V13.45Z" fill="#231F20" />
        <path d="M40.3401 13.45H35.8601V17.93H40.3401V13.45Z" fill="#231F20" />
        <path d="M44.8301 13.45H40.3501V17.93H44.8301V13.45Z" fill="#231F20" />
        <path d="M49.3101 13.45H44.8301V17.93H49.3101V13.45Z" fill="#231F20" />
        <path d="M53.7901 13.45H49.3101V17.93H53.7901V13.45Z" fill="#231F20" />
        <path d="M58.28 13.45H53.8V17.93H58.28V13.45Z" fill="#231F20" />
        <path d="M62.76 13.45H58.28V17.93H62.76V13.45Z" fill="#231F20" />
        <path d="M67.24 13.45H62.76V17.93H67.24V13.45Z" fill="#231F20" />
        <path d="M71.73 13.45H67.25V17.93H71.73V13.45Z" fill="#231F20" />
        <path d="M76.21 13.45H71.73V17.93H76.21V13.45Z" fill="#231F20" />
        <path d="M80.69 13.45H76.21V17.93H80.69V13.45Z" fill="#231F20" />
    </g>
    <defs>
        <clipPath id="clip0_25_3363">
            <rect width="89.66" height="96.4" fill="white" />
        </clipPath>
    </defs>
</svg>