<svg id="VelogIcon" viewBox="0 0 77 71" fill="none"
    xmlns="http://www.w3.org/2000/svg">
    <path
        d="M26.118 69.2166V66.505H20.6888V63.7935H15.2658V61.0759H12.5482V58.3644H9.83668V55.6529H7.12515V50.2238H4.40757V44.8007H1.69604V25.8079H4.40757V20.3788H7.12515V14.9497H9.83668V12.2382H12.5482V9.52662H15.2658V6.8151H20.6888V4.09751H26.118V1.38599H50.5399V4.09751H55.9629V6.8151H61.392V9.52662H64.1036V12.2382H66.8151V14.9497H69.5327V20.3788H72.2442V25.8079H74.9557V44.8007H72.2442V50.2238H69.5327V55.6529H66.8151V58.3644H64.1036V61.0759H61.392V63.7935H55.9629V66.505H50.5399V69.2166H26.118Z"
        fill="#231F20" />
    <path
        d="M49.1781 2.7418V5.45333H51.8896H54.6072V8.16486H57.3187H60.0303V10.8764H62.7418V13.5879H65.4533V16.2994H68.1648V19.011V21.7225H70.8764V24.434V27.1456H73.5879V29.8571V32.5686V35.2801V37.9917V40.7032V43.4147H70.8764V46.1262V48.8378H68.1648V51.5493V54.2608H65.4533V56.9724H62.7418V59.6839H60.0303V62.3954H57.3187H54.6072V65.1069H51.8957H49.1842V67.8185H46.4726H43.7611H41.0496H38.3259H35.6144H32.9029H30.1914H27.4798V65.1069H24.7683H22.0447V62.3954H19.3331H16.6216V59.6839H13.9101V56.9724H11.1985V54.2608H8.48702V51.5493V48.8378H5.76944V46.1262V43.4147H3.05186V40.7032V37.9917V35.2801V32.5686V29.8571V27.1456H5.76339V24.434V21.7225H8.47492V19.011V16.2994H11.1864V13.5879H13.898V10.8764H16.6095V8.17091H19.321H22.0326V5.45333H24.7441H27.4556V2.7418H30.1671H32.8787H35.5902H38.3017H41.0133H43.7248H46.4363H49.1781ZM51.8957 0.0302734H49.1842H46.4726H43.7611H41.0496H38.3259H35.6144H32.9029H30.1914H27.4798H24.7683V2.7418H22.0447H19.3331V5.45333H16.6216H13.9101V8.16486H11.1985V10.8764H8.48702V13.5879H5.76944V16.2994V19.011H3.05186V21.7225V24.434H0.340332V27.1456V29.8571V32.5686V35.2801V37.9917V40.7032V43.4147V46.1262H3.05186V48.8378V51.5493H5.76339V54.2608V56.9724H8.47492V59.6839H11.1864V62.3954H13.898V65.1069H16.6095H19.321V67.8185H22.0326H24.7441V70.53H27.4556H30.1671H32.8787H35.5902H38.3017H41.0133H43.7248H46.4363H49.1478H51.8594V67.8185H54.6072H57.3187V65.1069H60.0303H62.7418V62.3954H65.4533V59.6839H68.1648V56.9724H70.8764V54.2608V51.5493H73.5879V48.8378V46.1262H76.2994V43.4147V40.7032V37.9917V35.2801V32.5686V29.8571V27.1456V24.434H73.5879V21.7225V19.011H70.8764V16.2994V13.5879H68.1648V10.8764H65.4533V8.16486H62.7418V5.45333H60.0303H57.3187V2.7418H54.6072H51.8957V0.0302734Z"
        fill="white" />
    <path
        d="M70.8884 27.1637V24.4462V21.7346H68.1768V19.0231V16.3116H65.4593V13.594H62.7477V10.8825H60.0362V8.17093H57.3186H54.6071V5.45335H51.8956H49.178V2.74182H46.4665H43.7549H41.0434H38.3258H35.6143H32.9028H30.1852H27.4737V5.45335H24.7621H22.0446V8.17093H19.333H16.6215V10.8825H13.91V13.594H11.1924V16.3116H8.48087V19.0231V21.7346H5.76934V24.4462V27.1637H3.05176V29.8753V32.5868V35.3044V38.0159V40.7274V43.445H5.76934V46.1565V48.8681H8.48087V51.5796V54.2972H11.1924V57.0087H13.91V59.7202H16.6215V62.4378H19.333H22.0446V65.1493H24.7621H27.4737V67.8609H30.1852H32.9028H35.6143H38.3258H41.0434H43.7549H46.4665H49.178V65.1493H51.8956H54.6071V62.4378H57.3186H60.0362V59.7202H62.7477V57.0087H65.4593V54.2972H68.1768V51.5796V48.8681H70.8884V46.1565V43.445H73.5999V40.7274V38.0159V35.3044V32.5868V29.8753V27.1637H70.8884Z"
        fill="#231F20" />
    <path
        d="M51.2724 21.8496H48.5548H45.8433H43.1318V24.5611H45.8433V27.2787V29.9903V32.7018V35.4194V38.1309H43.1318V40.8424H40.5292V40.7274V38.0159H37.8176V35.9157V35.3044V32.5868V29.8753H35.1061V27.1637V24.4461V21.7346H32.3946H29.677H26.9655H24.254V24.4461H21.5364V27.1637H24.254H26.9655V29.8753V32.5868H29.677V35.3044V38.0159V40.7274H32.3946V43.445V46.1565V48.8681V51.5796V54.2972H35.1061H37.8176V51.5796H40.5292V48.8681H43.2468V46.2715H45.8433V43.56H48.5548V40.8424H51.2724V38.1309V35.4194H53.9839V32.7018V29.9903V27.2787V24.5611V21.8496H51.2724Z"
        fill="white" />
</svg>