<?xml version="1.0" encoding="utf-8"?>
<!-- Generator: Adobe Illustrator 25.3.1, SVG Export Plug-In . SVG Version: 6.00 Build 0)  -->
<svg version="1.1" id="Layer_1" xmlns="http://www.w3.org/2000/svg" xmlns:xlink="http://www.w3.org/1999/xlink" x="0px" y="0px"
	 viewBox="0 0 125.52 116.56" style="enable-background:new 0 0 125.52 116.56;" xml:space="preserve">
<style type="text/css">
	.st0{fill:#231F20;}
	.st1{fill:#FFFFFF;}
</style>
<g>
	<g>
		<polygon class="st0" points="42.93,114.36 42.93,109.88 33.96,109.88 33.96,105.4 25,105.4 25,100.91 20.51,100.91 20.51,96.43 
			16.03,96.43 16.03,91.95 11.55,91.95 11.55,82.98 7.06,82.98 7.06,74.02 2.58,74.02 2.58,42.64 7.06,42.64 7.06,33.67 
			11.55,33.67 11.55,24.7 16.03,24.7 16.03,20.22 20.51,20.22 20.51,15.74 25,15.74 25,11.26 33.96,11.26 33.96,6.77 42.93,6.77 
			42.93,2.29 83.28,2.29 83.28,6.77 92.24,6.77 92.24,11.26 101.21,11.26 101.21,15.74 105.69,15.74 105.69,20.22 110.17,20.22 
			110.17,24.7 114.66,24.7 114.66,33.67 119.14,33.67 119.14,42.64 123.62,42.64 123.62,74.02 119.14,74.02 119.14,82.98 
			114.66,82.98 114.66,91.95 110.17,91.95 110.17,96.43 105.69,96.43 105.69,100.91 101.21,100.91 101.21,105.4 92.24,105.4 
			92.24,109.88 83.28,109.88 83.28,114.36 		"/>
		<path class="st1" d="M81.03,4.53v4.48h4.48H90v4.48h4.48h4.48v4.48h4.48v4.48h4.48v4.48h4.48v4.48v4.48h4.48v4.48v4.48h4.48v4.48
			v4.48v4.48v4.48v4.48v4.48h-4.48v4.48v4.48h-4.48v4.48v4.48h-4.48v4.48h-4.48v4.48h-4.48v4.48h-4.48H90v4.48h-4.48h-4.48v4.48
			h-4.48h-4.48h-4.48H63.1h-4.48h-4.48h-4.48h-4.48v-4.48h-4.48H36.2v-4.48h-4.48h-4.48v-4.48h-4.48v-4.48h-4.48v-4.48h-4.48v-4.48
			v-4.48H9.31v-4.48v-4.48H4.82v-4.48v-4.48v-4.48v-4.48v-4.48v-4.48h4.48v-4.48v-4.48h4.48v-4.48v-4.48h4.48v-4.48h4.48v-4.48h4.48
			V13.5h4.48h4.48V9.01h4.48h4.48V4.53h4.48h4.48h4.48h4.48h4.48h4.48h4.48H81.03 M85.52,0.05h-4.48h-4.48h-4.48h-4.48H63.1h-4.48
			h-4.48h-4.48h-4.48h-4.48v4.48H36.2h-4.48v4.48h-4.48h-4.48v4.48h-4.48v4.48h-4.48v4.48v0h0H9.31v4.48v4.48H4.82v4.48v4.48h0H0.34
			v4.48v4.48v4.48v4.48v4.48v4.48v4.48v4.48h4.48l0,0v4.48v4.48h4.48l0,0v4.48v4.48h4.48l0,4.48h4.48l0,0v4.48h4.48l0,0v4.48h4.48
			h4.48v4.48h4.48h4.48v0v4.48h4.48h4.48h4.48h4.48h4.48h4.48h4.48h4.48h4.48h4.48v-4.48v0h0H90h4.48v-4.48h4.48h4.48v-4.48h4.48
			v-4.48h0h4.48v-4.48h4.48v-4.48v-4.48h0h4.48v-4.48v-4.48v0h4.48v-4.48v-4.48v-4.48v-4.48v-4.48v-4.48v-4.48v-4.48h-4.48v-4.48
			v-4.48h-4.48l0-4.48v-4.48h-4.48v0v-4.48h-4.48l0-4.48h-4.48l0,0V9.01h-4.48h-4.48l0,0V4.53H90h-4.48L85.52,0.05L85.52,0.05z"/>
	</g>
	<polygon class="st0" points="116.9,44.88 116.9,40.39 116.9,35.91 112.42,35.91 112.42,31.43 112.42,26.95 107.93,26.95 
		107.93,22.46 103.45,22.46 103.45,17.98 98.97,17.98 98.97,13.5 94.48,13.5 90,13.5 90,9.01 85.52,9.01 81.03,9.01 81.03,4.53 
		76.55,4.53 72.07,4.53 67.59,4.53 63.1,4.53 58.62,4.53 54.14,4.53 49.65,4.53 45.17,4.53 45.17,9.01 40.69,9.01 36.2,9.01 
		36.2,13.5 31.72,13.5 27.24,13.5 27.24,17.98 22.76,17.98 22.76,22.46 18.27,22.46 18.27,26.95 13.79,26.95 13.79,31.43 
		13.79,35.91 9.31,35.91 9.31,40.39 9.31,44.88 4.82,44.88 4.82,49.36 4.82,53.84 4.82,58.33 4.82,62.81 4.82,67.29 4.82,71.78 
		9.31,71.78 9.31,76.26 9.31,80.74 13.79,80.74 13.79,85.22 13.79,89.71 18.27,89.71 18.27,94.19 22.76,94.19 22.76,98.67 
		27.24,98.67 27.24,103.16 31.72,103.16 36.2,103.16 36.2,107.64 40.69,107.64 45.17,107.64 45.17,112.12 49.65,112.12 
		54.14,112.12 58.62,112.12 63.1,112.12 67.59,112.12 72.07,112.12 76.55,112.12 81.03,112.12 81.03,107.64 85.52,107.64 90,107.64 
		90,103.16 94.48,103.16 98.97,103.16 98.97,98.67 103.45,98.67 103.45,94.19 107.93,94.19 107.93,89.71 112.42,89.71 112.42,85.22 
		112.42,80.74 116.9,80.74 116.9,76.26 116.9,71.78 121.38,71.78 121.38,67.29 121.38,62.81 121.38,58.33 121.38,53.84 
		121.38,49.36 121.38,44.88 	"/>
	<polygon class="st1" points="84.49,36.1 80,36.1 75.52,36.1 71.04,36.1 71.04,40.58 75.52,40.58 75.52,45.07 75.52,49.55 
		75.52,54.03 75.52,58.52 75.52,63 71.04,63 71.04,67.48 66.74,67.48 66.74,67.29 66.74,62.81 62.26,62.81 62.26,59.34 62.26,58.33 
		62.26,53.84 62.26,49.36 57.78,49.36 57.78,44.88 57.78,40.39 57.78,35.91 53.3,35.91 48.81,35.91 44.33,35.91 39.85,35.91 
		39.85,40.39 35.36,40.39 35.36,44.88 39.85,44.88 44.33,44.88 44.33,49.36 44.33,53.84 48.81,53.84 48.81,58.33 48.81,62.81 
		48.81,67.29 53.3,67.29 53.3,71.78 53.3,76.26 53.3,80.74 53.3,85.22 53.3,89.71 57.78,89.71 62.26,89.71 62.26,85.22 66.74,85.22 
		66.74,80.74 71.23,80.74 71.23,76.45 75.52,76.45 75.52,71.97 80,71.97 80,67.48 84.49,67.48 84.49,63 84.49,58.52 88.97,58.52 
		88.97,54.03 88.97,49.55 88.97,45.07 88.97,40.58 88.97,36.1 	"/>
</g>
</svg>
