<?xml version="1.0" encoding="utf-8"?>
<!-- Generator: Adobe Illustrator 25.3.1, SVG Export Plug-In . SVG Version: 6.00 Build 0)  -->
<svg version="1.1" id="CtIcon" xmlns="http://www.w3.org/2000/svg"
	xmlns:xlink="http://www.w3.org/1999/xlink" x="0px" y="0px"
	viewBox="0 0 123.15 92.41" style="enable-background:new 0 0 123.15 92.41;" xml:space="preserve">
<style type="text/css">
	.st0{fill:#FFFFFF;}
</style>
<g>
	<polygon class="st0" points="96.25,4.48 96.25,0 91.77,0 8.97,0 4.48,0 4.48,4.48 0,4.48 0,8.97 0,8.97 0,13.45 0,17.93 0,65.51 
		0,70 4.48,70 4.48,74.48 8.97,74.48 91.77,74.48 96.25,74.48 96.25,70 100.73,70 100.73,65.51 100.73,8.97 100.73,4.48 	"/>
	<g>
		<rect x="4.48" y="8.97" width="4.48" height="4.48"/>
		<rect x="8.97" y="8.97" width="4.48" height="4.48"/>
		<rect x="13.45" y="13.45" width="4.48" height="4.48"/>
		<rect x="17.93" y="17.93" width="4.48" height="4.48"/>
		<rect x="22.41" y="22.42" width="4.48" height="4.48"/>
		<rect x="26.9" y="26.9" width="4.48" height="4.48"/>
		<rect x="31.38" y="31.38" width="4.48" height="4.48"/>
		<rect x="64.87" y="31.38" width="4.48" height="4.48"/>
		<rect x="69.35" y="26.9" width="4.48" height="4.48"/>
		<rect x="73.83" y="22.42" width="4.48" height="4.48"/>
		<rect x="78.32" y="17.93" width="4.48" height="4.48"/>
		<rect x="82.8" y="13.45" width="4.48" height="4.48"/>
		<rect x="87.28" y="8.97" width="4.48" height="4.48"/>
		<rect x="35.86" y="35.86" width="4.48" height="4.48"/>
		<rect x="40.35" y="35.86" width="4.48" height="4.48"/>
		<rect x="44.83" y="35.86" width="4.48" height="4.48"/>
		<rect x="49.31" y="35.86" width="4.48" height="4.48"/>
		<rect x="53.8" y="35.86" width="4.48" height="4.48"/>
		<rect x="58.28" y="35.86" width="6.59" height="4.48"/>
		<rect x="8.97" y="65.51" width="82.8" height="4.48"/>
		<rect x="4.48" y="13.45" width="4.48" height="52.06"/>
		<rect x="91.77" y="8.97" width="4.48" height="56.55"/>
		<rect x="8.97" y="4.48" width="82.8" height="4.48"/>
	</g>
	<polygon class="st0" points="118.66,47.58 118.66,47.58 118.66,43.1 114.18,43.1 114.18,38.62 109.7,38.62 105.21,38.62 
		100.73,38.62 96.25,38.62 96.25,43.1 96.25,43.1 91.77,43.1 91.77,38.62 87.28,38.62 82.8,38.62 78.32,38.62 73.83,38.62 
		73.83,43.1 73.83,43.1 69.35,43.1 69.35,47.58 69.35,47.58 64.87,47.58 64.87,52.06 64.87,56.55 64.87,61.03 64.87,65.51 64.87,70 
		69.35,70 69.35,74.48 73.83,74.48 73.83,74.48 73.83,74.48 73.83,78.96 78.32,78.96 78.32,83.45 82.8,83.45 82.8,83.45 82.8,87.93 
		87.28,87.93 87.28,92.41 91.77,92.41 96.25,92.41 100.73,92.41 100.73,87.93 100.73,87.93 105.21,87.93 105.21,83.45 105.21,83.45 
		109.7,83.45 109.7,78.96 114.18,78.96 114.18,74.48 114.18,74.48 118.66,74.48 118.66,70 123.15,70 123.15,65.51 123.15,61.03 
		123.15,56.55 123.15,52.06 123.15,47.58 	"/>
	<g>
		<polygon points="82.8,43.1 78.32,43.1 78.32,47.58 82.8,47.58 87.28,47.58 87.28,43.1 		"/>
		<polygon points="73.83,52.06 69.35,52.06 69.35,56.55 69.35,61.03 73.83,61.03 73.83,56.55 73.83,52.06 78.32,52.06 78.32,47.58 
			73.83,47.58 		"/>
		<rect x="69.35" y="61.03" width="4.48" height="4.48"/>
		<rect x="87.28" y="47.58" width="4.48" height="4.48"/>
		<rect x="91.77" y="52.06" width="4.48" height="4.48"/>
		<rect x="96.25" y="47.58" width="4.48" height="4.48"/>
		<polygon points="105.21,43.1 100.73,43.1 100.73,47.58 105.21,47.58 109.7,47.58 109.7,43.1 		"/>
		<rect x="109.7" y="47.58" width="4.48" height="4.48"/>
		<rect x="109.7" y="65.51" width="4.48" height="4.48"/>
		<rect x="105.21" y="70" width="4.48" height="4.48"/>
		<rect x="100.73" y="74.48" width="4.48" height="4.48"/>
		<rect x="96.25" y="78.96" width="4.48" height="4.48"/>
		<polygon points="91.77,78.96 87.28,78.96 87.28,83.45 91.77,83.45 91.77,87.93 96.25,87.93 96.25,83.45 91.77,83.45 		"/>
		<rect x="82.8" y="74.48" width="4.48" height="4.48"/>
		<rect x="78.32" y="70" width="4.48" height="4.48"/>
		<rect x="73.83" y="65.51" width="4.48" height="4.48"/>
		<polygon points="114.18,52.06 114.18,56.55 114.18,61.03 114.18,65.51 118.66,65.51 118.66,61.03 118.66,56.55 118.66,52.06 		"/>
	</g>
</g>
</svg>