<svg id="GitIcon" viewBox="0 0 76 71" fill="none"
    xmlns="http://www.w3.org/2000/svg">
    <path
        d="M25.7776 69.1923V66.4748H20.3485V63.7632H14.9255V61.0517H12.2079V58.3341H9.49635V55.6226H6.78482V50.1995H4.06724V44.7704H1.35571V25.7776H4.06724V20.3485H6.78482V14.9255H9.49635V12.2079H12.2079V9.49635H14.9255V6.78482H20.3485V4.06724H25.7776V1.35571H50.1995V4.06724H55.6226V6.78482H61.0517V9.49635H63.7632V12.2079H66.4748V14.9255H69.1923V20.3485H71.9039V25.7776H74.6154V44.7704H71.9039V50.1995H69.1923V55.6226H66.4748V58.3341H63.7632V61.0517H61.0517V63.7632H55.6226V66.4748H50.1995V69.1923H25.7776Z"
        fill="#231F20" />
    <path
        d="M48.8378 2.71153V5.42306H51.5493H54.2608V8.13458H56.9724H59.6839V10.8461H62.3954V13.5576H65.1069V16.2692H67.8185V18.9807V21.6922H70.53V24.4038V27.1153H73.2415V29.8268V32.5383V35.2499V37.9614V40.6729V43.3844H70.53V46.096V48.8075H67.8185V51.519V54.2306H65.1069V56.9421H62.3954V59.6536H59.6839V62.3651H56.9724H54.2608V65.0767H51.5493H48.8378V67.7882H46.1262H43.4147H40.7032H37.9917H35.2801H32.5625H29.851H27.1395V65.0767H24.428H21.7164V62.3651H19.0049H16.2813V59.6536H13.5697V56.9421H10.8582V54.2306H8.14669V51.519V48.8075H5.42911V46.096V43.3844H2.71153V40.6729V37.9614V35.2499V32.5625V29.851V27.1395H5.42306V24.428V21.7164H8.13458V19.0049V16.2813H10.8461V13.5697H13.5576V10.8582H16.2692V8.14669H18.9807H21.6922V5.42911H24.4038H27.1153V2.71153H29.8268H32.5383H35.2499H37.9614H40.6729H43.3845H46.096H48.8378ZM51.5554 0H48.8438H46.1323H43.4208H40.7092H37.9977H35.2862H32.5625H29.851H27.1395H24.428V2.71153H21.7164H19.0049V5.42306H16.2813H13.5697V8.13458H10.8582V10.8461H8.14669V13.5576H5.42911V16.2692V18.9807H2.71153V21.6922V24.4038H0V27.1153V29.8268V32.5383V35.2499V37.9614V40.6729V43.3844V46.096H2.71153V48.8075V51.519H5.42306V54.2306V56.9421H8.13458V59.6536H10.8461V62.3651H13.5576V65.0767H16.2692H18.9807V67.7882H21.6922H24.4038V70.4997H27.1153H29.8268H32.5383H35.2499H37.9614H40.6729H43.3845H46.096H48.8075H51.519V67.7882H54.2306H56.9421V65.0767H59.6536H62.3652V62.3651H65.0767V59.6536H67.7882V56.9421H70.4997V54.2306V51.519H73.2113V48.8075V46.096H75.9228V43.3844V40.6729V37.9614V35.2499V32.5625V29.851V27.1395V24.428H73.2113V21.7164V19.0049H70.4997V16.2813V13.5697H67.7882V10.8582H65.0767V8.14669H62.3652V5.42911H59.6536H56.9421V2.71153H54.2306H51.519L51.5554 0Z"
        fill="white" />
    <path
        d="M56.1856 27.1335V24.5127V21.892V21.8012V19.1805V16.4629H53.474H50.7625V19.1744H48.051H45.3334H42.6219V19.1986C42.5977 19.1805 42.5735 19.1744 42.5735 19.1744V16.4629H37.8706H37.7799H33.0771V19.1744L33.0286 19.1986V19.1744H30.3171H27.6056H24.894V16.4629H22.1825H19.471V19.1744V21.7952V21.8859V24.5067V27.1274H16.8503V29.839V32.5505V35.262V37.9735V40.6851H19.5618V43.3966H22.2733V46.1081H24.9848V48.8197H27.6056H27.6964H33.1255V51.5312H30.4139V54.2427H27.7024H24.9909H22.2794V51.5312H19.5678V48.8197H16.8563H14.1448V51.5312H16.8563V54.2427H19.5678V56.9542H22.2794V59.6658H24.9909H27.7024H30.4139V67.8064H45.3334V54.2669V51.5554H42.6219V48.8439H47.9541H50.6657V46.1323H53.3772V43.4208H56.0887V40.7093H58.8003V37.9977V35.2862V32.5626V29.8511V27.1395H56.1856V27.1335Z"
        fill="white" />
</svg>