<?xml version="1.0" encoding="utf-8"?>
<!-- Generator: Adobe Illustrator 25.3.1, SVG Export Plug-In . SVG Version: 6.00 Build 0)  -->
<svg version="1.1" id="resume" xmlns="http://www.w3.org/2000/svg" xmlns:xlink="http://www.w3.org/1999/xlink" x="0px" y="0px"
	 viewBox="0 0 91.4 106.26" style="enable-background:new 0 0 91.4 106.26;" xml:space="preserve">
<style type="text/css">
	.st0{fill:#FFFFFF;}
	.st1{fill:#231F20;}
</style>
<g>
	<polygon class="st0" points="2.41,103.84 2.41,2.42 70.36,2.42 70.36,7.07 75.01,7.07 75.01,11.73 79.67,11.73 79.67,16.38 
		84.33,16.38 84.33,21.04 88.98,21.04 88.98,103.84 	"/>
	<path class="st0" d="M67.94,4.83v4.66h4.66v4.66h4.66v4.66h4.66v4.66h4.66v4.83V96.6v4.83h-4.52h-0.31h-4.22h-0.31H73h-0.31h-4.22
		h-0.31h-4.22h-0.31h-4.22h-0.31H54.9h-0.31h-4.22h-0.31h-4.22h-0.31h-4.22h-0.31H36.8H36.5h-4.22h-0.31h-4.22h-0.31h-4.22h-0.31
		h-4.22H18.4h-4.22h-0.31H9.66H9.35H4.83V96.6v-4.83v-4.83v-4.83v-4.83v-4.83v-4.83v-4.83v-4.83v-4.83V48.3v-4.83v-4.83v-4.83v-4.83
		v-4.83v-4.83v-4.83V9.66V4.83h4.48h0.35h4.14h0.35h4.14h0.35h4.14h0.35h4.14h0.35h4.14h0.35h4.14h0.35h4.14h0.35h4.14h0.35h4.14
		h0.35h4.14h0.35h4.14h0.35h4.14h0.35H67.94 M72.77,0h-4.83h-4.48h-0.35h-4.14h-0.35h-4.14h-0.35h-4.14h-0.35h-4.14h-0.35h-4.14
		H40.7h-4.14h-0.35h-4.14h-0.35h-4.14h-0.35h-4.14h-0.35h-4.14h-0.35h-4.14H13.8H9.66H9.31H4.83H0v4.83v4.83v4.83v4.83v4.83v4.83
		v4.83v4.83v4.83v4.83v4.83v4.83v4.83v4.83v4.83v4.83v4.83v4.83v4.83v4.83v4.83v4.83h4.83h4.52h0.31h4.22h0.31h4.22h0.31h4.22h0.31
		h4.22h0.31h4.22h0.31h4.22h0.31h4.22h0.31h4.22h0.31h4.22h0.31h4.22h0.31h4.22h0.31h4.22h0.31h4.22h0.31h4.22H73h4.22h0.31h4.22
		h0.31h4.52h4.83v-4.83V96.6V28.29v-4.83v-4.83h-4.66v-4.66h-4.66V9.31h-4.66V4.66h-4.66V0L72.77,0z"/>
</g>
<g>
	<rect x="29.86" y="39.27" class="st1" width="4.83" height="4.83"/>
	<polygon class="st1" points="54.14,52.98 49.31,52.98 49.22,52.98 44.39,52.98 44.3,52.98 39.47,52.98 34.69,52.98 34.69,48.3 
		29.86,48.3 29.86,53.13 34.54,53.13 34.54,57.81 39.47,57.81 44.3,57.81 44.39,57.81 49.22,57.81 49.31,57.81 54.14,57.81 
		54.14,53.13 58.97,53.13 58.97,48.3 54.14,48.3 	"/>
	<rect x="54.14" y="39.27" class="st1" width="4.83" height="4.83"/>
	<path class="st1" d="M81.91,23.46V18.8h-4.66v-4.66H72.6V9.49h-4.66V4.83h-4.48h-0.35h-4.14h-0.35h-4.14h-0.35h-4.14h-0.35h-4.14
		h-0.35h-4.14H40.7h-4.14h-0.35h-4.14h-0.35h-4.14h-0.35h-4.14h-0.35h-4.14h-0.35h-4.14H13.8H9.66H9.31H4.83v4.83v4.83v4.83v4.83
		v4.83v4.83v4.83v4.83v4.83v4.83v4.83v4.83v4.83v4.83v4.83v4.83v4.83v4.83v4.83v4.83h4.52h0.31h4.22h0.31h4.22h0.31h4.22h0.31h4.22
		h0.31h4.22h0.31h4.22h0.31h4.22h0.31h4.22h0.31h4.22h0.31h4.22h0.31h4.22h0.31h4.22h0.31h4.22h0.31h4.22H73h4.22h0.31h4.22h0.31
		h4.52V96.6V28.29v-4.83H81.91z M81.74,96.6h-4.22h-0.31H73h-0.31h-4.22h-0.31h-4.22h-0.31h-4.22h-0.31H54.9h-0.31h-4.22h-0.31
		h-4.22h-0.31h-4.22h-0.31H36.8H36.5h-4.22h-0.31h-4.22h-0.31h-4.22h-0.31h-4.22H18.4h-4.22h-0.31H9.66v-4.83v-4.83v-4.83v-4.83
		v-4.83v-4.83v-4.83v-4.83v-4.83V48.3v-4.83v-4.83v-4.83v-4.83v-4.83v-4.83v-4.83V9.66h4.14h0.35h4.14h0.35h4.14h0.35h4.14h0.35
		h4.14h0.35h4.14h0.35h4.14h0.35h4.14h0.35h4.14h0.35h4.14h0.35h4.14h0.35h4.14v13.8v2.41v2.41h18.63V96.6z"/>
</g>
</svg>
